{"glyphs":{"0":{"ha":833,"x_min":60,"x_max":774,"o":"m 417 -21 q 150 109 240 -21 q 60 482 60 239 q 149 856 60 726 q 417 986 239 986 q 683 856 593 986 q 774 483 774 726 q 684 109 774 239 q 417 -21 594 -21 m 250 482 q 258 336 250 399 l 513 789 q 417 828 475 828 q 291 746 332 828 q 250 482 250 664 m 417 138 q 542 219 501 138 q 583 483 583 301 q 581 561 583 525 q 574 629 579 597 l 319 176 q 417 138 357 138 z "},"1":{"ha":833,"x_min":108,"x_max":753,"o":"m 108 161 l 333 161 l 333 765 l 114 697 l 114 849 l 357 963 l 539 963 l 539 161 l 753 161 l 753 0 l 108 0 l 108 161 z "},"2":{"ha":833,"x_min":86,"x_max":758,"o":"m 111 875 q 263 960 189 935 q 428 986 338 986 q 548 967 494 986 q 640 913 601 947 q 699 828 678 878 q 719 718 719 778 q 699 610 719 665 q 630 490 678 556 q 506 343 582 424 q 317 161 429 263 l 758 161 l 758 0 l 86 0 l 86 150 q 296 366 214 278 q 425 517 378 454 q 490 623 472 579 q 508 704 508 667 q 477 787 508 757 q 390 817 446 817 q 256 788 328 817 q 111 710 183 760 l 111 875 z "},"3":{"ha":833,"x_min":94,"x_max":735,"o":"m 449 561 q 659 483 583 554 q 735 292 735 411 q 708 163 735 221 q 631 64 681 104 q 513 1 582 24 q 357 -21 443 -21 q 224 -6 292 -21 q 94 36 157 8 l 94 193 q 237 153 172 167 q 350 140 301 140 q 485 178 439 140 q 532 290 532 217 q 356 418 532 418 q 330 417 347 418 q 294 415 313 417 q 257 412 275 414 q 226 408 239 410 l 226 536 l 475 804 l 107 804 l 107 963 l 693 963 l 693 810 l 449 561 z "},"4":{"ha":833,"x_min":74,"x_max":783,"o":"m 74 339 l 347 963 l 553 963 l 267 346 l 489 346 l 489 583 l 665 583 l 665 346 l 783 346 l 783 190 l 665 190 l 665 0 l 489 0 l 489 190 l 74 190 l 74 339 z "},"5":{"ha":833,"x_min":89,"x_max":744,"o":"m 89 193 q 240 153 174 165 q 364 140 306 140 q 494 179 450 140 q 539 293 539 218 q 495 403 539 368 q 357 439 451 439 q 245 435 304 439 q 129 425 186 432 l 129 550 l 154 963 l 700 963 l 700 804 l 325 804 l 310 576 q 370 587 340 583 q 429 590 400 590 q 558 569 500 590 q 658 510 617 549 q 722 418 700 472 q 744 297 744 364 q 718 167 744 226 q 642 67 692 108 q 525 2 593 25 q 374 -21 457 -21 q 89 38 222 -21 l 89 193 z "},"6":{"ha":833,"x_min":67,"x_max":774,"o":"m 503 828 q 333 757 389 828 q 268 531 276 686 q 377 574 321 558 q 486 589 433 589 q 603 569 550 589 q 694 512 657 549 q 753 423 732 475 q 774 308 774 371 q 749 174 774 235 q 677 69 724 113 q 565 3 631 26 q 421 -21 500 -21 q 67 446 67 -21 q 94 673 67 572 q 175 843 122 774 q 304 949 228 913 q 478 986 381 986 q 601 972 538 986 q 711 935 665 958 l 711 790 q 609 817 668 807 q 503 828 550 828 m 419 436 q 269 401 351 436 q 310 199 272 261 q 429 138 347 138 q 571 289 571 138 q 533 398 571 360 q 419 436 494 436 z "},"7":{"ha":833,"x_min":63,"x_max":750,"o":"m 183 0 l 544 801 l 63 801 l 63 963 l 750 963 l 750 811 l 404 0 l 183 0 z "},"8":{"ha":833,"x_min":63,"x_max":771,"o":"m 736 729 q 697 597 736 657 q 586 503 657 538 q 672 453 636 479 q 729 399 707 428 q 761 338 751 371 q 771 264 771 304 q 678 53 771 128 q 415 -21 585 -21 q 268 -3 333 -21 q 157 49 203 15 q 87 130 111 82 q 63 239 63 178 q 108 390 63 322 q 238 496 154 458 q 133 589 165 536 q 100 713 100 642 q 123 825 100 775 q 188 911 146 875 q 288 967 229 947 q 417 986 346 986 q 547 967 488 986 q 648 915 606 949 q 713 833 690 881 q 736 729 736 786 m 347 444 q 280 369 303 413 q 257 278 257 326 q 418 132 257 132 q 535 166 494 132 q 576 265 576 200 q 569 308 576 289 q 542 345 561 328 q 490 381 522 363 q 407 419 457 399 l 347 444 m 289 724 q 322 638 289 675 q 425 572 354 601 l 476 550 q 547 704 547 617 q 513 806 547 771 q 414 842 479 842 q 321 812 353 842 q 289 724 289 782 z "},"9":{"ha":833,"x_min":64,"x_max":763,"o":"m 101 189 q 158 168 128 178 q 220 151 189 158 q 281 141 251 144 q 336 138 311 138 q 495 201 444 138 q 557 413 546 264 q 351 356 456 356 q 232 376 285 356 q 142 435 179 397 q 84 528 104 474 q 64 651 64 583 q 89 787 64 725 q 160 893 114 849 q 269 962 206 938 q 410 986 333 986 q 673 869 583 986 q 763 524 763 751 q 659 118 763 257 q 356 -21 556 -21 q 217 -3 286 -21 q 101 44 149 14 l 101 189 m 414 508 q 483 516 447 508 q 560 542 519 524 l 560 543 q 522 759 560 690 q 406 828 485 828 q 303 787 339 828 q 267 671 267 746 q 414 508 267 508 z "},"\u0000":{"ha":833,"x_min":0,"x_max":0,"o":""},"\r":{"ha":833,"x_min":0,"x_max":0,"o":""}," ":{"ha":833,"x_min":0,"x_max":0,"o":""},".":{"ha":833,"x_min":276,"x_max":557,"o":"m 417 -18 q 315 21 353 -18 q 276 122 276 60 q 315 224 276 185 q 417 263 353 263 q 519 224 481 263 q 557 122 557 185 q 519 21 557 60 q 417 -18 481 -18 z "},":":{"ha":833,"x_min":276,"x_max":557,"o":"m 417 -21 q 315 18 353 -21 q 276 119 276 57 q 315 221 276 182 q 417 260 353 260 q 519 221 481 260 q 557 119 557 182 q 519 18 557 57 q 417 -21 481 -21 m 417 450 q 315 489 353 450 q 276 590 276 528 q 315 692 276 653 q 417 731 353 731 q 519 692 481 731 q 557 590 557 653 q 519 489 557 528 q 417 450 481 450 z "},",":{"ha":833,"x_min":171,"x_max":546,"o":"m 343 263 l 428 263 q 515 244 483 263 q 546 186 546 226 q 538 133 546 160 q 513 74 529 106 q 470 2 496 42 q 411 -87 444 -37 l 321 -221 l 171 -221 l 343 263 z "},";":{"ha":833,"x_min":171,"x_max":557,"o":"m 343 263 l 428 263 q 515 244 483 263 q 546 186 546 226 q 538 133 546 160 q 513 74 529 106 q 470 2 496 42 q 411 -87 444 -37 l 321 -221 l 171 -221 l 343 263 m 417 450 q 315 489 353 450 q 276 590 276 528 q 315 692 276 653 q 417 731 353 731 q 519 692 481 731 q 557 590 557 653 q 519 489 557 528 q 417 450 481 450 z "},"?":{"ha":833,"x_min":85,"x_max":749,"o":"m 749 729 q 726 627 749 672 q 663 547 703 582 q 568 483 624 511 q 449 431 513 454 l 449 321 l 290 321 l 274 508 l 346 536 q 503 619 454 578 q 551 724 551 660 q 511 799 551 772 q 400 825 471 825 q 237 800 319 825 q 85 739 154 775 l 85 886 q 142 919 107 903 q 222 951 178 936 q 315 974 265 965 q 413 983 364 983 q 660 919 572 983 q 749 729 749 856 m 367 -18 q 271 19 307 -18 q 235 114 235 56 q 271 210 235 174 q 367 247 307 247 q 464 210 428 247 q 500 114 500 174 q 464 19 500 56 q 367 -18 428 -18 z "},"!":{"ha":833,"x_min":283,"x_max":549,"o":"m 415 -18 q 319 19 356 -18 q 283 114 283 56 q 319 210 283 174 q 415 247 356 247 q 513 210 476 247 q 549 114 549 174 q 513 19 549 56 q 415 -18 476 -18 m 417 986 q 488 977 457 986 q 547 953 519 968 l 497 321 l 338 321 l 288 953 q 346 977 315 968 q 417 986 376 986 z "},"¿":{"ha":833,"x_min":85,"x_max":749,"o":"m 85 -25 q 108 77 85 32 q 170 158 131 122 q 265 222 210 193 q 385 274 319 250 l 385 383 l 543 383 l 560 196 l 488 168 q 331 85 379 126 q 282 -19 282 44 q 322 -94 282 -68 q 433 -121 363 -121 q 597 -96 514 -121 q 749 -35 679 -71 l 749 -182 q 691 -215 726 -199 q 612 -247 656 -232 q 519 -270 568 -261 q 421 -279 469 -279 q 173 -215 261 -279 q 85 -25 85 -151 m 467 722 q 563 685 526 722 q 599 590 599 649 q 563 494 599 531 q 467 457 526 457 q 369 494 406 457 q 333 590 333 531 q 369 685 333 649 q 467 722 406 722 z "},"¡":{"ha":833,"x_min":283,"x_max":549,"o":"m 417 725 q 513 688 476 725 q 549 593 549 651 q 513 497 549 533 q 417 460 476 460 q 319 497 356 460 q 283 593 283 533 q 319 688 283 651 q 417 725 356 725 m 415 -279 q 344 -270 375 -279 q 285 -246 313 -261 l 335 386 l 494 386 l 544 -246 q 486 -270 517 -261 q 415 -279 456 -279 z "},"‽":{"ha":833,"x_min":85,"x_max":749,"o":"m 369 736 q 422 730 394 736 q 469 713 450 724 l 461 579 q 540 644 514 611 q 565 726 565 678 q 524 806 565 779 q 408 832 483 832 q 238 807 321 832 q 85 746 154 782 l 85 886 q 142 919 107 903 q 222 951 178 936 q 315 974 265 965 q 413 983 364 983 q 660 920 572 983 q 749 736 749 857 q 725 633 749 679 q 661 551 701 588 q 567 488 621 515 q 453 443 513 461 l 446 321 l 294 321 l 269 713 q 317 730 289 724 q 369 736 344 736 m 369 -18 q 274 19 310 -18 q 238 114 238 56 q 274 210 238 174 q 369 247 310 247 q 467 210 431 247 q 503 114 503 174 q 467 19 503 56 q 369 -18 431 -18 z "},"'":{"ha":833,"x_min":304,"x_max":529,"o":"m 304 957 q 417 982 351 982 q 529 957 479 982 l 490 567 l 343 567 l 304 957 z "},"\"":{"ha":833,"x_min":128,"x_max":706,"o":"m 128 957 q 240 982 175 982 q 353 957 303 982 l 314 567 l 167 567 l 128 957 m 481 957 q 593 982 528 982 q 706 957 656 982 l 667 567 l 519 567 l 481 957 z "},"…":{"ha":833,"x_min":42,"x_max":792,"o":"m 417 -18 q 340 10 368 -18 q 313 88 313 39 q 340 163 313 135 q 417 190 368 190 q 492 163 464 190 q 521 88 521 135 q 492 10 521 39 q 417 -18 464 -18 m 147 -18 q 70 10 99 -18 q 42 88 42 39 q 70 163 42 135 q 147 190 99 190 q 223 163 196 190 q 250 88 250 135 q 223 10 250 39 q 147 -18 196 -18 m 686 -18 q 610 10 638 -18 q 583 88 583 39 q 610 163 583 135 q 686 190 638 190 q 763 163 735 190 q 792 88 792 135 q 763 10 792 39 q 686 -18 735 -18 z "}," ":{"ha":833,"x_min":0,"x_max":0,"o":""}," ":{"ha":833,"x_min":0,"x_max":0,"o":""}," ":{"ha":833,"x_min":0,"x_max":0,"o":""}," ":{"ha":833,"x_min":0,"x_max":0,"o":""}," ":{"ha":833,"x_min":0,"x_max":0,"o":""}," ":{"ha":833,"x_min":0,"x_max":0,"o":""}," ":{"ha":833,"x_min":0,"x_max":0,"o":""}," ":{"ha":833,"x_min":0,"x_max":0,"o":""}," ":{"ha":833,"x_min":0,"x_max":0,"o":""}," ":{"ha":833,"x_min":0,"x_max":0,"o":""}," ":{"ha":833,"x_min":0,"x_max":0,"o":""}," ":{"ha":833,"x_min":0,"x_max":0,"o":""},"​":{"ha":833,"x_min":0,"x_max":0,"o":""},"₀":{"ha":833,"x_min":157,"x_max":676,"o":"m 417 -156 q 224 -79 290 -156 q 157 129 157 -3 q 225 342 157 268 q 417 417 293 417 q 610 340 543 417 q 676 132 676 264 q 608 -81 676 -7 q 417 -156 540 -156 m 417 -39 q 526 129 526 -39 q 500 258 526 217 q 417 300 474 300 q 307 132 307 300 q 333 3 307 44 q 417 -39 360 -39 z "},"₁":{"ha":833,"x_min":179,"x_max":672,"o":"m 363 -28 l 363 264 l 185 213 l 185 325 l 376 406 l 510 406 l 510 -28 l 672 -28 l 672 -144 l 179 -144 l 179 -28 l 363 -28 z "},"₂":{"ha":833,"x_min":199,"x_max":642,"o":"m 621 267 q 608 199 621 231 q 565 132 594 167 q 491 58 536 97 q 382 -28 446 19 l 642 -28 l 642 -144 l 199 -144 l 199 -44 q 328 61 276 17 q 412 139 381 106 q 456 197 443 172 q 468 243 468 222 q 449 283 468 268 q 389 297 429 297 q 303 281 346 297 q 211 236 260 264 l 211 354 q 308 401 260 385 q 421 417 357 417 q 571 374 521 417 q 621 267 621 332 z "},"₃":{"ha":833,"x_min":208,"x_max":644,"o":"m 458 169 q 534 164 500 174 q 593 135 568 154 q 631 88 618 115 q 644 26 644 60 q 578 -109 644 -62 q 390 -156 513 -156 q 292 -147 338 -156 q 208 -121 246 -139 l 208 -12 q 297 -32 254 -25 q 379 -39 339 -39 q 506 25 506 -39 q 480 72 506 57 q 385 88 454 88 q 344 86 369 88 q 293 82 318 85 l 293 151 l 451 292 l 214 292 l 214 406 l 610 406 l 610 306 l 458 169 z "},"₄":{"ha":833,"x_min":203,"x_max":714,"o":"m 203 51 l 401 406 l 549 406 l 344 67 l 501 67 l 501 207 l 629 207 l 629 67 l 714 67 l 714 -37 l 629 -37 l 629 -144 l 501 -144 l 501 -37 l 203 -37 l 203 51 z "},"₅":{"ha":833,"x_min":211,"x_max":642,"o":"m 392 -156 q 211 -124 293 -156 l 211 -15 q 307 -34 268 -29 q 388 -39 346 -39 q 474 -22 446 -39 q 503 26 503 -4 q 477 74 503 58 q 385 89 451 89 q 315 88 350 89 q 235 82 281 86 l 235 158 l 250 406 l 611 406 l 611 292 l 368 292 l 361 182 q 435 186 396 186 q 591 144 540 186 q 642 25 642 101 q 578 -108 642 -60 q 392 -156 514 -156 z "},"₆":{"ha":833,"x_min":179,"x_max":663,"o":"m 475 306 q 359 272 396 306 q 319 165 322 238 q 390 190 351 181 q 467 199 428 199 q 613 152 563 199 q 663 31 663 106 q 601 -104 663 -53 q 431 -156 540 -156 q 239 -88 299 -156 q 179 114 179 -21 q 252 337 179 257 q 461 417 325 417 q 548 408 510 417 q 618 386 586 399 l 618 285 q 553 300 585 294 q 475 306 522 306 m 428 96 q 372 91 397 96 q 322 76 346 86 q 350 -17 325 11 q 435 -44 375 -44 q 498 -27 475 -44 q 521 25 521 -10 q 499 77 521 58 q 428 96 476 96 z "},"₇":{"ha":833,"x_min":183,"x_max":664,"o":"m 250 -144 l 511 289 l 183 289 l 183 406 l 664 406 l 664 297 l 410 -144 l 250 -144 z "},"₈":{"ha":833,"x_min":179,"x_max":654,"o":"m 179 -8 q 206 67 179 33 q 293 128 233 101 q 222 188 242 156 q 203 257 203 219 q 261 374 203 331 q 418 417 319 417 q 571 376 513 417 q 629 272 629 336 q 606 203 629 233 q 528 150 582 174 q 626 89 599 122 q 654 8 654 56 q 590 -112 654 -68 q 414 -156 526 -156 q 243 -115 307 -156 q 179 -8 179 -75 m 383 93 q 379 94 381 93 q 375 94 378 94 q 327 58 342 78 q 313 19 313 38 q 340 -36 313 -17 q 415 -56 367 -56 q 492 -38 464 -56 q 521 10 521 -21 q 498 49 521 31 q 403 88 475 67 l 383 93 m 331 261 q 351 217 331 235 q 431 182 372 199 l 442 178 q 488 215 475 196 q 500 253 500 233 q 477 300 500 283 q 414 317 454 317 q 352 301 374 317 q 331 261 331 286 z "},"₉":{"ha":833,"x_min":176,"x_max":657,"o":"m 206 -19 q 367 -44 282 -44 q 479 -14 446 -44 q 514 86 513 17 q 445 63 482 71 q 372 54 408 54 q 229 100 282 54 q 176 221 176 146 q 194 301 176 265 q 242 363 211 338 q 315 403 272 389 q 411 417 358 417 q 594 346 532 417 q 657 140 657 275 q 585 -78 657 0 q 379 -156 513 -156 q 287 -146 335 -156 q 206 -121 239 -136 l 206 -19 m 404 157 q 514 175 464 157 l 514 181 q 408 306 514 306 q 317 232 317 306 q 339 177 317 197 q 404 157 361 157 z "},"₊":{"ha":833,"x_min":206,"x_max":628,"o":"m 351 -83 l 351 68 l 206 68 l 206 183 l 351 183 l 351 335 l 482 335 l 482 183 l 628 183 l 628 68 l 482 68 l 482 -83 l 351 -83 z "},"₋":{"ha":833,"x_min":206,"x_max":628,"o":"m 206 68 l 206 183 l 628 183 l 628 68 l 206 68 z "},"₌":{"ha":833,"x_min":206,"x_max":628,"o":"m 206 -39 l 206 76 l 628 76 l 628 -39 l 206 -39 m 206 175 l 206 290 l 628 290 l 628 175 l 206 175 z "},"₍":{"ha":833,"x_min":265,"x_max":568,"o":"m 265 131 q 310 324 265 231 q 435 485 356 418 l 568 485 q 453 322 497 410 q 408 131 408 235 q 453 -61 408 26 q 568 -224 497 -149 l 435 -224 q 310 -63 356 -157 q 265 131 265 31 z "},"₎":{"ha":833,"x_min":265,"x_max":568,"o":"m 568 131 q 523 -63 568 31 q 399 -224 478 -157 l 265 -224 q 381 -61 336 -149 q 425 131 425 26 q 381 322 425 235 q 265 485 336 410 l 399 485 q 523 324 478 418 q 568 131 568 231 z "},"⁰":{"ha":833,"x_min":157,"x_max":676,"o":"m 417 531 q 224 607 290 531 q 157 815 157 683 q 225 1028 157 954 q 417 1103 293 1103 q 610 1026 543 1103 q 676 818 676 950 q 608 605 676 679 q 417 531 540 531 m 417 647 q 526 815 526 647 q 500 944 526 903 q 417 986 474 986 q 307 818 307 986 q 333 689 307 731 q 417 647 360 647 z "},"¹":{"ha":833,"x_min":179,"x_max":672,"o":"m 363 658 l 363 950 l 185 899 l 185 1011 l 376 1092 l 510 1092 l 510 658 l 672 658 l 672 542 l 179 542 l 179 658 l 363 658 z "},"²":{"ha":833,"x_min":199,"x_max":642,"o":"m 621 953 q 608 885 621 917 q 565 818 594 853 q 491 744 536 783 q 382 658 446 706 l 642 658 l 642 542 l 199 542 l 199 642 q 328 747 276 703 q 412 825 381 792 q 456 883 443 858 q 468 929 468 908 q 449 969 468 954 q 389 983 429 983 q 303 967 346 983 q 211 922 260 950 l 211 1040 q 308 1087 260 1071 q 421 1103 357 1103 q 571 1060 521 1103 q 621 953 621 1018 z "},"³":{"ha":833,"x_min":208,"x_max":644,"o":"m 458 856 q 534 850 500 860 q 593 821 568 840 q 631 774 618 801 q 644 713 644 746 q 578 577 644 624 q 390 531 513 531 q 292 539 338 531 q 208 565 246 547 l 208 674 q 297 654 254 661 q 379 647 339 647 q 506 711 506 647 q 480 758 506 743 q 385 774 454 774 q 344 772 369 774 q 293 768 318 771 l 293 838 l 451 978 l 214 978 l 214 1092 l 610 1092 l 610 992 l 458 856 z "},"⁴":{"ha":833,"x_min":203,"x_max":714,"o":"m 203 738 l 401 1092 l 549 1092 l 344 753 l 501 753 l 501 893 l 629 893 l 629 753 l 714 753 l 714 649 l 629 649 l 629 542 l 501 542 l 501 649 l 203 649 l 203 738 z "},"⁵":{"ha":833,"x_min":211,"x_max":642,"o":"m 392 531 q 211 563 293 531 l 211 671 q 307 652 268 657 q 388 647 346 647 q 474 665 446 647 q 503 713 503 682 q 477 760 503 744 q 385 775 451 775 q 315 774 350 775 q 235 768 281 772 l 235 844 l 250 1092 l 611 1092 l 611 978 l 368 978 l 361 868 q 435 872 396 872 q 591 830 540 872 q 642 711 642 788 q 578 578 642 626 q 392 531 514 531 z "},"⁶":{"ha":833,"x_min":179,"x_max":663,"o":"m 475 992 q 359 958 396 992 q 319 851 322 924 q 390 876 351 867 q 467 885 428 885 q 613 838 563 885 q 663 717 663 792 q 601 582 663 633 q 431 531 540 531 q 239 598 299 531 q 179 800 179 665 q 252 1023 179 943 q 461 1103 325 1103 q 548 1094 510 1103 q 618 1072 586 1085 l 618 971 q 553 986 585 981 q 475 992 522 992 m 428 782 q 372 777 397 782 q 322 763 346 772 q 350 669 325 697 q 435 642 375 642 q 498 659 475 642 q 521 711 521 676 q 499 763 521 744 q 428 782 476 782 z "},"⁷":{"ha":833,"x_min":183,"x_max":664,"o":"m 250 542 l 511 975 l 183 975 l 183 1092 l 664 1092 l 664 983 l 410 542 l 250 542 z "},"⁸":{"ha":833,"x_min":179,"x_max":654,"o":"m 179 678 q 206 753 179 719 q 293 814 233 788 q 222 874 242 842 q 203 943 203 906 q 261 1060 203 1017 q 418 1103 319 1103 q 571 1063 513 1103 q 629 958 629 1022 q 606 890 629 919 q 528 836 582 860 q 626 775 599 808 q 654 694 654 742 q 590 574 654 618 q 414 531 526 531 q 243 571 307 531 q 179 678 179 611 m 383 779 q 379 780 381 779 q 375 781 378 781 q 327 744 342 764 q 313 706 313 724 q 340 650 313 669 q 415 631 367 631 q 492 648 464 631 q 521 696 521 665 q 498 735 521 717 q 403 774 475 753 l 383 779 m 331 947 q 351 903 331 921 q 431 868 372 885 l 442 864 q 488 901 475 882 q 500 939 500 919 q 477 986 500 969 q 414 1003 454 1003 q 352 988 374 1003 q 331 947 331 972 z "},"⁹":{"ha":833,"x_min":176,"x_max":657,"o":"m 206 667 q 367 642 282 642 q 479 672 446 642 q 514 772 513 703 q 445 749 482 757 q 372 740 408 740 q 229 786 282 740 q 176 907 176 832 q 194 988 176 951 q 242 1049 211 1024 q 315 1089 272 1075 q 411 1103 358 1103 q 594 1032 532 1103 q 657 826 657 961 q 585 608 657 686 q 379 531 513 531 q 287 540 335 531 q 206 565 239 550 l 206 667 m 404 843 q 514 861 464 843 l 514 867 q 408 992 514 992 q 317 918 317 992 q 339 863 317 883 q 404 843 361 843 z "},"⁺":{"ha":833,"x_min":206,"x_max":628,"o":"m 351 603 l 351 754 l 206 754 l 206 869 l 351 869 l 351 1021 l 482 1021 l 482 869 l 628 869 l 628 754 l 482 754 l 482 603 l 351 603 z "},"⁻":{"ha":833,"x_min":206,"x_max":628,"o":"m 206 754 l 206 869 l 628 869 l 628 754 l 206 754 z "},"⁼":{"ha":833,"x_min":206,"x_max":628,"o":"m 206 647 l 206 763 l 628 763 l 628 647 l 206 647 m 206 861 l 206 976 l 628 976 l 628 861 l 206 861 z "},"⁽":{"ha":833,"x_min":265,"x_max":568,"o":"m 265 817 q 310 1010 265 917 q 435 1171 356 1104 l 568 1171 q 453 1008 497 1096 q 408 817 408 921 q 453 625 408 713 q 568 463 497 538 l 435 463 q 310 623 356 529 q 265 817 265 717 z "},"⁾":{"ha":833,"x_min":265,"x_max":568,"o":"m 568 817 q 523 623 568 717 q 399 463 478 529 l 265 463 q 381 625 336 538 q 425 817 425 713 q 381 1008 425 921 q 265 1171 336 1096 l 399 1171 q 523 1010 478 1104 q 568 817 568 917 z "},"⁄":{"ha":833,"x_min":72,"x_max":761,"o":"m 72 0 l 649 963 l 761 963 l 185 0 l 72 0 z "},"%":{"ha":833,"x_min":69,"x_max":764,"o":"m 721 539 l 113 310 l 113 426 l 721 656 l 721 539 m 476 779 q 420 628 476 685 q 272 572 364 572 q 125 628 181 572 q 69 779 69 685 q 126 930 69 874 q 274 986 182 986 q 421 930 365 986 q 476 779 476 874 m 196 779 q 216 707 196 733 q 272 681 236 681 q 330 707 310 681 q 350 779 350 733 q 330 851 350 825 q 274 878 310 878 q 216 851 236 878 q 196 779 196 825 m 764 186 q 708 35 764 92 q 560 -21 651 -21 q 413 35 468 -21 q 357 186 357 92 q 413 337 357 281 q 561 393 469 393 q 708 337 653 393 q 764 186 764 281 m 483 186 q 503 114 483 140 q 560 88 524 88 q 617 114 597 88 q 638 186 638 140 q 617 258 638 232 q 561 285 597 285 q 503 258 524 285 q 483 186 483 232 z "},"‰":{"ha":833,"x_min":42,"x_max":792,"o":"m 792 185 q 740 34 792 89 q 607 -21 689 -21 q 519 -1 558 -21 q 456 64 481 19 q 393 -1 432 19 q 306 -21 354 -21 q 173 35 225 -21 q 121 186 121 90 q 172 337 121 282 q 306 392 224 392 q 393 371 354 392 q 456 307 432 350 q 519 371 481 350 q 607 392 558 392 q 740 336 689 392 q 792 185 792 281 m 449 779 q 392 628 449 685 q 244 572 336 572 q 97 628 153 572 q 42 779 42 685 q 98 930 42 874 q 246 986 154 986 q 393 930 338 986 q 449 779 449 874 m 719 556 l 81 381 l 81 481 l 719 656 l 719 556 m 671 185 q 651 258 671 232 q 593 285 631 285 q 535 259 556 285 q 515 186 515 233 q 535 113 515 139 q 593 86 556 86 q 651 112 631 86 q 671 185 671 138 m 242 186 q 262 113 242 139 q 319 86 282 86 q 377 112 357 86 q 397 185 397 138 q 377 258 397 232 q 319 285 357 285 q 262 259 282 285 q 242 186 242 233 m 168 779 q 188 707 168 733 q 244 681 208 681 q 302 707 282 681 q 322 779 322 733 q 302 851 322 825 q 246 878 282 878 q 188 851 208 878 q 168 779 168 825 z "},"½":{"ha":833,"x_min":28,"x_max":806,"o":"m 60 0 l 636 963 l 749 963 l 172 0 l 60 0 m 488 0 l 488 88 q 568 160 535 129 q 623 216 601 192 q 654 260 644 240 q 664 299 664 279 q 617 335 664 335 q 560 324 592 335 q 493 292 528 314 l 493 383 q 559 421 518 406 q 644 436 600 436 q 751 403 713 436 q 789 318 789 371 q 749 213 789 264 q 633 104 708 161 l 806 104 l 806 0 l 488 0 m 158 538 l 158 843 l 28 804 l 28 899 l 171 963 l 286 963 l 286 538 l 158 538 z "},"⅓":{"ha":833,"x_min":28,"x_max":806,"o":"m 47 0 l 624 963 l 736 963 l 160 0 l 47 0 m 686 250 q 770 217 735 249 q 806 135 806 186 q 756 33 806 68 q 619 -3 707 -3 q 551 3 588 -3 q 489 24 515 10 l 489 115 q 551 101 515 106 q 610 96 586 96 q 669 109 650 96 q 688 144 688 122 q 672 176 688 164 q 614 189 657 189 q 578 188 599 189 q 550 185 557 186 l 550 238 l 663 336 l 494 336 l 494 433 l 785 433 l 785 340 l 686 250 m 158 538 l 158 843 l 28 804 l 28 899 l 171 963 l 286 963 l 286 538 l 158 538 z "},"⅔":{"ha":833,"x_min":28,"x_max":806,"o":"m 71 0 l 647 963 l 760 963 l 183 0 l 71 0 m 686 250 q 770 217 735 249 q 806 135 806 186 q 756 33 806 68 q 619 -3 707 -3 q 551 3 588 -3 q 489 24 515 10 l 489 115 q 551 101 515 106 q 610 96 586 96 q 669 109 650 96 q 688 144 688 122 q 672 176 688 164 q 614 189 657 189 q 578 188 599 189 q 550 185 557 186 l 550 238 l 663 336 l 494 336 l 494 433 l 785 433 l 785 340 l 686 250 m 28 538 l 28 625 q 108 698 75 667 q 163 753 142 729 q 194 797 185 778 q 204 836 204 817 q 157 872 204 872 q 100 862 132 872 q 33 829 68 851 l 33 921 q 99 958 58 943 q 185 974 140 974 q 291 941 253 974 q 329 856 329 908 q 289 750 329 801 q 174 642 249 699 l 346 642 l 346 538 l 28 538 z "},"¼":{"ha":833,"x_min":28,"x_max":806,"o":"m 78 0 l 654 963 l 767 963 l 190 0 l 78 0 m 654 76 l 442 76 l 442 169 l 565 425 l 678 425 l 544 165 l 654 165 l 654 268 l 758 268 l 758 165 l 806 165 l 806 76 l 758 76 l 758 0 l 654 0 l 654 76 m 158 538 l 158 843 l 28 804 l 28 899 l 171 963 l 286 963 l 286 538 l 158 538 z "},"¾":{"ha":833,"x_min":28,"x_max":806,"o":"m 68 0 l 644 963 l 757 963 l 181 0 l 68 0 m 654 76 l 442 76 l 442 169 l 565 425 l 678 425 l 544 165 l 654 165 l 654 268 l 758 268 l 758 165 l 806 165 l 806 76 l 758 76 l 758 0 l 654 0 l 654 76 m 225 779 q 309 747 274 778 q 344 664 344 715 q 295 562 344 597 q 158 526 246 526 q 90 533 126 526 q 28 553 54 539 l 28 644 q 90 630 54 635 q 149 625 125 625 q 208 638 189 625 q 226 674 226 651 q 211 706 226 693 q 153 718 196 718 q 117 717 138 718 q 89 714 96 715 l 89 767 l 201 865 l 33 865 l 33 963 l 324 963 l 324 869 l 225 779 z "},"⅛":{"ha":833,"x_min":28,"x_max":806,"o":"m 57 0 l 633 963 l 746 963 l 169 0 l 57 0 m 453 106 q 475 170 453 143 q 536 213 497 197 q 468 315 468 249 q 512 402 468 368 q 632 436 556 436 q 749 405 707 436 q 792 325 792 374 q 769 265 792 289 q 715 228 747 242 q 783 184 760 208 q 806 124 806 160 q 758 25 806 61 q 626 -11 710 -11 q 501 20 550 -11 q 453 106 453 51 m 606 183 q 569 122 569 156 q 585 83 569 99 q 632 68 600 68 q 674 83 658 68 q 689 119 689 97 q 674 151 689 139 q 622 178 660 164 l 606 183 m 578 315 q 597 280 578 296 q 649 253 617 264 q 670 281 663 265 q 678 313 678 297 q 664 347 678 336 q 628 357 650 357 q 592 346 606 357 q 578 315 578 335 m 158 538 l 158 843 l 28 804 l 28 899 l 171 963 l 286 963 l 286 538 l 158 538 z "},"⅜":{"ha":833,"x_min":28,"x_max":806,"o":"m 60 0 l 636 963 l 749 963 l 172 0 l 60 0 m 453 106 q 475 170 453 143 q 536 213 497 197 q 468 315 468 249 q 512 402 468 368 q 632 436 556 436 q 749 405 707 436 q 792 325 792 374 q 769 265 792 289 q 715 228 747 242 q 783 184 760 208 q 806 124 806 160 q 758 25 806 61 q 626 -11 710 -11 q 501 20 550 -11 q 453 106 453 51 m 606 183 q 569 122 569 156 q 585 83 569 99 q 632 68 600 68 q 674 83 658 68 q 689 119 689 97 q 674 151 689 139 q 622 178 660 164 l 606 183 m 578 315 q 597 280 578 296 q 649 253 617 264 q 670 281 663 265 q 678 313 678 297 q 664 347 678 336 q 628 357 650 357 q 592 346 606 357 q 578 315 578 335 m 225 779 q 309 747 274 778 q 344 664 344 715 q 295 562 344 597 q 158 526 246 526 q 90 533 126 526 q 28 553 54 539 l 28 644 q 90 630 54 635 q 149 625 125 625 q 208 638 189 625 q 226 674 226 651 q 211 706 226 693 q 153 718 196 718 q 117 717 138 718 q 89 714 96 715 l 89 767 l 201 865 l 33 865 l 33 963 l 324 963 l 324 869 l 225 779 z "},"⅝":{"ha":833,"x_min":28,"x_max":806,"o":"m 60 0 l 636 963 l 749 963 l 172 0 l 60 0 m 453 106 q 475 170 453 143 q 536 213 497 197 q 468 315 468 249 q 512 402 468 368 q 632 436 556 436 q 749 405 707 436 q 792 325 792 374 q 769 265 792 289 q 715 228 747 242 q 783 184 760 208 q 806 124 806 160 q 758 25 806 61 q 626 -11 710 -11 q 501 20 550 -11 q 453 106 453 51 m 606 183 q 569 122 569 156 q 585 83 569 99 q 632 68 600 68 q 674 83 658 68 q 689 119 689 97 q 674 151 689 139 q 622 178 660 164 l 606 183 m 578 315 q 597 280 578 296 q 649 253 617 264 q 670 281 663 265 q 678 313 678 297 q 664 347 678 336 q 628 357 650 357 q 592 346 606 357 q 578 315 578 335 m 143 865 l 138 792 q 164 796 150 794 q 192 797 178 797 q 296 765 256 797 q 336 672 336 732 q 290 566 336 606 q 171 526 244 526 q 28 553 88 526 l 28 640 q 88 628 58 632 q 146 625 117 625 q 201 638 185 625 q 218 675 218 651 q 202 708 218 696 q 147 719 186 719 q 96 718 125 719 q 39 713 67 717 l 39 769 l 53 963 l 315 963 l 315 865 l 143 865 z "},"⅞":{"ha":833,"x_min":28,"x_max":806,"o":"m 38 0 l 614 963 l 726 963 l 150 0 l 38 0 m 453 106 q 475 170 453 143 q 536 213 497 197 q 468 315 468 249 q 512 402 468 368 q 632 436 556 436 q 749 405 707 436 q 792 325 792 374 q 769 265 792 289 q 715 228 747 242 q 783 184 760 208 q 806 124 806 160 q 758 25 806 61 q 626 -11 710 -11 q 501 20 550 -11 q 453 106 453 51 m 606 183 q 569 122 569 156 q 585 83 569 99 q 632 68 600 68 q 674 83 658 68 q 689 119 689 97 q 674 151 689 139 q 622 178 660 164 l 606 183 m 578 315 q 597 280 578 296 q 649 253 617 264 q 670 281 663 265 q 678 313 678 297 q 664 347 678 336 q 628 357 650 357 q 592 346 606 357 q 578 315 578 335 m 69 538 l 240 858 l 28 858 l 28 963 l 369 963 l 369 860 l 207 538 l 69 538 z "},"$":{"ha":833,"x_min":85,"x_max":749,"o":"m 363 -181 l 363 -11 q 209 19 272 -4 q 97 74 146 42 l 97 229 q 235 169 174 193 q 363 139 296 146 l 363 408 l 307 429 q 140 533 194 471 q 85 692 85 594 q 102 792 85 744 q 154 875 119 839 q 241 935 189 911 q 363 967 293 960 l 363 1135 l 465 1135 l 465 967 q 579 940 528 960 q 675 897 631 921 l 675 742 q 576 786 629 765 q 465 815 522 807 l 465 547 l 514 529 q 692 424 635 485 q 749 271 749 364 q 730 169 749 218 q 675 83 711 121 q 586 21 639 46 q 465 -10 533 -4 l 465 -181 l 363 -181 m 572 263 q 547 331 572 304 q 465 379 522 358 l 465 140 q 547 187 522 151 q 572 263 572 222 m 258 694 q 288 623 258 651 q 363 576 317 594 l 363 815 q 283 772 307 804 q 258 694 258 740 z "},"¢":{"ha":833,"x_min":132,"x_max":711,"o":"m 454 -181 l 454 26 q 213 126 294 35 q 132 389 132 218 q 217 647 132 551 q 454 754 301 743 l 454 963 l 557 963 l 557 751 q 635 736 597 746 q 707 711 674 726 l 707 576 q 630 592 668 586 q 557 599 592 597 l 557 182 q 631 191 590 185 q 711 207 671 197 l 711 72 q 642 46 681 57 q 557 29 603 35 l 557 -181 l 454 -181 m 324 382 q 355 251 324 299 q 454 189 386 204 l 454 592 q 355 530 386 576 q 324 401 324 483 l 324 382 z "},"£":{"ha":833,"x_min":83,"x_max":765,"o":"m 765 161 l 765 0 l 117 0 l 117 144 q 201 247 179 189 q 224 371 224 306 q 224 384 224 378 q 222 397 224 390 l 83 397 l 83 547 l 201 547 q 184 631 192 592 q 176 704 176 671 q 199 818 176 767 q 265 906 222 869 q 369 963 308 943 q 503 982 429 982 q 642 963 578 982 q 754 911 706 944 l 754 758 q 706 778 733 768 q 647 797 678 789 q 585 810 617 806 q 524 815 553 815 q 467 809 493 815 q 420 787 440 803 q 388 744 400 771 q 376 676 376 717 q 381 613 376 644 q 392 547 385 581 l 660 547 l 660 397 l 415 397 q 417 385 417 390 q 417 372 417 379 q 397 263 417 315 q 322 161 378 210 l 765 161 z "},"¥":{"ha":833,"x_min":21,"x_max":813,"o":"m 315 0 l 315 197 l 90 197 l 90 317 l 315 317 l 315 353 l 282 421 l 90 421 l 90 540 l 225 540 l 21 963 l 247 963 l 415 510 l 594 963 l 813 963 l 606 540 l 738 540 l 738 421 l 547 421 l 513 349 l 513 317 l 738 317 l 738 197 l 513 197 l 513 0 l 315 0 z "},"€":{"ha":833,"x_min":43,"x_max":804,"o":"m 340 529 l 340 425 l 665 425 l 632 306 l 357 306 q 439 186 381 224 q 590 149 497 149 q 694 156 639 149 q 804 178 750 163 l 804 25 q 690 -8 751 3 q 567 -18 628 -18 q 295 63 399 -18 q 157 306 192 144 l 43 306 l 43 425 l 142 425 q 140 449 140 436 q 140 474 140 461 q 140 501 140 488 q 142 529 140 515 l 43 529 l 43 649 l 158 649 q 302 892 196 807 q 578 976 408 976 q 692 967 633 976 q 799 938 750 957 l 799 785 q 699 804 750 799 q 603 810 647 810 q 357 649 408 810 l 724 649 l 690 529 l 340 529 z "},"₺":{"ha":833,"x_min":33,"x_max":792,"o":"m 356 383 l 356 164 l 372 164 q 553 222 499 164 q 608 397 608 281 l 608 410 l 792 410 l 792 385 q 762 225 792 296 q 675 104 732 154 q 535 27 618 54 q 349 0 453 0 l 158 0 l 158 290 l 33 232 l 33 360 l 158 418 l 158 535 l 33 476 l 33 604 l 158 663 l 158 963 l 356 963 l 356 756 l 576 860 l 576 732 l 356 628 l 356 511 l 576 615 l 576 488 l 356 383 z "},"₹":{"ha":833,"x_min":121,"x_max":815,"o":"m 450 0 l 121 364 l 121 486 l 268 486 q 413 512 364 486 q 476 597 463 538 l 122 597 l 122 719 l 474 719 q 275 829 440 829 l 121 829 l 121 963 l 815 963 l 789 829 l 581 829 q 653 719 636 789 l 767 719 l 742 597 l 654 597 q 563 433 638 493 q 361 364 488 374 l 343 363 l 694 0 l 450 0 z "},"¤":{"ha":833,"x_min":39,"x_max":794,"o":"m 417 158 q 268 189 338 158 l 158 72 l 39 178 l 146 288 q 105 372 119 325 q 90 472 90 418 q 105 572 90 525 q 146 657 119 619 l 39 767 l 158 872 l 268 756 q 417 786 338 786 q 564 756 496 786 l 675 872 l 794 767 l 686 657 q 728 572 714 619 q 743 472 743 525 q 728 372 743 418 q 686 288 714 325 l 794 178 l 675 72 l 564 189 q 417 158 496 158 m 417 294 q 530 340 492 294 q 568 472 568 386 q 530 604 568 558 q 417 650 492 650 q 303 604 342 650 q 265 472 265 558 q 303 340 265 386 q 417 294 342 294 z "},"^":{"ha":833,"x_min":57,"x_max":776,"o":"m 581 394 l 417 788 l 249 394 l 57 394 l 335 963 l 499 963 l 776 394 l 581 394 z "},"+":{"ha":833,"x_min":93,"x_max":740,"o":"m 331 151 l 331 404 l 93 404 l 93 560 l 331 560 l 331 813 l 503 813 l 503 560 l 740 560 l 740 404 l 503 404 l 503 151 l 331 151 z "},"−":{"ha":833,"x_min":93,"x_max":740,"o":"m 93 404 l 93 560 l 740 560 l 740 404 l 93 404 z "},"±":{"ha":833,"x_min":93,"x_max":740,"o":"m 331 247 l 331 500 l 93 500 l 93 656 l 331 656 l 331 908 l 503 908 l 503 656 l 740 656 l 740 500 l 503 500 l 503 247 l 331 247 m 93 0 l 93 156 l 740 156 l 740 0 l 93 0 z "},"=":{"ha":833,"x_min":93,"x_max":740,"o":"m 93 560 l 93 715 l 740 715 l 740 560 l 93 560 m 93 253 l 93 408 l 740 408 l 740 253 l 93 253 z "},"≠":{"ha":833,"x_min":93,"x_max":740,"o":"m 135 124 l 208 253 l 93 253 l 93 408 l 297 408 l 385 560 l 93 560 l 93 715 l 474 715 l 542 833 l 686 833 l 618 715 l 740 715 l 740 560 l 529 560 l 442 408 l 740 408 l 740 253 l 353 253 l 279 124 l 135 124 z "},"÷":{"ha":833,"x_min":93,"x_max":740,"o":"m 417 119 q 340 149 369 119 q 311 224 311 178 q 340 300 311 271 q 417 329 369 329 q 493 300 464 329 q 522 224 522 271 q 493 149 522 178 q 417 119 464 119 m 93 404 l 93 560 l 740 560 l 740 404 l 93 404 m 417 635 q 340 664 369 635 q 311 739 311 693 q 340 815 311 786 q 417 844 369 844 q 493 815 464 844 q 522 739 522 786 q 493 664 522 693 q 417 635 464 635 z "},"<":{"ha":833,"x_min":104,"x_max":729,"o":"m 104 403 l 104 561 l 729 822 l 729 644 l 293 483 l 729 324 l 729 142 l 104 403 z "},">":{"ha":833,"x_min":104,"x_max":729,"o":"m 729 561 l 729 403 l 104 142 l 104 319 l 540 481 l 104 640 l 104 822 l 729 561 z "},"≤":{"ha":833,"x_min":93,"x_max":740,"o":"m 93 0 l 93 156 l 740 156 l 740 0 l 93 0 m 104 499 l 104 657 l 729 918 l 729 740 l 293 579 l 729 419 l 729 238 l 104 499 z "},"≥":{"ha":833,"x_min":93,"x_max":740,"o":"m 93 0 l 93 156 l 740 156 l 740 0 l 93 0 m 729 657 l 729 499 l 104 238 l 104 415 l 540 576 l 104 736 l 104 918 l 729 657 z "},"~":{"ha":833,"x_min":69,"x_max":764,"o":"m 79 351 q 72 401 74 379 q 69 435 69 422 q 119 572 69 522 q 256 621 168 621 q 348 602 301 621 q 443 547 394 583 q 506 507 482 519 q 554 494 529 494 q 611 551 607 494 l 615 613 l 754 613 q 762 563 760 585 q 764 529 764 542 q 715 392 764 442 q 578 343 665 343 q 485 362 532 343 q 390 417 439 381 q 328 457 351 444 q 279 469 304 469 q 222 413 226 469 l 218 351 l 79 351 z "},"≈":{"ha":833,"x_min":69,"x_max":764,"o":"m 79 188 q 72 237 74 215 q 69 271 69 258 q 119 408 69 358 q 256 457 168 457 q 348 438 301 457 q 443 383 394 419 q 506 343 482 356 q 554 331 529 331 q 611 388 607 331 l 615 449 l 754 449 q 762 399 760 421 q 764 365 764 378 q 715 228 764 278 q 578 179 665 179 q 485 198 532 179 q 390 253 439 217 q 328 293 351 281 q 279 306 304 306 q 222 249 226 306 l 218 188 l 79 188 m 79 522 q 72 572 74 550 q 69 606 69 593 q 119 742 69 693 q 256 792 168 792 q 348 773 301 792 q 443 718 394 754 q 506 678 482 690 q 554 665 529 665 q 611 722 607 665 l 615 783 l 754 783 q 762 734 760 756 q 764 700 764 713 q 715 563 764 613 q 578 514 665 514 q 485 533 532 514 q 390 588 439 551 q 328 628 351 615 q 279 640 304 640 q 222 583 226 640 l 218 522 l 79 522 z "},"×":{"ha":833,"x_min":118,"x_max":715,"o":"m 222 167 l 118 271 l 311 472 l 121 672 l 228 779 l 417 582 l 606 779 l 713 672 l 522 472 l 715 271 l 611 167 l 417 372 l 222 167 z "},"_":{"ha":833,"x_min":0,"x_max":833,"o":"m 0 -233 l 0 -75 l 833 -75 l 833 -233 l 0 -233 z "},"§":{"ha":833,"x_min":108,"x_max":725,"o":"m 314 196 q 218 232 257 210 q 156 281 179 254 q 124 341 133 308 q 114 410 114 374 q 149 513 114 471 q 242 572 185 554 q 177 613 201 590 q 138 660 153 635 q 119 713 124 685 q 114 771 114 742 q 194 929 114 872 q 422 986 275 986 q 569 967 503 986 q 685 925 636 949 l 685 788 q 557 819 622 807 q 429 831 492 831 q 327 817 357 831 q 297 772 297 804 q 301 750 297 761 q 316 729 304 739 q 349 710 328 719 q 406 692 369 700 l 515 664 q 674 583 625 636 q 724 450 724 531 q 691 347 724 388 q 600 283 658 307 q 700 200 675 249 q 725 90 725 151 q 644 -76 725 -19 q 400 -133 564 -133 q 316 -127 358 -133 q 235 -110 274 -121 q 163 -87 196 -100 q 108 -61 131 -74 l 108 75 q 243 38 168 54 q 401 22 318 22 q 507 37 474 22 q 540 88 540 51 q 517 135 540 119 q 450 161 493 150 l 314 196 m 376 531 q 317 493 338 518 q 297 438 297 468 q 300 404 297 418 q 313 380 303 390 q 341 361 322 369 q 390 344 360 353 l 472 324 q 521 362 501 338 q 540 424 540 386 q 519 481 540 461 q 444 514 497 500 l 376 531 z "},"°":{"ha":833,"x_min":172,"x_max":661,"o":"m 417 846 q 349 818 375 846 q 322 733 322 790 q 349 650 322 676 q 417 624 375 624 q 485 650 458 624 q 511 733 511 676 q 485 818 511 790 q 417 846 458 846 m 417 494 q 321 510 365 494 q 243 555 276 525 q 191 629 210 585 q 172 733 172 674 q 191 838 172 793 q 243 913 210 883 q 321 958 276 943 q 417 974 365 974 q 513 958 468 974 q 590 913 557 943 q 642 838 624 883 q 661 733 661 793 q 642 629 661 674 q 590 555 624 585 q 513 510 557 525 q 417 494 468 494 z "},"µ":{"ha":833,"x_min":74,"x_max":822,"o":"m 74 710 l 276 710 l 276 247 q 302 163 276 190 q 385 135 328 135 q 515 186 456 135 l 515 710 l 718 710 l 718 210 q 735 162 718 174 q 776 150 753 150 q 800 151 788 150 q 822 156 813 153 l 822 14 q 700 -10 767 -10 q 605 11 642 -10 q 544 79 568 32 q 458 9 507 39 q 351 -21 410 -21 q 263 -1 301 -21 l 263 -286 l 74 -286 l 74 710 z "},"¶":{"ha":833,"x_min":64,"x_max":769,"o":"m 615 -144 l 615 818 l 499 818 l 499 -286 l 344 -286 l 344 317 q 137 417 210 339 q 64 622 64 496 q 168 874 64 786 q 460 963 272 963 l 769 963 l 769 -144 l 615 -144 z "},"#":{"ha":833,"x_min":46,"x_max":788,"o":"m 117 0 l 154 238 l 46 238 l 46 371 l 175 371 l 210 596 l 88 596 l 88 729 l 231 729 l 268 963 l 413 963 l 375 729 l 535 729 l 572 963 l 717 963 l 679 729 l 788 729 l 788 596 l 658 596 l 624 371 l 746 371 l 746 238 l 603 238 l 565 0 l 421 0 l 458 238 l 299 238 l 261 0 l 117 0 m 319 371 l 479 371 l 514 596 l 354 596 l 319 371 z "},"|":{"ha":833,"x_min":310,"x_max":524,"o":"m 310 -286 l 310 1047 l 524 1047 l 524 -286 l 310 -286 z "},"¦":{"ha":833,"x_min":310,"x_max":524,"o":"m 310 -286 l 310 210 l 524 210 l 524 -286 l 310 -286 m 310 551 l 310 1047 l 524 1047 l 524 551 l 310 551 z "},"†":{"ha":833,"x_min":76,"x_max":757,"o":"m 504 585 l 521 -175 l 313 -175 l 329 585 l 76 575 l 76 728 l 329 718 l 313 1028 l 521 1028 l 504 718 l 757 728 l 757 575 l 504 585 z "},"‡":{"ha":833,"x_min":76,"x_max":757,"o":"m 313 -175 l 329 135 l 76 125 l 76 278 l 329 268 l 315 426 l 329 585 l 76 575 l 76 728 l 329 718 l 313 1028 l 521 1028 l 504 718 l 757 728 l 757 575 l 504 585 l 518 426 l 504 268 l 757 278 l 757 125 l 504 135 l 521 -175 l 313 -175 z "},"¬":{"ha":833,"x_min":93,"x_max":740,"o":"m 568 282 l 568 525 l 93 525 l 93 681 l 740 681 l 740 282 l 568 282 z "},"⁒":{"ha":833,"x_min":39,"x_max":794,"o":"m 164 806 q 74 840 108 806 q 39 931 39 875 q 73 1022 39 988 q 164 1056 107 1056 q 254 1021 219 1056 q 289 931 289 986 q 255 840 289 874 q 164 806 221 806 m 78 -200 l 551 1047 l 756 1047 l 282 -200 l 78 -200 m 669 -208 q 579 -174 614 -208 q 544 -83 544 -139 q 578 8 544 -26 q 669 42 613 42 q 760 7 725 42 q 794 -83 794 -28 q 760 -174 794 -140 q 669 -208 726 -208 z "},"&":{"ha":833,"x_min":42,"x_max":813,"o":"m 42 250 q 200 517 42 424 q 128 645 149 590 q 107 760 107 700 q 171 924 107 864 q 353 983 235 983 q 531 928 465 983 q 596 776 596 874 q 551 632 596 699 q 428 517 507 565 l 410 506 l 554 306 q 582 497 582 386 l 582 535 l 742 535 l 742 483 q 719 310 742 390 q 656 167 696 231 q 694 143 674 149 q 743 138 715 138 q 783 140 763 138 q 813 144 803 142 l 813 14 q 762 -3 790 4 q 697 -11 733 -11 q 619 1 660 -11 q 544 49 579 14 q 441 -3 497 15 q 322 -21 385 -21 q 118 51 194 -21 q 42 250 42 122 m 340 129 q 451 161 403 129 l 272 417 q 235 350 249 389 q 221 263 221 311 q 250 161 221 193 q 340 129 279 129 m 278 757 q 292 683 278 717 q 342 599 306 650 l 354 607 q 428 757 428 661 q 354 849 428 849 q 297 824 315 849 q 278 757 278 800 z "},"*":{"ha":833,"x_min":147,"x_max":686,"o":"m 417 594 l 322 414 q 240 448 276 419 q 181 518 204 476 l 322 656 l 151 686 q 148 701 149 692 q 147 718 147 710 q 206 849 147 793 l 358 763 l 329 949 q 417 969 368 969 q 504 949 464 969 l 475 763 l 628 847 q 686 717 686 792 q 685 699 686 708 q 682 685 685 690 l 510 656 l 653 518 q 593 448 629 476 q 511 414 557 419 l 417 594 z "},"-":{"ha":833,"x_min":181,"x_max":653,"o":"m 181 450 l 653 450 l 653 264 l 181 264 l 181 450 z "},"–":{"ha":833,"x_min":111,"x_max":722,"o":"m 111 268 l 111 446 l 722 446 l 722 268 l 111 268 z "},"—":{"ha":833,"x_min":0,"x_max":833,"o":"m 0 268 l 0 446 l 833 446 l 833 268 l 0 268 z "},"(":{"ha":833,"x_min":160,"x_max":658,"o":"m 444 -200 q 233 87 306 -68 q 160 424 160 242 q 233 760 160 606 q 444 1047 306 914 l 658 1047 q 449 758 525 918 q 374 424 374 597 q 449 90 374 250 q 658 -200 525 -71 l 444 -200 z "},")":{"ha":833,"x_min":175,"x_max":674,"o":"m 175 -200 q 384 90 308 -71 q 460 424 460 250 q 384 758 460 597 q 175 1047 308 918 l 389 1047 q 601 760 528 914 q 674 424 674 606 q 601 87 674 242 q 389 -200 528 -68 l 175 -200 z "},"/":{"ha":833,"x_min":4,"x_max":829,"o":"m 4 -200 l 621 1047 l 829 1047 l 213 -200 l 4 -200 z "},"\\":{"ha":833,"x_min":4,"x_max":829,"o":"m 621 -200 l 4 1047 l 213 1047 l 829 -200 l 621 -200 z "},"[":{"ha":833,"x_min":240,"x_max":704,"o":"m 240 -200 l 240 1047 l 704 1047 l 704 894 l 449 894 l 449 -47 l 704 -47 l 704 -200 l 240 -200 z "},"]":{"ha":833,"x_min":129,"x_max":593,"o":"m 593 1047 l 593 -200 l 129 -200 l 129 -47 l 385 -47 l 385 894 l 129 894 l 129 1047 l 593 1047 z "},"{":{"ha":833,"x_min":133,"x_max":732,"o":"m 289 769 q 359 992 289 926 q 556 1058 429 1058 q 653 1052 607 1058 q 732 1031 700 1046 l 732 893 q 672 903 704 900 q 610 906 640 906 q 523 878 549 906 q 497 781 497 851 l 497 625 q 465 494 497 542 q 358 424 433 447 q 465 353 433 400 q 497 222 497 306 l 497 67 q 523 -31 497 -4 q 610 -58 549 -58 q 672 -56 640 -58 q 732 -46 704 -53 l 732 -183 q 653 -205 700 -199 q 556 -211 607 -211 q 359 -145 429 -211 q 289 78 289 -79 l 289 226 q 264 319 289 292 q 179 347 239 347 l 133 347 l 133 500 l 179 500 q 264 528 239 500 q 289 621 289 556 l 289 769 z "},"}":{"ha":833,"x_min":101,"x_max":700,"o":"m 544 78 q 474 -145 544 -79 q 278 -211 404 -211 q 180 -205 226 -211 q 101 -183 133 -199 l 101 -46 q 161 -56 129 -53 q 224 -58 193 -58 q 310 -31 285 -58 q 336 67 336 -4 l 336 222 q 368 353 336 306 q 475 424 400 400 q 368 494 400 447 q 336 625 336 542 l 336 781 q 310 878 336 851 q 224 906 285 906 q 161 903 193 906 q 101 893 129 900 l 101 1031 q 180 1052 133 1046 q 278 1058 226 1058 q 474 992 404 1058 q 544 769 544 926 l 544 621 q 569 528 544 556 q 654 500 594 500 l 700 500 l 700 347 l 654 347 q 569 319 594 347 q 544 226 544 292 l 544 78 z "},"•":{"ha":833,"x_min":190,"x_max":643,"o":"m 417 132 q 328 149 369 132 q 256 197 286 167 q 208 269 225 228 q 190 358 190 310 q 208 447 190 406 q 256 519 225 489 q 328 567 286 550 q 417 585 369 585 q 506 567 464 585 q 578 519 547 550 q 626 447 608 489 q 643 358 643 406 q 626 269 643 310 q 578 197 608 228 q 506 149 547 167 q 417 132 464 132 z "},"‹":{"ha":833,"x_min":186,"x_max":647,"o":"m 425 71 l 186 360 l 425 649 l 647 649 l 421 360 l 647 71 l 425 71 z "},"›":{"ha":833,"x_min":186,"x_max":647,"o":"m 408 649 l 647 360 l 408 71 l 186 71 l 413 360 l 186 649 l 408 649 z "},"«":{"ha":833,"x_min":53,"x_max":775,"o":"m 242 71 l 53 360 l 242 649 l 436 649 l 267 360 l 436 71 l 242 71 m 581 71 l 392 360 l 581 649 l 775 649 l 606 360 l 775 71 l 581 71 z "},"»":{"ha":833,"x_min":58,"x_max":781,"o":"m 592 649 l 781 360 l 592 71 l 397 71 l 567 360 l 397 649 l 592 649 m 253 649 l 442 360 l 253 71 l 58 71 l 228 360 l 58 649 l 253 649 z "},"@":{"ha":833,"x_min":47,"x_max":785,"o":"m 475 129 q 342 174 394 129 q 290 321 290 219 q 308 412 290 374 q 355 475 325 450 q 427 512 385 500 q 519 524 469 524 q 566 521 543 524 q 614 514 589 518 q 567 633 611 594 q 447 671 524 671 q 353 655 394 671 q 285 599 313 639 q 242 489 257 558 q 226 313 226 419 q 244 149 226 215 q 299 42 263 83 q 391 -16 335 1 q 525 -33 447 -33 q 626 -24 575 -33 q 710 0 678 -14 l 710 -142 q 619 -172 678 -157 q 486 -186 561 -186 q 318 -161 397 -186 q 178 -78 239 -136 q 83 76 118 -19 q 47 310 47 171 q 71 526 47 431 q 144 687 94 621 q 272 788 194 753 q 457 824 350 824 q 592 806 532 824 q 696 751 653 789 q 762 656 739 714 q 785 515 785 597 l 785 144 l 628 144 l 622 181 q 551 142 589 154 q 475 129 514 129 m 553 411 q 485 390 507 411 q 464 328 464 368 q 485 269 464 285 q 536 253 507 253 q 614 276 575 253 l 614 404 q 553 411 582 411 z "},"·":{"ha":833,"x_min":276,"x_max":557,"o":"m 417 233 q 315 272 353 233 q 276 374 276 311 q 315 475 276 436 q 417 514 353 514 q 519 475 481 514 q 557 374 557 436 q 519 272 557 311 q 417 233 481 233 z "},"‐":{"ha":833,"x_min":181,"x_max":653,"o":"m 181 450 l 653 450 l 653 264 l 181 264 l 181 450 z "},"‒":{"ha":833,"x_min":111,"x_max":722,"o":"m 111 397 l 111 575 l 722 575 l 722 397 l 111 397 z "},"―":{"ha":833,"x_min":0,"x_max":833,"o":"m 0 268 l 0 446 l 833 446 l 833 268 l 0 268 z "},"­":{"ha":833,"x_min":181,"x_max":653,"o":"m 181 450 l 653 450 l 653 264 l 181 264 l 181 450 z "},"⟨":{"ha":833,"x_min":167,"x_max":667,"o":"m 463 -200 l 167 424 l 463 1047 l 667 1047 l 372 424 l 667 -200 l 463 -200 z "},"⟩":{"ha":833,"x_min":167,"x_max":667,"o":"m 371 1047 l 667 424 l 371 -200 l 167 -200 l 461 424 l 167 1047 l 371 1047 z "},"A":{"ha":833,"x_min":29,"x_max":804,"o":"m 301 963 l 532 963 l 804 0 l 588 0 l 536 225 l 286 225 l 235 0 l 29 0 l 301 963 m 319 372 l 503 372 l 411 774 l 319 372 z "},"B":{"ha":833,"x_min":106,"x_max":763,"o":"m 721 707 q 690 589 721 644 q 585 506 660 533 q 719 415 676 476 q 763 272 763 353 q 738 159 763 210 q 669 73 714 108 q 562 19 625 38 q 419 0 499 0 l 106 0 l 106 963 l 411 963 q 538 944 481 963 q 635 892 594 925 q 699 811 676 858 q 721 707 721 764 m 303 419 l 303 149 l 415 149 q 557 282 557 149 q 406 419 557 419 l 303 419 m 383 561 q 518 686 518 561 q 394 814 518 814 l 303 814 l 303 561 l 383 561 z "},"C":{"ha":833,"x_min":68,"x_max":751,"o":"m 276 464 q 340 225 276 304 q 543 146 404 146 q 649 157 592 146 q 751 185 706 168 l 751 31 q 639 -6 699 6 q 515 -18 579 -18 q 180 106 292 -18 q 68 476 68 231 q 185 850 68 719 q 519 981 301 981 q 739 936 638 981 l 739 782 q 648 807 700 797 q 547 817 596 817 q 342 738 407 817 q 276 496 276 658 l 276 464 l 276 464 z "},"D":{"ha":833,"x_min":96,"x_max":751,"o":"m 354 963 q 649 846 547 963 q 751 482 751 729 q 654 121 751 242 q 351 0 557 0 l 96 0 l 96 963 l 354 963 m 299 808 l 299 154 l 342 154 q 499 230 454 154 q 543 468 543 306 l 543 496 q 533 637 543 578 q 499 734 522 696 q 436 790 475 772 q 339 808 397 808 l 299 808 z "},"E":{"ha":833,"x_min":124,"x_max":733,"o":"m 124 963 l 733 963 l 733 807 l 321 807 l 321 571 l 654 571 l 654 415 l 321 415 l 321 156 l 733 156 l 733 0 l 124 0 l 124 963 z "},"F":{"ha":833,"x_min":144,"x_max":771,"o":"m 144 0 l 144 963 l 771 963 l 771 801 l 353 801 l 353 560 l 690 560 l 690 399 l 353 399 l 353 0 l 144 0 z "},"G":{"ha":833,"x_min":61,"x_max":761,"o":"m 506 143 q 538 144 521 143 q 575 149 556 146 l 575 388 l 426 388 l 426 543 l 761 543 l 761 54 q 623 1 703 19 q 463 -18 543 -18 q 165 107 269 -18 q 61 471 61 232 q 170 851 61 721 q 486 981 279 981 q 618 966 557 981 q 728 924 679 951 l 728 765 q 612 801 671 789 q 507 813 553 813 q 325 734 381 813 q 269 489 269 656 l 269 464 q 324 217 269 292 q 506 143 379 143 z "},"H":{"ha":833,"x_min":88,"x_max":746,"o":"m 88 963 l 290 963 l 290 568 l 543 568 l 543 963 l 746 963 l 746 0 l 543 0 l 543 413 l 290 413 l 290 0 l 88 0 l 88 963 z "},"I":{"ha":833,"x_min":125,"x_max":708,"o":"m 518 807 l 518 156 l 708 156 l 708 0 l 125 0 l 125 156 l 315 156 l 315 807 l 125 807 l 125 963 l 708 963 l 708 807 l 518 807 z "},"J":{"ha":833,"x_min":76,"x_max":671,"o":"m 317 140 q 382 149 354 140 q 429 176 410 157 q 458 228 449 196 q 468 310 468 261 l 468 807 l 168 807 l 168 963 l 671 963 l 671 303 q 649 152 671 214 q 584 51 628 90 q 476 -6 540 13 q 324 -24 411 -24 q 243 -18 282 -24 q 172 -4 204 -12 q 115 13 139 4 q 76 31 90 22 l 76 185 q 183 155 117 169 q 317 140 250 140 z "},"K":{"ha":833,"x_min":103,"x_max":813,"o":"m 103 0 l 103 963 l 306 963 l 306 535 l 565 963 l 788 963 l 486 513 l 813 0 l 575 0 l 306 465 l 306 0 l 103 0 z "},"L":{"ha":833,"x_min":118,"x_max":749,"o":"m 118 0 l 118 963 l 321 963 l 321 167 l 749 167 l 749 0 l 118 0 z "},"M":{"ha":833,"x_min":76,"x_max":757,"o":"m 589 0 l 589 703 l 482 363 l 351 363 l 243 706 l 243 0 l 76 0 l 76 963 l 293 963 l 418 536 l 544 963 l 757 963 l 757 0 l 589 0 z "},"N":{"ha":833,"x_min":82,"x_max":750,"o":"m 263 689 l 263 0 l 82 0 l 82 963 l 299 963 l 569 278 l 569 963 l 750 963 l 750 0 l 536 0 l 263 689 z "},"O":{"ha":833,"x_min":56,"x_max":778,"o":"m 56 482 q 151 858 56 731 q 418 986 246 986 q 682 858 586 986 q 778 482 778 731 q 683 106 778 233 q 415 -22 588 -22 q 151 106 247 -22 q 56 482 56 233 m 264 482 q 301 224 264 306 q 417 142 339 142 q 532 224 494 142 q 569 482 569 306 q 532 740 569 658 q 417 822 494 822 q 301 740 339 822 q 264 482 264 658 z "},"P":{"ha":833,"x_min":124,"x_max":783,"o":"m 321 351 l 321 0 l 124 0 l 124 963 l 458 963 q 592 942 532 963 q 694 881 651 921 q 760 785 738 842 q 783 657 783 729 q 760 528 783 585 q 694 433 738 472 q 592 372 651 393 q 458 351 532 351 l 321 351 m 321 504 l 440 504 q 547 543 510 504 q 583 657 583 582 q 547 771 583 732 q 440 810 510 810 l 321 810 l 321 504 z "},"Q":{"ha":833,"x_min":56,"x_max":778,"o":"m 56 482 q 151 858 56 731 q 418 986 246 986 q 682 858 586 986 q 778 482 778 731 q 718 166 778 286 q 547 1 658 46 q 640 -49 590 -32 q 757 -74 689 -65 l 757 -243 q 645 -215 699 -236 q 544 -165 592 -194 q 455 -99 496 -136 q 383 -21 414 -61 q 142 118 229 -8 q 56 482 56 244 m 264 482 q 301 224 264 306 q 417 142 339 142 q 532 224 494 142 q 569 482 569 306 q 532 740 569 658 q 417 822 494 822 q 301 740 339 822 q 264 482 264 658 z "},"R":{"ha":833,"x_min":107,"x_max":789,"o":"m 304 360 l 304 0 l 107 0 l 107 963 l 414 963 q 547 941 488 963 q 650 880 607 919 q 716 785 693 840 q 739 660 739 729 q 697 512 739 576 q 583 407 654 447 l 789 0 l 574 0 l 406 360 l 304 360 m 304 504 l 388 504 q 495 542 457 504 q 533 657 533 581 q 497 772 533 732 q 390 813 460 813 l 304 813 l 304 504 z "},"S":{"ha":833,"x_min":92,"x_max":742,"o":"m 517 554 q 622 502 579 529 q 691 442 664 475 q 730 366 718 408 q 742 269 742 324 q 716 149 742 203 q 642 56 690 94 q 527 -3 594 18 q 376 -24 460 -24 q 227 -8 301 -24 q 100 31 153 7 l 100 186 q 233 152 165 164 q 375 140 300 140 q 495 171 454 140 q 536 260 536 201 q 510 335 536 304 q 408 396 485 365 l 311 435 q 151 539 211 475 q 92 703 92 603 q 115 820 92 768 q 183 909 139 872 q 290 966 228 946 q 431 986 353 986 q 558 972 494 986 q 682 935 621 958 l 682 782 q 558 813 618 803 q 442 822 499 822 q 333 795 371 822 q 294 719 294 768 q 326 647 294 676 q 421 593 358 618 l 517 554 z "},"T":{"ha":833,"x_min":63,"x_max":771,"o":"m 315 0 l 315 797 l 63 797 l 63 963 l 771 963 l 771 797 l 518 797 l 518 0 l 315 0 z "},"U":{"ha":833,"x_min":75,"x_max":758,"o":"m 556 963 l 758 963 l 758 343 q 669 69 758 161 q 417 -24 581 -24 q 164 69 253 -24 q 75 344 75 161 l 75 963 l 278 963 l 278 339 q 417 140 278 140 q 556 339 556 140 l 556 963 z "},"V":{"ha":833,"x_min":29,"x_max":803,"o":"m 299 0 l 29 963 l 240 963 l 418 181 l 594 963 l 803 963 l 533 0 l 299 0 z "},"W":{"ha":833,"x_min":3,"x_max":831,"o":"m 501 0 l 417 572 l 333 0 l 142 0 l 3 963 l 199 963 l 267 208 l 347 744 l 492 744 l 574 207 l 643 963 l 831 963 l 693 0 l 501 0 z "},"X":{"ha":833,"x_min":22,"x_max":810,"o":"m 585 0 l 410 343 l 244 0 l 22 0 l 304 493 l 44 963 l 271 963 l 419 646 l 571 963 l 790 963 l 522 497 l 810 0 l 585 0 z "},"Y":{"ha":833,"x_min":24,"x_max":810,"o":"m 518 353 l 518 0 l 315 0 l 315 350 l 24 963 l 250 963 l 419 503 l 593 963 l 810 963 l 518 353 z "},"Z":{"ha":833,"x_min":67,"x_max":739,"o":"m 67 0 l 67 144 l 524 807 l 99 807 l 99 963 l 739 963 l 739 818 l 282 156 l 738 156 l 738 0 l 67 0 z "},"a":{"ha":833,"x_min":94,"x_max":713,"o":"m 321 -22 q 156 36 217 -22 q 94 192 94 94 q 114 285 94 243 q 170 356 133 326 q 258 402 207 386 q 371 418 308 418 q 444 414 408 418 q 525 400 481 410 l 525 469 q 497 557 525 533 q 394 581 469 581 q 276 569 342 581 q 143 538 210 558 l 143 671 q 272 715 194 699 q 431 731 350 731 q 645 674 578 731 q 713 492 713 617 l 713 0 l 553 0 l 536 63 q 433 0 492 22 q 321 -22 375 -22 m 378 114 q 452 128 414 114 q 525 171 490 143 l 525 292 q 467 299 497 296 q 408 301 436 301 q 288 204 288 301 q 311 138 288 161 q 378 114 335 114 z "},"b":{"ha":833,"x_min":96,"x_max":767,"o":"m 469 -21 q 364 -2 414 -21 q 276 49 314 17 l 264 0 l 96 0 l 96 1028 l 299 1028 l 299 668 q 379 715 335 700 q 471 731 424 731 q 588 706 533 731 q 681 633 642 681 q 744 517 721 586 q 767 361 767 449 q 745 206 767 276 q 684 85 724 136 q 590 7 644 35 q 469 -21 536 -21 m 410 578 q 299 547 349 578 l 299 158 q 352 140 324 147 q 410 132 381 132 q 525 187 489 132 q 561 353 561 242 q 523 519 561 461 q 410 578 485 578 z "},"c":{"ha":833,"x_min":96,"x_max":726,"o":"m 526 138 q 627 149 571 138 q 726 181 683 161 l 726 46 q 685 24 711 35 q 626 4 658 13 q 556 -10 593 -4 q 481 -15 518 -15 q 190 83 285 -15 q 96 350 96 181 q 124 516 96 446 q 201 633 151 586 q 323 702 251 679 q 482 725 394 725 q 556 719 519 725 q 624 706 592 714 q 681 686 656 697 q 722 665 707 675 l 722 532 q 629 560 683 547 q 519 572 575 572 q 355 524 408 572 q 301 364 301 475 l 301 344 q 356 185 301 232 q 526 138 410 138 z "},"d":{"ha":833,"x_min":67,"x_max":738,"o":"m 363 -21 q 246 4 300 -21 q 152 76 192 29 q 90 192 113 124 q 67 349 67 261 q 88 503 67 433 q 149 624 110 574 q 243 703 189 675 q 364 731 297 731 q 459 715 422 731 q 535 668 496 700 l 535 1028 l 738 1028 l 738 0 l 561 0 l 546 58 q 466 0 510 21 q 363 -21 422 -21 m 424 132 q 535 171 485 132 l 535 547 q 485 570 511 563 q 424 578 460 578 q 308 523 344 578 q 272 357 272 468 q 310 190 272 249 q 424 132 349 132 z "},"e":{"ha":833,"x_min":83,"x_max":742,"o":"m 465 -21 q 180 74 276 -21 q 83 356 83 169 q 175 632 83 533 q 440 731 267 731 q 662 656 582 731 q 742 439 742 581 q 738 368 742 407 q 728 306 733 329 l 271 306 q 333 173 282 214 q 496 132 383 132 q 619 142 558 132 q 726 167 679 153 l 726 32 q 617 -6 685 10 q 465 -21 549 -21 m 435 590 q 271 431 292 590 l 567 431 q 567 444 567 438 q 568 457 568 451 q 533 558 568 525 q 435 590 497 590 z "},"f":{"ha":833,"x_min":81,"x_max":776,"o":"m 81 685 l 250 706 l 250 747 q 324 974 250 901 q 554 1047 399 1047 q 687 1033 626 1047 q 776 1004 747 1018 l 776 867 q 688 884 742 876 q 589 892 635 892 q 483 863 514 892 q 453 753 453 833 l 453 710 l 729 710 l 729 560 l 453 560 l 453 0 l 250 0 l 250 560 l 81 560 l 81 685 z "},"g":{"ha":833,"x_min":67,"x_max":736,"o":"m 536 86 q 350 15 457 15 q 233 40 285 15 q 144 112 181 65 q 87 224 107 158 q 67 369 67 289 q 87 518 67 451 q 144 632 107 585 q 235 705 182 679 q 353 731 288 731 q 463 710 411 731 q 554 649 514 689 l 569 710 l 736 710 l 736 56 q 642 -208 736 -114 q 381 -303 549 -303 q 249 -289 310 -303 q 125 -243 189 -275 l 125 -107 q 251 -139 192 -128 q 363 -150 311 -150 q 495 -108 454 -150 q 536 31 536 -65 l 536 86 m 413 165 q 477 176 444 165 q 536 204 510 186 l 536 546 q 403 581 479 581 q 269 375 269 581 q 304 216 269 267 q 413 165 339 165 z "},"h":{"ha":833,"x_min":88,"x_max":746,"o":"m 88 1028 l 290 1028 l 290 646 q 540 731 410 731 q 693 678 640 731 q 746 525 746 625 l 746 0 l 543 0 l 543 465 q 442 575 543 575 q 290 528 365 575 l 290 0 l 88 0 l 88 1028 z "},"i":{"ha":833,"x_min":90,"x_max":753,"o":"m 90 150 l 326 150 l 326 560 l 138 560 l 138 710 l 529 710 l 529 150 l 753 150 l 753 0 l 90 0 l 90 150 m 406 794 q 314 826 347 794 q 281 913 281 858 q 314 998 281 967 q 406 1029 347 1029 q 498 998 464 1029 q 532 913 532 967 q 498 826 532 858 q 406 794 464 794 z "},"j":{"ha":833,"x_min":74,"x_max":604,"o":"m 261 -147 q 365 -118 332 -147 q 399 -14 399 -89 l 399 560 l 149 560 l 149 710 l 601 710 l 601 -10 q 529 -232 601 -161 q 310 -303 457 -303 q 176 -290 233 -303 q 74 -256 118 -278 l 74 -118 q 161 -139 114 -131 q 261 -147 208 -147 m 478 794 q 386 826 419 794 q 353 913 353 858 q 386 998 353 967 q 478 1029 419 1029 q 570 998 536 1029 q 604 913 604 967 q 570 826 604 858 q 478 794 536 794 z "},"k":{"ha":833,"x_min":104,"x_max":829,"o":"m 104 1028 l 306 1028 l 306 407 l 563 710 l 807 710 l 501 371 l 829 0 l 579 0 l 306 322 l 306 0 l 104 0 l 104 1028 z "},"l":{"ha":833,"x_min":79,"x_max":742,"o":"m 79 150 l 315 150 l 315 878 l 126 878 l 126 1028 l 518 1028 l 518 150 l 742 150 l 742 0 l 79 0 l 79 150 z "},"m":{"ha":833,"x_min":53,"x_max":789,"o":"m 286 599 q 225 578 253 599 l 225 0 l 53 0 l 53 710 l 193 710 l 206 660 q 269 711 233 692 q 353 731 306 731 q 482 656 442 731 q 548 710 510 690 q 631 731 586 731 q 691 721 663 731 q 742 689 719 711 q 776 631 764 667 q 789 543 789 594 l 789 0 l 617 0 l 617 540 q 605 585 617 572 q 567 599 593 599 q 504 579 535 599 q 506 556 506 568 q 507 531 507 543 l 507 0 l 335 0 l 335 539 q 286 599 335 599 z "},"n":{"ha":833,"x_min":92,"x_max":750,"o":"m 92 710 l 258 710 l 278 633 q 408 707 343 683 q 544 731 474 731 q 697 678 644 731 q 750 525 750 625 l 750 0 l 547 0 l 547 465 q 446 575 547 575 q 294 528 369 575 l 294 0 l 92 0 l 92 710 z "},"o":{"ha":833,"x_min":65,"x_max":768,"o":"m 417 -21 q 270 4 335 -21 q 160 77 206 29 q 90 195 114 125 q 65 356 65 265 q 160 633 65 535 q 417 731 254 731 q 674 633 579 731 q 768 356 768 535 q 744 195 768 265 q 674 77 719 125 q 563 4 628 29 q 417 -21 497 -21 m 417 135 q 524 186 486 135 q 563 356 563 238 q 524 524 563 472 q 417 575 486 575 q 309 524 347 575 q 271 356 271 472 q 309 186 271 238 q 417 135 347 135 z "},"p":{"ha":833,"x_min":96,"x_max":767,"o":"m 469 -21 q 376 -5 419 -21 q 299 35 332 11 l 299 -286 l 96 -286 l 96 710 l 261 710 l 276 646 q 356 706 307 681 q 471 731 406 731 q 588 706 533 731 q 681 633 642 681 q 744 517 721 586 q 767 361 767 449 q 745 206 767 276 q 684 85 724 136 q 590 7 644 35 q 469 -21 536 -21 m 410 578 q 352 568 382 578 q 299 543 322 558 l 299 165 q 351 141 321 150 q 410 132 382 132 q 525 187 489 132 q 561 353 561 242 q 523 519 561 461 q 410 578 485 578 z "},"q":{"ha":833,"x_min":67,"x_max":738,"o":"m 363 -21 q 246 4 300 -21 q 152 76 192 29 q 90 192 113 124 q 67 349 67 261 q 88 503 67 433 q 149 624 110 574 q 243 703 189 675 q 364 731 297 731 q 471 710 426 731 q 556 649 515 689 l 571 710 l 738 710 l 738 -286 l 535 -286 l 535 47 q 458 -3 499 14 q 363 -21 418 -21 m 424 132 q 535 171 485 132 l 535 546 q 484 570 510 563 q 424 578 458 578 q 308 523 344 578 q 272 357 272 468 q 310 190 272 249 q 424 132 349 132 z "},"r":{"ha":833,"x_min":90,"x_max":761,"o":"m 626 533 q 537 526 582 533 q 456 503 492 518 l 456 150 l 664 150 l 664 0 l 90 0 l 90 150 l 253 150 l 253 560 l 92 560 l 92 710 l 419 710 l 444 604 q 535 684 485 651 q 661 717 586 717 q 719 713 692 717 q 761 703 746 710 l 761 521 q 708 529 742 525 q 626 533 674 533 z "},"s":{"ha":833,"x_min":108,"x_max":724,"o":"m 400 -21 q 231 -2 308 -21 q 108 39 153 17 l 108 178 q 243 145 168 158 q 401 132 318 132 q 505 147 475 132 q 535 193 535 161 q 517 233 535 219 q 446 261 499 247 l 310 296 q 215 332 253 310 q 154 382 176 354 q 123 444 132 410 q 114 517 114 478 q 193 672 114 614 q 422 731 272 731 q 570 715 500 731 q 685 679 640 699 l 685 540 q 626 554 658 547 q 561 566 594 561 q 494 574 528 571 q 429 578 460 578 q 301 517 301 578 q 322 475 301 489 q 399 447 342 461 l 508 419 q 674 340 624 390 q 724 200 724 290 q 700 106 724 147 q 633 37 676 65 q 531 -6 590 8 q 400 -21 472 -21 z "},"t":{"ha":833,"x_min":67,"x_max":718,"o":"m 67 685 l 228 703 l 258 922 l 425 922 l 425 710 l 711 710 l 711 560 l 425 560 l 425 286 q 429 222 425 249 q 445 178 433 196 q 478 153 457 161 q 536 144 500 144 q 631 156 579 144 q 718 181 683 168 l 718 42 q 626 6 686 24 q 468 -11 567 -11 q 280 56 338 -11 q 222 268 222 122 l 222 560 l 67 560 l 67 685 z "},"u":{"ha":833,"x_min":92,"x_max":736,"o":"m 569 0 l 550 75 q 422 2 485 25 q 292 -21 358 -21 q 144 35 196 -21 q 92 190 92 90 l 92 710 l 294 710 l 294 247 q 392 135 294 135 q 533 179 464 135 l 533 710 l 736 710 l 736 0 l 569 0 z "},"v":{"ha":833,"x_min":38,"x_max":796,"o":"m 38 710 l 253 710 l 418 160 l 586 710 l 796 710 l 519 0 l 315 0 l 38 710 z "},"w":{"ha":833,"x_min":14,"x_max":819,"o":"m 492 0 l 415 411 l 340 0 l 157 0 l 14 710 l 206 710 l 272 161 l 346 571 l 494 571 l 565 167 l 635 710 l 819 710 l 674 0 l 492 0 z "},"x":{"ha":833,"x_min":38,"x_max":796,"o":"m 572 0 l 410 236 l 256 0 l 38 0 l 303 360 l 40 710 l 264 710 l 419 486 l 567 710 l 785 710 l 528 368 l 796 0 l 572 0 z "},"y":{"ha":833,"x_min":38,"x_max":797,"o":"m 182 -147 q 272 -120 240 -147 q 326 -26 304 -93 l 331 -12 l 38 710 l 253 710 l 424 174 l 588 710 l 797 710 l 483 -96 q 384 -253 440 -204 q 238 -303 328 -303 q 103 -281 168 -303 l 103 -143 q 142 -147 125 -146 q 182 -147 158 -147 z "},"z":{"ha":833,"x_min":99,"x_max":739,"o":"m 99 144 l 500 560 l 113 560 l 113 710 l 732 710 l 732 565 l 329 150 l 739 150 l 739 0 l 99 0 l 99 144 z "},"™":{"ha":833,"x_min":28,"x_max":792,"o":"m 683 599 l 683 819 l 632 685 l 546 685 l 496 818 l 496 599 l 388 599 l 388 963 l 514 963 l 588 776 l 663 963 l 792 963 l 792 599 l 683 599 m 126 599 l 126 861 l 28 861 l 28 963 l 350 963 l 350 861 l 251 861 l 251 599 l 126 599 z "},"ⁿ":{"ha":833,"x_min":165,"x_max":668,"o":"m 521 542 l 521 904 q 501 967 521 944 q 442 989 482 989 q 378 976 411 989 q 313 946 344 964 l 313 542 l 165 542 l 165 1092 l 290 1092 l 303 1029 q 508 1108 403 1108 q 628 1065 588 1108 q 668 947 668 1022 l 668 542 l 521 542 z "},"ª":{"ha":833,"x_min":194,"x_max":639,"o":"m 515 481 l 500 528 q 426 483 464 499 q 344 467 388 467 q 238 502 282 467 q 194 608 194 538 q 247 725 194 682 q 388 768 300 768 q 440 765 415 768 q 494 754 464 761 l 494 808 q 478 858 494 840 q 422 875 463 875 q 338 869 383 875 q 228 846 293 864 l 228 944 q 337 977 283 968 q 443 986 390 986 q 592 945 544 986 q 639 825 639 904 l 639 481 l 515 481 m 639 383 l 639 269 l 204 269 l 204 383 l 639 383 m 401 568 q 445 576 424 568 q 494 600 467 583 l 494 672 q 411 681 449 681 q 358 665 378 681 q 339 622 339 650 q 356 580 339 592 q 401 568 372 568 z "},"º":{"ha":833,"x_min":169,"x_max":664,"o":"m 643 383 l 643 269 l 190 269 l 190 383 l 643 383 m 417 456 q 234 524 299 456 q 169 719 169 593 q 234 915 169 843 q 417 986 299 986 q 599 915 535 986 q 664 719 664 843 q 599 524 664 593 q 417 456 535 456 m 417 572 q 490 606 467 572 q 514 719 514 640 q 490 834 514 799 q 417 869 465 869 q 344 834 368 869 q 319 719 319 799 q 343 606 319 640 q 417 572 367 572 z "},"℅":{"ha":833,"x_min":42,"x_max":806,"o":"m 57 0 l 651 963 l 771 963 l 176 0 l 57 0 m 346 600 q 298 582 326 589 q 229 575 269 575 q 90 628 139 575 q 42 775 42 682 q 93 923 42 869 q 233 976 144 976 q 296 970 269 976 q 342 954 322 964 l 342 865 q 299 874 322 871 q 254 878 275 878 q 183 856 206 878 q 160 781 160 833 l 160 768 q 183 699 160 724 q 257 674 206 674 q 305 678 282 674 q 346 688 328 682 l 346 600 m 618 -18 q 476 33 528 -18 q 424 181 424 85 q 476 329 424 275 q 618 383 528 383 q 756 331 706 383 q 806 182 806 278 q 756 36 806 90 q 618 -18 706 -18 m 618 76 q 690 182 690 76 q 673 263 690 238 q 618 288 656 288 q 562 263 579 288 q 544 182 544 238 q 618 76 544 76 z "},"©":{"ha":833,"x_min":76,"x_max":757,"o":"m 424 293 q 305 343 347 293 q 263 479 263 393 q 308 617 263 567 q 428 667 354 667 q 483 660 460 667 q 521 646 506 653 l 521 588 q 449 597 486 597 q 351 485 351 597 l 351 471 q 377 392 351 421 q 451 363 403 363 q 528 375 492 363 l 528 315 q 485 300 511 307 q 424 293 460 293 m 417 144 q 279 169 342 144 q 172 239 217 194 q 101 344 126 283 q 76 479 76 406 q 101 615 76 553 q 172 721 126 676 q 279 790 217 765 q 417 815 342 815 q 554 790 492 815 q 662 721 617 765 q 732 615 707 676 q 757 481 757 554 q 732 345 757 407 q 662 239 707 283 q 554 169 617 194 q 417 144 492 144 m 417 211 q 522 230 475 211 q 604 284 569 249 q 658 369 639 319 q 676 481 676 419 q 658 592 676 542 q 605 676 639 642 q 523 730 571 711 q 417 749 475 749 q 311 730 358 749 q 229 676 264 711 q 176 590 194 640 q 157 479 157 540 q 176 368 157 418 q 228 283 194 318 q 310 230 263 249 q 417 211 358 211 z "},"®":{"ha":833,"x_min":76,"x_max":757,"o":"m 417 376 q 279 401 342 376 q 172 471 217 426 q 101 576 126 515 q 76 711 76 638 q 101 847 76 785 q 172 953 126 908 q 279 1022 217 997 q 417 1047 342 1047 q 554 1022 492 1047 q 662 953 617 997 q 732 847 707 908 q 757 713 757 786 q 732 577 757 639 q 662 471 707 515 q 554 401 617 426 q 417 376 492 376 m 417 443 q 522 462 475 443 q 604 516 569 481 q 658 601 639 551 q 676 713 676 651 q 658 824 676 774 q 605 908 639 874 q 523 962 571 943 q 417 981 475 981 q 311 962 358 981 q 229 908 264 943 q 176 822 194 872 q 157 711 157 772 q 176 600 157 650 q 228 515 194 550 q 310 462 263 481 q 417 443 358 443 m 283 533 l 283 897 l 428 897 q 523 867 489 897 q 557 778 557 836 q 539 718 557 742 q 490 681 521 694 l 582 533 l 488 533 l 411 665 l 367 665 l 367 533 l 283 533 m 367 735 l 413 735 q 451 744 436 735 q 467 776 467 754 q 453 812 467 800 q 417 824 439 824 l 367 824 l 367 735 z "},"℗":{"ha":833,"x_min":76,"x_max":757,"o":"m 379 429 l 379 301 l 296 301 l 296 665 l 436 665 q 538 635 501 665 q 574 549 574 606 q 538 460 574 490 q 436 429 501 429 l 379 429 m 379 503 l 426 503 q 469 513 454 503 q 483 549 483 522 q 469 582 483 572 q 426 592 454 592 l 379 592 l 379 503 m 417 144 q 279 169 342 144 q 172 239 217 194 q 101 344 126 283 q 76 479 76 406 q 101 615 76 553 q 172 721 126 676 q 279 790 217 765 q 417 815 342 815 q 554 790 492 815 q 662 721 617 765 q 732 615 707 676 q 757 481 757 554 q 732 345 757 407 q 662 239 707 283 q 554 169 617 194 q 417 144 492 144 m 417 211 q 522 230 475 211 q 604 284 569 249 q 658 369 639 319 q 676 481 676 419 q 658 592 676 542 q 605 676 639 642 q 523 730 571 711 q 417 749 475 749 q 311 730 358 749 q 229 676 264 711 q 176 590 194 640 q 157 479 157 540 q 176 368 157 418 q 228 283 194 318 q 310 230 263 249 q 417 211 358 211 z "},"∂":{"ha":833,"x_min":58,"x_max":774,"o":"m 442 985 q 588 956 525 985 q 692 872 650 926 q 753 741 733 818 q 774 568 774 664 q 669 129 774 279 q 368 -21 565 -21 q 238 0 296 -21 q 141 60 181 21 q 80 151 101 99 q 58 269 58 204 q 83 397 58 339 q 152 496 107 454 q 260 560 197 538 q 397 583 322 583 q 491 571 444 583 q 578 536 538 558 q 578 552 578 544 q 579 568 579 560 q 537 764 579 701 q 411 826 494 826 q 302 808 356 826 q 178 750 249 789 l 178 903 q 307 964 240 943 q 442 985 374 985 m 388 138 q 505 205 458 138 q 569 404 551 272 q 419 444 497 444 q 302 398 346 444 q 258 276 258 351 q 292 174 258 210 q 388 138 325 138 z "},"∏":{"ha":833,"x_min":94,"x_max":739,"o":"m 536 -167 l 536 807 l 297 807 l 297 -167 l 94 -167 l 94 963 l 739 963 l 739 -167 l 536 -167 z "},"∑":{"ha":833,"x_min":42,"x_max":792,"o":"m 42 -167 l 42 -6 l 331 401 l 56 801 l 56 963 l 750 963 l 750 801 l 268 801 l 546 400 l 253 -6 l 792 -6 l 792 -167 l 42 -167 z "},"∕":{"ha":833,"x_min":72,"x_max":761,"o":"m 72 0 l 649 963 l 761 963 l 185 0 l 72 0 z "},"∙":{"ha":833,"x_min":276,"x_max":557,"o":"m 417 329 q 315 368 353 329 q 276 469 276 407 q 315 571 276 532 q 417 610 353 610 q 519 571 481 610 q 557 469 557 532 q 519 368 557 407 q 417 329 481 329 z "},"√":{"ha":833,"x_min":13,"x_max":819,"o":"m 626 1028 l 819 1028 l 476 0 l 278 0 l 140 356 l 13 356 l 13 503 l 275 503 l 374 204 l 626 1028 z "},"∞":{"ha":833,"x_min":19,"x_max":814,"o":"m 225 701 q 324 674 278 701 q 418 574 371 647 q 515 676 469 650 q 614 701 561 701 q 694 685 657 701 q 757 639 731 668 q 799 569 783 610 q 814 479 814 528 q 798 389 814 431 q 754 317 782 347 q 689 271 726 288 q 608 254 651 254 q 508 281 556 254 q 414 381 461 307 q 365 318 389 343 q 317 279 340 293 q 269 260 293 265 q 219 254 244 254 q 140 271 176 254 q 76 317 103 288 q 35 387 50 346 q 19 476 19 428 q 35 567 19 525 q 79 638 51 608 q 144 685 107 668 q 225 701 182 701 m 596 578 q 535 557 563 578 q 472 478 507 536 q 504 428 489 447 q 534 397 519 408 q 564 382 549 386 q 596 378 579 378 q 653 406 631 378 q 676 479 676 433 q 653 551 676 524 q 596 578 631 578 m 238 378 q 298 399 271 378 q 361 476 325 419 q 298 557 326 536 q 238 578 269 578 q 180 550 203 578 q 157 476 157 522 q 180 405 157 432 q 238 378 203 378 z "},"∫":{"ha":833,"x_min":132,"x_max":701,"o":"m 518 -26 q 455 -231 518 -158 q 274 -303 392 -303 q 199 -296 238 -303 q 132 -276 161 -289 l 132 -139 q 183 -146 164 -144 q 219 -147 201 -147 q 315 -54 315 -147 l 315 771 q 378 975 315 903 q 560 1047 442 1047 q 634 1040 596 1047 q 701 1021 672 1033 l 701 883 q 651 890 669 889 q 614 892 632 892 q 518 799 518 892 l 518 -26 z "},"◊":{"ha":833,"x_min":42,"x_max":792,"o":"m 321 0 l 42 482 l 321 963 l 513 963 l 792 482 l 513 0 l 321 0 m 588 482 l 417 792 l 246 482 l 417 171 l 588 482 z "},"∆":{"ha":833,"x_min":69,"x_max":764,"o":"m 69 151 l 299 963 l 535 963 l 764 151 l 764 0 l 69 0 l 69 151 m 268 151 l 557 151 l 413 781 l 268 151 z "},"ℓ":{"ha":833,"x_min":49,"x_max":729,"o":"m 72 313 q 127 335 100 324 q 181 360 154 347 l 181 751 q 201 879 181 824 q 258 972 221 935 q 345 1028 294 1010 q 458 1047 396 1047 q 660 978 592 1047 q 729 800 729 908 q 702 653 729 722 q 626 522 675 583 q 508 406 576 461 q 358 304 440 351 l 358 293 q 365 213 358 246 q 389 160 372 181 q 433 130 406 139 q 504 121 461 121 q 601 131 556 121 q 686 156 646 140 l 686 24 q 582 -10 646 3 q 453 -24 518 -24 q 262 32 331 -24 q 182 213 193 88 q 127 188 154 200 q 72 165 100 176 l 49 156 l 49 303 l 72 313 m 358 463 q 503 613 453 532 q 554 794 554 693 q 528 874 554 844 q 458 903 503 903 q 388 871 417 903 q 358 756 358 839 l 358 463 z "},"№":{"ha":833,"x_min":56,"x_max":807,"o":"m 179 750 l 179 0 l 56 0 l 56 963 l 221 963 l 379 240 l 379 963 l 501 963 l 501 0 l 336 0 l 179 750 m 678 601 q 584 644 619 601 q 549 788 549 686 q 584 931 549 889 q 678 974 619 974 q 772 931 736 974 q 807 788 807 889 q 772 644 807 686 q 678 601 736 601 m 794 557 l 794 485 l 560 485 l 560 557 l 794 557 m 678 894 q 649 871 658 894 q 640 789 640 847 q 649 704 640 728 q 678 681 658 681 q 706 704 697 681 q 715 786 715 728 q 706 871 715 847 q 678 894 697 894 z "},"℮":{"ha":833,"x_min":40,"x_max":793,"o":"m 649 506 q 654 513 654 506 l 654 672 q 646 697 654 686 q 542 765 601 742 q 415 789 482 789 q 188 693 274 789 q 181 669 181 683 l 181 513 q 186 506 181 506 l 649 506 m 725 278 q 590 169 669 204 q 417 135 511 135 q 265 160 333 135 q 146 231 196 185 q 68 340 96 276 q 40 479 40 403 q 68 618 40 554 q 146 728 96 682 q 265 801 196 775 q 415 828 333 828 q 568 802 499 828 q 688 731 638 776 q 765 624 738 686 q 793 486 793 561 l 793 471 l 186 471 q 181 465 181 471 l 181 288 q 189 267 181 275 q 417 174 269 174 q 551 201 489 174 q 656 278 614 228 l 725 278 z "},"‘":{"ha":833,"x_min":240,"x_max":588,"o":"m 442 524 l 328 524 q 262 540 283 524 q 240 586 240 557 q 268 676 240 624 q 353 818 296 729 l 444 963 l 588 963 l 442 524 z "},"’":{"ha":833,"x_min":247,"x_max":594,"o":"m 393 963 l 507 963 q 573 946 551 963 q 594 900 594 929 q 567 810 594 863 q 482 668 539 757 l 390 524 l 247 524 l 393 963 z "},"‚":{"ha":833,"x_min":226,"x_max":574,"o":"m 372 185 l 486 185 q 552 168 531 185 q 574 122 574 151 q 546 32 574 85 q 461 -110 518 -21 l 369 -254 l 226 -254 l 372 185 z "},"“":{"ha":833,"x_min":72,"x_max":756,"o":"m 274 524 l 160 524 q 94 540 115 524 q 72 586 72 557 q 100 676 72 624 q 185 818 128 729 l 276 963 l 419 963 l 274 524 m 610 524 l 496 524 q 430 540 451 524 q 408 586 408 557 q 436 676 408 624 q 521 818 464 729 l 613 963 l 756 963 l 610 524 z "},"”":{"ha":833,"x_min":79,"x_max":763,"o":"m 225 963 l 339 963 q 405 946 383 963 q 426 900 426 929 q 399 810 426 863 q 314 668 371 757 l 222 524 l 79 524 l 225 963 m 561 963 l 675 963 q 741 946 719 963 q 763 900 763 929 q 735 810 763 863 q 650 668 707 757 l 558 524 l 415 524 l 561 963 z "},"„":{"ha":833,"x_min":51,"x_max":735,"o":"m 197 185 l 311 185 q 377 168 356 185 q 399 122 399 151 q 371 32 399 85 q 286 -110 343 -21 l 194 -254 l 51 -254 l 197 185 m 533 185 l 647 185 q 713 168 692 185 q 735 122 735 151 q 707 32 735 85 q 622 -110 679 -21 l 531 -254 l 388 -254 l 533 185 z "},"‛":{"ha":833,"x_min":239,"x_max":586,"o":"m 586 524 l 443 524 l 351 668 q 267 810 294 757 q 239 900 239 863 q 260 946 239 929 q 326 963 282 963 l 440 963 l 586 524 z "},"‟":{"ha":833,"x_min":71,"x_max":754,"o":"m 418 524 l 275 524 l 183 668 q 99 810 126 757 q 71 900 71 863 q 92 946 71 929 q 158 963 114 963 l 272 963 l 418 524 m 754 524 l 611 524 l 519 668 q 435 810 463 757 q 407 900 407 863 q 428 946 407 929 q 494 963 450 963 l 608 963 l 754 524 z "},"ʻ":{"ha":833,"x_min":272,"x_max":622,"o":"m 622 900 q 506 716 550 813 q 463 501 463 619 l 390 501 q 300 523 328 501 q 272 592 272 544 q 294 695 272 642 q 353 799 317 749 q 437 893 389 849 q 536 969 485 938 l 622 900 z "},"ʼ":{"ha":833,"x_min":224,"x_max":574,"o":"m 224 564 q 340 748 296 651 q 383 963 383 844 l 456 963 q 546 941 518 963 q 574 872 574 919 q 551 769 574 822 q 493 665 529 715 q 409 571 457 615 q 310 494 361 526 l 224 564 z "},"′":{"ha":833,"x_min":251,"x_max":582,"o":"m 397 626 l 251 626 l 343 953 q 397 976 365 967 q 467 986 429 986 q 528 977 499 986 q 582 953 558 968 l 397 626 z "},"″":{"ha":833,"x_min":69,"x_max":736,"o":"m 215 626 l 69 626 l 161 953 q 215 976 183 967 q 285 986 247 986 q 347 977 317 986 q 400 953 376 968 l 215 626 m 551 626 l 406 626 l 497 953 q 551 976 519 967 q 621 986 583 986 q 683 977 653 986 q 736 953 713 968 l 551 626 z "},"ʹ":{"ha":833,"x_min":251,"x_max":582,"o":"m 397 626 l 251 626 l 343 953 q 397 976 365 967 q 467 986 429 986 q 528 977 499 986 q 582 953 558 968 l 397 626 z "},"ʺ":{"ha":833,"x_min":69,"x_max":736,"o":"m 215 626 l 69 626 l 161 953 q 215 976 183 967 q 285 986 247 986 q 347 977 317 986 q 400 953 376 968 l 215 626 m 551 626 l 406 626 l 497 953 q 551 976 519 967 q 621 986 583 986 q 683 977 653 986 q 736 953 713 968 l 551 626 z "},"ı":{"ha":833,"x_min":90,"x_max":753,"o":"m 90 150 l 326 150 l 326 560 l 138 560 l 138 710 l 529 710 l 529 150 l 753 150 l 753 0 l 90 0 l 90 150 z "},"ȷ":{"ha":833,"x_min":74,"x_max":601,"o":"m 261 -147 q 365 -118 332 -147 q 399 -14 399 -89 l 399 560 l 149 560 l 149 710 l 601 710 l 601 -10 q 529 -232 601 -161 q 310 -303 457 -303 q 176 -290 233 -303 q 74 -256 118 -278 l 74 -118 q 161 -139 114 -131 q 261 -147 208 -147 z "},"Ĳ":{"ha":833,"x_min":76,"x_max":758,"o":"m 76 0 l 76 963 l 279 963 l 279 0 l 76 0 m 360 153 q 404 142 379 146 q 456 139 429 139 q 535 171 514 139 q 556 282 556 203 l 556 963 l 758 963 l 758 282 q 692 50 758 121 q 494 -21 625 -21 q 420 -15 456 -21 q 360 3 385 -8 l 360 153 z "},"Ŀ":{"ha":833,"x_min":118,"x_max":749,"o":"m 118 0 l 118 963 l 321 963 l 321 167 l 749 167 l 749 0 l 118 0 m 604 433 q 525 462 556 433 q 494 535 494 490 q 525 608 494 579 q 604 636 556 636 q 683 608 653 636 q 714 535 714 579 q 683 462 714 490 q 604 433 653 433 z "},"ĳ":{"ha":833,"x_min":96,"x_max":738,"o":"m 519 710 l 722 710 l 722 -75 q 508 -303 722 -303 q 368 -281 435 -303 l 368 -143 q 410 -147 389 -146 q 447 -147 431 -147 q 503 -132 486 -147 q 519 -81 519 -117 l 519 710 m 621 819 q 536 849 568 819 q 504 928 504 878 q 536 1007 504 978 q 621 1036 568 1036 q 706 1007 674 1036 q 738 928 738 978 q 706 849 738 878 q 621 819 674 819 m 111 0 l 111 710 l 314 710 l 314 0 l 111 0 m 213 819 q 128 849 160 819 q 96 928 96 878 q 128 1007 96 978 q 213 1036 160 1036 q 297 1007 265 1036 q 329 928 329 978 q 297 849 329 878 q 213 819 265 819 z "},"ŀ":{"ha":833,"x_min":79,"x_max":911,"o":"m 79 150 l 315 150 l 315 878 l 126 878 l 126 1028 l 518 1028 l 518 150 l 742 150 l 742 0 l 79 0 l 79 150 m 801 414 q 722 442 753 414 q 692 515 692 471 q 722 588 692 560 q 801 617 753 617 q 881 588 850 617 q 911 515 911 560 q 881 442 911 471 q 801 414 850 414 z "},"ŉ":{"ha":833,"x_min":0,"x_max":778,"o":"m 119 710 l 286 710 l 306 633 q 436 707 371 683 q 572 731 501 731 q 725 678 672 731 q 778 525 778 625 l 778 0 l 575 0 l 575 465 q 474 575 575 575 q 322 528 397 575 l 322 0 l 119 0 l 119 710 m 0 765 l 31 1069 l 133 1069 q 199 1054 181 1069 q 217 1011 217 1039 q 207 957 217 988 q 182 892 197 926 l 131 765 l 0 765 z "},"Þ":{"ha":833,"x_min":124,"x_max":783,"o":"m 321 796 l 458 796 q 592 775 532 796 q 694 715 651 754 q 760 619 738 675 q 783 490 783 563 q 760 362 783 418 q 694 266 738 306 q 592 206 651 226 q 458 185 532 185 l 321 185 l 321 0 l 124 0 l 124 963 l 321 963 l 321 796 m 321 643 l 321 338 l 440 338 q 547 376 510 338 q 583 490 583 415 q 547 604 583 565 q 440 643 510 643 l 321 643 z "},"Æ":{"ha":833,"x_min":3,"x_max":806,"o":"m 414 225 l 242 225 l 196 0 l 3 0 l 253 963 l 806 963 l 806 807 l 581 807 l 581 571 l 726 571 l 726 415 l 581 415 l 581 156 l 806 156 l 806 0 l 414 0 l 414 225 m 272 372 l 414 372 l 414 814 l 364 814 l 272 372 z "},"Œ":{"ha":833,"x_min":42,"x_max":794,"o":"m 410 0 q 244 27 314 0 q 130 113 175 54 q 63 262 85 171 q 42 481 42 353 q 132 847 42 732 q 407 963 222 963 l 794 963 l 794 807 l 579 807 l 579 571 l 715 571 l 715 415 l 579 415 l 579 156 l 794 156 l 794 0 l 410 0 m 236 481 q 248 321 236 383 q 282 222 260 258 q 335 171 304 185 q 406 156 367 157 l 406 807 q 333 792 365 806 q 280 742 301 778 q 247 643 258 706 q 236 481 236 581 z "},"ẞ":{"ha":833,"x_min":72,"x_max":792,"o":"m 386 531 l 531 803 q 429 822 486 822 q 308 771 350 822 q 267 607 267 719 l 267 0 l 72 0 l 72 589 q 163 883 72 782 q 424 983 253 983 q 563 965 494 983 q 690 904 631 946 l 690 767 l 572 551 q 731 481 671 544 q 792 289 792 418 q 769 156 792 214 q 706 59 746 99 q 610 -1 665 19 q 490 -21 556 -21 q 396 -11 435 -21 q 331 13 357 -1 l 331 163 q 390 147 358 153 q 456 140 421 140 q 586 289 586 140 q 557 381 586 356 q 465 407 528 407 q 431 406 447 407 q 386 400 415 404 l 386 531 z "},"þ":{"ha":833,"x_min":96,"x_max":767,"o":"m 469 -21 q 378 -7 421 -21 q 299 31 335 7 l 299 -286 l 96 -286 l 96 1028 l 299 1028 l 299 668 q 379 715 335 700 q 471 731 424 731 q 588 706 533 731 q 681 633 642 681 q 744 517 721 586 q 767 361 767 449 q 745 206 767 276 q 684 85 724 136 q 590 7 644 35 q 469 -21 536 -21 m 410 578 q 299 547 349 578 l 299 158 q 352 140 324 147 q 410 132 381 132 q 525 187 489 132 q 561 353 561 242 q 523 519 561 461 q 410 578 485 578 z "},"æ":{"ha":833,"x_min":24,"x_max":810,"o":"m 607 -21 q 419 60 486 -21 q 333 0 382 22 q 228 -22 285 -22 q 78 35 132 -22 q 24 193 24 93 q 81 361 24 297 q 267 425 139 425 q 342 417 304 425 l 342 453 q 315 562 342 532 q 226 592 289 592 q 140 581 181 592 q 64 551 99 569 l 64 678 q 150 716 97 701 q 253 731 203 731 q 432 650 385 731 q 504 711 461 692 q 593 731 547 731 q 753 661 697 731 q 810 439 810 592 q 806 367 810 408 q 796 299 803 326 l 485 299 q 533 162 492 203 q 643 121 574 121 q 718 130 676 121 q 797 154 760 139 l 797 28 q 706 -8 758 4 q 607 -21 653 -21 m 276 113 q 322 121 300 113 q 369 151 343 129 q 342 311 346 221 q 325 313 333 313 q 308 313 317 313 q 226 290 249 313 q 203 211 203 267 q 222 140 203 168 q 276 113 240 113 m 581 601 q 514 560 540 601 q 485 418 488 519 l 649 418 q 650 440 650 431 q 650 458 650 449 q 645 528 650 500 q 631 572 640 556 q 608 595 621 589 q 581 601 596 601 z "},"œ":{"ha":833,"x_min":35,"x_max":810,"o":"m 643 121 q 718 130 676 121 q 797 154 760 139 l 797 28 q 706 -8 758 4 q 607 -21 653 -21 q 498 1 547 -21 q 419 76 449 24 q 347 -1 390 19 q 260 -21 303 -21 q 162 0 204 -21 q 92 66 119 21 q 49 183 64 111 q 35 356 35 254 q 50 528 35 457 q 94 644 65 600 q 166 710 124 689 q 263 731 208 731 q 367 700 328 731 q 426 619 406 669 q 500 705 454 679 q 599 731 546 731 q 751 660 693 731 q 810 439 810 590 q 806 367 810 408 q 796 299 803 326 l 494 299 q 534 162 500 203 q 643 121 568 121 m 193 361 q 210 178 193 235 q 269 121 228 121 q 328 178 311 121 q 346 361 346 235 q 328 544 346 488 q 269 601 311 601 q 210 544 228 601 q 193 361 193 488 m 650 458 q 645 528 650 500 q 631 572 640 556 q 608 595 621 589 q 581 601 596 601 q 520 558 543 601 q 494 418 497 514 l 649 418 q 650 440 650 431 q 650 458 650 449 z "},"ß":{"ha":833,"x_min":92,"x_max":781,"o":"m 488 325 q 402 411 426 365 q 378 506 378 457 q 394 590 378 547 q 457 688 410 632 q 494 749 485 719 q 503 810 503 778 q 478 874 503 847 q 410 900 453 900 q 315 851 342 900 q 289 690 289 801 l 289 0 l 92 0 l 92 699 q 172 958 92 869 q 415 1047 251 1047 q 529 1031 478 1047 q 617 986 581 1015 q 674 915 654 957 q 694 819 694 872 q 676 718 694 760 q 615 628 657 676 q 588 594 599 608 q 572 569 578 581 q 565 548 567 558 q 563 525 563 538 q 631 433 563 481 l 653 418 q 748 324 715 375 q 781 206 781 272 q 762 111 781 153 q 708 40 743 69 q 625 -5 674 11 q 517 -21 576 -21 q 441 -11 478 -21 q 376 14 404 -1 l 376 156 q 438 135 404 143 q 504 126 472 126 q 592 203 592 126 q 573 254 592 231 q 510 310 554 278 l 488 325 l 488 325 z "},"ſ":{"ha":833,"x_min":250,"x_max":776,"o":"m 250 747 q 324 974 250 901 q 554 1047 399 1047 q 687 1033 626 1047 q 776 1004 747 1018 l 776 867 q 688 884 742 876 q 589 892 635 892 q 483 863 514 892 q 453 753 453 833 l 453 0 l 250 0 l 250 747 z "},"ĸ":{"ha":833,"x_min":104,"x_max":829,"o":"m 104 710 l 306 710 l 306 394 l 563 710 l 807 710 l 501 358 l 829 0 l 579 0 l 306 310 l 306 0 l 104 0 l 104 710 z "},"Ŋ":{"ha":833,"x_min":82,"x_max":750,"o":"m 313 963 l 569 329 l 569 963 l 750 963 l 750 0 q 683 -232 750 -161 q 486 -303 617 -303 q 410 -294 443 -303 q 351 -275 376 -286 l 351 -128 q 399 -139 371 -135 q 457 -143 426 -143 q 542 -112 515 -143 q 569 -4 568 -81 l 263 724 l 263 0 l 82 0 l 82 963 l 313 963 z "},"ƒ":{"ha":833,"x_min":57,"x_max":776,"o":"m 122 685 l 304 707 l 304 756 q 324 889 304 833 q 381 980 344 944 q 469 1031 417 1015 q 585 1047 521 1047 q 699 1037 650 1047 q 776 1014 747 1026 l 776 876 q 704 888 743 883 q 631 892 665 892 q 534 864 561 892 q 507 764 507 836 l 507 710 l 729 710 l 729 560 l 507 560 l 507 -18 q 493 -140 507 -87 q 447 -229 479 -193 q 361 -284 414 -265 q 231 -303 308 -303 q 131 -293 176 -303 q 57 -268 86 -283 l 57 -131 q 120 -142 82 -137 q 200 -147 158 -147 q 281 -122 257 -147 q 304 -33 304 -97 l 304 560 l 122 560 l 122 685 z "},"ŋ":{"ha":833,"x_min":92,"x_max":750,"o":"m 547 465 q 446 575 547 575 q 294 528 369 575 l 294 0 l 92 0 l 92 710 l 258 710 l 278 633 q 408 707 343 683 q 544 731 474 731 q 697 678 644 731 q 750 525 750 625 l 750 -3 q 686 -231 750 -158 q 481 -303 622 -303 q 340 -281 407 -303 l 340 -146 q 380 -149 360 -149 q 419 -150 400 -150 q 482 -144 457 -150 q 522 -122 507 -137 q 542 -81 536 -107 q 547 -14 547 -54 l 547 465 z "},"Ð":{"ha":833,"x_min":36,"x_max":765,"o":"m 368 963 q 663 846 561 963 q 765 482 765 729 q 668 121 765 242 q 365 0 571 0 l 110 0 l 110 426 l 36 426 l 36 564 l 110 564 l 110 963 l 368 963 m 313 426 l 313 154 l 356 154 q 513 230 468 154 q 557 468 557 306 l 557 496 q 547 637 557 578 q 513 734 536 696 q 450 790 489 772 q 353 808 411 808 l 313 808 l 313 564 l 440 564 l 440 426 l 313 426 z "},"Đ":{"ha":833,"x_min":36,"x_max":765,"o":"m 368 963 q 663 846 561 963 q 765 482 765 729 q 668 121 765 242 q 365 0 571 0 l 110 0 l 110 426 l 36 426 l 36 564 l 110 564 l 110 963 l 368 963 m 313 426 l 313 154 l 356 154 q 513 230 468 154 q 557 468 557 306 l 557 496 q 547 637 557 578 q 513 734 536 696 q 450 790 489 772 q 353 808 411 808 l 313 808 l 313 564 l 440 564 l 440 426 l 313 426 z "},"Ħ":{"ha":833,"x_min":14,"x_max":819,"o":"m 88 692 l 14 692 l 14 822 l 88 822 l 88 963 l 290 963 l 290 822 l 543 822 l 543 963 l 746 963 l 746 822 l 819 822 l 819 692 l 746 692 l 746 0 l 543 0 l 543 413 l 290 413 l 290 0 l 88 0 l 88 692 m 543 568 l 543 692 l 290 692 l 290 568 l 543 568 z "},"Ŧ":{"ha":833,"x_min":63,"x_max":771,"o":"m 315 0 l 315 419 l 133 419 l 133 550 l 315 550 l 315 797 l 63 797 l 63 963 l 771 963 l 771 797 l 518 797 l 518 550 l 700 550 l 700 419 l 518 419 l 518 0 l 315 0 z "},"Ł":{"ha":833,"x_min":19,"x_max":776,"o":"m 146 0 l 146 325 l 19 253 l 19 399 l 146 472 l 146 963 l 349 963 l 349 589 l 575 721 l 575 574 l 349 443 l 349 167 l 776 167 l 776 0 l 146 0 z "},"Ø":{"ha":833,"x_min":56,"x_max":778,"o":"m 56 482 q 151 858 56 731 q 418 986 246 986 q 621 921 536 986 l 685 1028 l 771 974 l 692 842 q 756 688 733 778 q 778 482 778 599 q 683 106 778 233 q 415 -22 588 -22 q 213 43 294 -22 l 149 -64 l 63 -10 l 140 121 q 56 482 56 250 m 569 482 q 561 625 569 563 l 310 206 q 417 142 347 142 q 532 224 494 142 q 569 482 569 306 m 264 482 q 265 406 264 442 q 271 339 267 371 l 522 758 q 417 822 485 822 q 301 740 339 822 q 264 482 264 658 z "},"ð":{"ha":833,"x_min":78,"x_max":756,"o":"m 232 804 l 322 886 q 256 906 290 897 q 183 919 221 914 l 183 1069 q 320 1043 257 1061 q 439 997 383 1025 l 549 1099 l 621 1022 l 531 939 q 699 721 642 853 q 756 414 756 589 q 673 85 756 190 q 415 -21 590 -21 q 274 3 336 -21 q 167 73 211 28 q 101 183 124 118 q 78 329 78 247 q 100 471 78 407 q 163 580 122 535 q 260 650 203 625 q 388 675 318 675 q 501 653 450 675 q 592 592 553 632 q 425 840 531 775 l 304 729 l 232 804 m 417 126 q 563 328 563 126 q 417 531 563 531 q 278 328 278 531 q 417 126 278 126 z "},"đ":{"ha":833,"x_min":67,"x_max":813,"o":"m 363 -21 q 246 4 300 -21 q 152 76 192 29 q 90 192 113 124 q 67 349 67 261 q 88 503 67 433 q 149 624 110 574 q 243 703 189 675 q 364 731 297 731 q 459 715 422 731 q 535 668 496 700 l 535 811 l 317 811 l 317 933 l 535 933 l 535 1028 l 738 1028 l 738 933 l 813 933 l 813 811 l 738 811 l 738 0 l 561 0 l 546 58 q 466 0 510 21 q 363 -21 422 -21 m 424 132 q 535 171 485 132 l 535 547 q 485 570 511 563 q 424 578 460 578 q 308 523 344 578 q 272 357 272 468 q 310 190 272 249 q 424 132 349 132 z "},"ħ":{"ha":833,"x_min":13,"x_max":746,"o":"m 88 811 l 13 811 l 13 933 l 88 933 l 88 1028 l 290 1028 l 290 933 l 508 933 l 508 811 l 290 811 l 290 646 q 540 731 410 731 q 693 678 640 731 q 746 525 746 625 l 746 0 l 543 0 l 543 465 q 442 575 543 575 q 290 528 365 575 l 290 0 l 88 0 l 88 811 z "},"ŧ":{"ha":833,"x_min":67,"x_max":718,"o":"m 67 685 l 228 703 l 258 922 l 425 922 l 425 710 l 711 710 l 711 560 l 425 560 l 425 426 l 711 426 l 711 304 l 425 304 l 425 286 q 429 222 425 249 q 445 178 433 196 q 478 153 457 161 q 536 144 500 144 q 631 156 579 144 q 718 181 683 168 l 718 42 q 626 6 686 24 q 468 -11 567 -11 q 280 56 338 -11 q 222 268 222 122 l 222 304 l 67 304 l 67 426 l 222 426 l 222 560 l 67 560 l 67 685 z "},"ł":{"ha":833,"x_min":79,"x_max":742,"o":"m 79 150 l 315 150 l 315 389 l 143 308 l 143 447 l 315 528 l 315 878 l 126 878 l 126 1028 l 518 1028 l 518 624 l 692 707 l 692 568 l 518 485 l 518 150 l 742 150 l 742 0 l 79 0 l 79 150 z "},"ø":{"ha":833,"x_min":65,"x_max":768,"o":"m 78 14 l 143 96 q 65 356 65 190 q 160 633 65 535 q 417 731 254 731 q 610 682 529 731 l 674 763 l 756 696 l 690 614 q 748 501 728 565 q 768 356 768 438 q 744 195 768 265 q 674 77 719 125 q 563 4 628 29 q 417 -21 497 -21 q 222 26 306 -21 l 160 -53 l 78 14 m 271 356 q 273 307 271 329 q 278 265 275 285 l 501 547 q 417 575 469 575 q 309 524 347 575 q 271 356 271 472 m 417 135 q 524 186 486 135 q 563 356 563 238 q 554 443 563 406 l 331 163 q 417 135 364 135 z "},"̧":{"ha":833,"x_min":292,"x_max":540,"o":"m 406 -82 q 504 -111 468 -82 q 540 -189 540 -140 q 499 -303 540 -253 q 365 -401 457 -353 l 292 -335 q 371 -276 343 -306 q 399 -222 399 -247 q 353 -192 399 -192 q 308 -196 338 -192 l 308 -97 q 406 -82 354 -82 z "},"¸":{"ha":833,"x_min":292,"x_max":540,"o":"m 406 -82 q 504 -111 468 -82 q 540 -189 540 -140 q 499 -303 540 -253 q 365 -401 457 -353 l 292 -335 q 371 -276 343 -306 q 399 -222 399 -247 q 353 -192 399 -192 q 308 -196 338 -192 l 308 -97 q 406 -82 354 -82 z "},"̦":{"ha":833,"x_min":308,"x_max":524,"o":"m 308 -397 l 358 -86 l 422 -86 q 524 -151 524 -86 q 517 -189 524 -167 q 494 -247 510 -211 l 429 -397 l 308 -397 z "},"̒":{"ha":833,"x_min":308,"x_max":525,"o":"m 525 1139 l 474 817 l 410 817 q 308 882 308 817 q 315 919 308 897 q 338 978 322 942 l 404 1139 l 525 1139 z "},"̨":{"ha":833,"x_min":276,"x_max":557,"o":"m 540 0 q 426 -162 426 -86 q 494 -210 426 -210 q 521 -208 507 -210 q 557 -201 535 -206 l 557 -303 q 449 -321 507 -321 q 321 -288 365 -321 q 276 -194 276 -256 q 440 24 276 -78 l 540 0 z "},"˛":{"ha":833,"x_min":276,"x_max":557,"o":"m 540 0 q 426 -162 426 -86 q 494 -210 426 -210 q 521 -208 507 -210 q 557 -201 535 -206 l 557 -303 q 449 -321 507 -321 q 321 -288 365 -321 q 276 -194 276 -256 q 440 24 276 -78 l 540 0 z "},"Ç":{"ha":833,"x_min":68,"x_max":751,"o":"m 276 464 q 340 225 276 304 q 543 146 404 146 q 649 157 592 146 q 751 185 706 168 l 751 31 q 639 -6 699 6 q 515 -18 579 -18 q 180 106 292 -18 q 68 476 68 231 q 185 850 68 719 q 519 981 301 981 q 739 936 638 981 l 739 782 q 648 807 700 797 q 547 817 596 817 q 342 738 407 817 q 276 496 276 658 l 276 464 l 276 464 m 469 -82 q 568 -111 532 -82 q 604 -189 604 -140 q 563 -303 604 -253 q 429 -401 521 -353 l 354 -333 q 432 -276 404 -306 q 460 -222 460 -246 q 417 -194 460 -194 q 372 -199 401 -194 l 372 -97 q 469 -82 418 -82 z "},"Ş":{"ha":833,"x_min":92,"x_max":742,"o":"m 517 554 q 622 502 579 529 q 691 442 664 475 q 730 366 718 408 q 742 269 742 324 q 716 149 742 203 q 642 56 690 94 q 527 -3 594 18 q 376 -24 460 -24 q 227 -8 301 -24 q 100 31 153 7 l 100 186 q 233 152 165 164 q 375 140 300 140 q 495 171 454 140 q 536 260 536 201 q 510 335 536 304 q 408 396 485 365 l 311 435 q 151 539 211 475 q 92 703 92 603 q 115 820 92 768 q 183 909 139 872 q 290 966 228 946 q 431 986 353 986 q 558 972 494 986 q 682 935 621 958 l 682 782 q 558 813 618 803 q 442 822 499 822 q 333 795 371 822 q 294 719 294 768 q 326 647 294 676 q 421 593 358 618 l 517 554 m 369 -82 q 468 -111 432 -82 q 504 -189 504 -140 q 463 -303 504 -253 q 329 -401 421 -353 l 254 -333 q 332 -276 304 -306 q 360 -222 360 -246 q 317 -194 360 -194 q 272 -199 301 -194 l 272 -97 q 369 -82 318 -82 z "},"Ţ":{"ha":833,"x_min":63,"x_max":771,"o":"m 315 0 l 315 797 l 63 797 l 63 963 l 771 963 l 771 797 l 518 797 l 518 0 l 315 0 m 401 -82 q 500 -111 464 -82 q 536 -189 536 -140 q 494 -303 536 -253 q 361 -401 453 -353 l 286 -333 q 364 -276 336 -306 q 392 -222 392 -246 q 349 -194 392 -194 q 304 -199 333 -194 l 304 -97 q 401 -82 350 -82 z "},"ģ":{"ha":833,"x_min":67,"x_max":736,"o":"m 536 86 q 350 15 457 15 q 233 40 285 15 q 144 112 181 65 q 87 224 107 158 q 67 369 67 289 q 87 518 67 451 q 144 632 107 585 q 235 705 182 679 q 353 731 288 731 q 463 710 411 731 q 554 649 514 689 l 569 710 l 736 710 l 736 56 q 642 -208 736 -114 q 381 -303 549 -303 q 249 -289 310 -303 q 125 -243 189 -275 l 125 -107 q 251 -139 192 -128 q 363 -150 311 -150 q 495 -108 454 -150 q 536 31 536 -65 l 536 86 m 413 165 q 477 176 444 165 q 536 204 510 186 l 536 546 q 403 581 479 581 q 269 375 269 581 q 304 216 269 267 q 413 165 339 165 m 547 1139 l 496 817 l 432 817 q 331 882 331 817 q 338 919 331 897 q 360 978 344 942 l 426 1139 l 547 1139 z "},"ķ":{"ha":833,"x_min":104,"x_max":829,"o":"m 104 1028 l 306 1028 l 306 407 l 563 710 l 807 710 l 501 371 l 829 0 l 579 0 l 306 322 l 306 0 l 104 0 l 104 1028 m 307 -397 l 357 -86 l 421 -86 q 522 -151 522 -86 q 515 -189 522 -167 q 493 -247 508 -211 l 428 -397 l 307 -397 z "},"ļ":{"ha":833,"x_min":79,"x_max":742,"o":"m 79 150 l 315 150 l 315 878 l 126 878 l 126 1028 l 518 1028 l 518 150 l 742 150 l 742 0 l 79 0 l 79 150 m 294 -397 l 344 -86 l 408 -86 q 510 -151 510 -86 q 503 -189 510 -167 q 481 -247 496 -211 l 415 -397 l 294 -397 z "},"ņ":{"ha":833,"x_min":92,"x_max":750,"o":"m 92 710 l 258 710 l 278 633 q 408 707 343 683 q 544 731 474 731 q 697 678 644 731 q 750 525 750 625 l 750 0 l 547 0 l 547 465 q 446 575 547 575 q 294 528 369 575 l 294 0 l 92 0 l 92 710 m 297 -397 l 347 -86 l 411 -86 q 513 -151 513 -86 q 506 -189 513 -167 q 483 -247 499 -211 l 418 -397 l 297 -397 z "},"ŗ":{"ha":833,"x_min":90,"x_max":761,"o":"m 626 533 q 537 526 582 533 q 456 503 492 518 l 456 150 l 664 150 l 664 0 l 90 0 l 90 150 l 253 150 l 253 560 l 92 560 l 92 710 l 419 710 l 444 604 q 535 684 485 651 q 661 717 586 717 q 719 713 692 717 q 761 703 746 710 l 761 521 q 708 529 742 525 q 626 533 674 533 m 228 -397 l 278 -86 l 342 -86 q 443 -151 443 -86 q 436 -189 443 -167 q 414 -247 429 -211 l 349 -397 l 228 -397 z "},"ș":{"ha":833,"x_min":108,"x_max":724,"o":"m 400 -21 q 231 -2 308 -21 q 108 39 153 17 l 108 178 q 243 145 168 158 q 401 132 318 132 q 505 147 475 132 q 535 193 535 161 q 517 233 535 219 q 446 261 499 247 l 310 296 q 215 332 253 310 q 154 382 176 354 q 123 444 132 410 q 114 517 114 478 q 193 672 114 614 q 422 731 272 731 q 570 715 500 731 q 685 679 640 699 l 685 540 q 626 554 658 547 q 561 566 594 561 q 494 574 528 571 q 429 578 460 578 q 301 517 301 578 q 322 475 301 489 q 399 447 342 461 l 508 419 q 674 340 624 390 q 724 200 724 290 q 700 106 724 147 q 633 37 676 65 q 531 -6 590 8 q 400 -21 472 -21 m 286 -397 l 336 -86 l 400 -86 q 501 -151 501 -86 q 494 -189 501 -167 q 472 -247 488 -211 l 407 -397 l 286 -397 z "},"ț":{"ha":833,"x_min":67,"x_max":718,"o":"m 67 685 l 228 703 l 258 922 l 425 922 l 425 710 l 711 710 l 711 560 l 425 560 l 425 286 q 429 222 425 249 q 445 178 433 196 q 478 153 457 161 q 536 144 500 144 q 631 156 579 144 q 718 181 683 168 l 718 42 q 626 6 686 24 q 468 -11 567 -11 q 280 56 338 -11 q 222 268 222 122 l 222 560 l 67 560 l 67 685 m 363 -397 l 413 -86 l 476 -86 q 578 -151 578 -86 q 571 -189 578 -167 q 549 -247 564 -211 l 483 -397 l 363 -397 z "},"Ą":{"ha":833,"x_min":29,"x_max":818,"o":"m 301 963 l 532 963 l 804 0 l 588 0 l 536 225 l 286 225 l 235 0 l 29 0 l 301 963 m 319 372 l 503 372 l 411 774 l 319 372 m 804 0 q 690 -160 690 -86 q 754 -207 690 -207 q 818 -199 781 -207 l 818 -303 q 710 -321 768 -321 q 582 -288 626 -321 q 538 -194 538 -256 q 701 24 538 -78 l 804 0 z "},"Ę":{"ha":833,"x_min":124,"x_max":747,"o":"m 124 963 l 733 963 l 733 807 l 321 807 l 321 571 l 654 571 l 654 415 l 321 415 l 321 156 l 733 156 l 733 0 l 124 0 l 124 963 m 733 0 q 619 -160 619 -86 q 683 -207 619 -207 q 747 -199 710 -207 l 747 -303 q 639 -321 697 -321 q 511 -288 556 -321 q 467 -194 467 -256 q 631 24 467 -78 l 733 0 z "},"Į":{"ha":833,"x_min":125,"x_max":722,"o":"m 518 807 l 518 156 l 708 156 l 708 0 l 125 0 l 125 156 l 315 156 l 315 807 l 125 807 l 125 963 l 708 963 l 708 807 l 518 807 m 708 0 q 594 -160 594 -86 q 658 -207 594 -207 q 722 -199 685 -207 l 722 -303 q 614 -321 672 -321 q 486 -288 531 -321 q 442 -194 442 -256 q 606 24 442 -78 l 708 0 z "},"Ų":{"ha":833,"x_min":75,"x_max":758,"o":"m 556 963 l 758 963 l 758 343 q 669 69 758 161 q 417 -24 581 -24 q 164 69 253 -24 q 75 344 75 161 l 75 963 l 278 963 l 278 339 q 417 140 278 140 q 556 339 556 140 l 556 963 m 596 17 q 494 -61 531 -15 q 457 -156 457 -107 q 522 -207 457 -207 q 549 -205 535 -207 q 585 -199 563 -203 l 585 -303 q 476 -321 535 -321 q 349 -287 393 -321 q 304 -190 304 -254 q 381 -40 304 -114 q 596 88 457 33 l 596 17 z "},"ç":{"ha":833,"x_min":96,"x_max":726,"o":"m 526 138 q 627 149 571 138 q 726 181 683 161 l 726 46 q 685 24 711 35 q 626 4 658 13 q 556 -10 593 -4 q 481 -15 518 -15 q 190 83 285 -15 q 96 350 96 181 q 124 516 96 446 q 201 633 151 586 q 323 702 251 679 q 482 725 394 725 q 556 719 519 725 q 624 706 592 714 q 681 686 656 697 q 722 665 707 675 l 722 532 q 629 560 683 547 q 519 572 575 572 q 355 524 408 572 q 301 364 301 475 l 301 344 q 356 185 301 232 q 526 138 410 138 m 467 -82 q 565 -111 529 -82 q 601 -189 601 -140 q 560 -303 601 -253 q 426 -401 518 -353 l 353 -335 q 432 -276 404 -306 q 460 -222 460 -247 q 414 -192 460 -192 q 369 -196 399 -192 l 369 -97 q 467 -82 415 -82 z "},"ş":{"ha":833,"x_min":108,"x_max":724,"o":"m 400 -21 q 231 -2 308 -21 q 108 39 153 17 l 108 178 q 243 145 168 158 q 401 132 318 132 q 505 147 475 132 q 535 193 535 161 q 517 233 535 219 q 446 261 499 247 l 310 296 q 215 332 253 310 q 154 382 176 354 q 123 444 132 410 q 114 517 114 478 q 193 672 114 614 q 422 731 272 731 q 570 715 500 731 q 685 679 640 699 l 685 540 q 626 554 658 547 q 561 566 594 561 q 494 574 528 571 q 429 578 460 578 q 301 517 301 578 q 322 475 301 489 q 399 447 342 461 l 508 419 q 674 340 624 390 q 724 200 724 290 q 700 106 724 147 q 633 37 676 65 q 531 -6 590 8 q 400 -21 472 -21 m 388 -82 q 486 -111 450 -82 q 522 -189 522 -140 q 481 -303 522 -253 q 347 -401 439 -353 l 274 -335 q 353 -276 325 -306 q 381 -222 381 -247 q 335 -192 381 -192 q 290 -196 319 -192 l 290 -97 q 388 -82 336 -82 z "},"ţ":{"ha":833,"x_min":67,"x_max":718,"o":"m 67 685 l 228 703 l 258 922 l 425 922 l 425 710 l 711 710 l 711 560 l 425 560 l 425 286 q 429 222 425 249 q 445 178 433 196 q 478 153 457 161 q 536 144 500 144 q 631 156 579 144 q 718 181 683 168 l 718 42 q 626 6 686 24 q 468 -11 567 -11 q 280 56 338 -11 q 222 268 222 122 l 222 560 l 67 560 l 67 685 m 464 -82 q 563 -111 526 -82 q 599 -189 599 -140 q 557 -303 599 -253 q 424 -401 515 -353 l 350 -335 q 429 -276 401 -306 q 457 -222 457 -247 q 411 -192 457 -192 q 367 -196 396 -192 l 367 -97 q 464 -82 413 -82 z "},"Ģ":{"ha":833,"x_min":61,"x_max":761,"o":"m 506 143 q 538 144 521 143 q 575 149 556 146 l 575 388 l 426 388 l 426 543 l 761 543 l 761 54 q 623 1 703 19 q 463 -18 543 -18 q 165 107 269 -18 q 61 471 61 232 q 170 851 61 721 q 486 981 279 981 q 618 966 557 981 q 728 924 679 951 l 728 765 q 612 801 671 789 q 507 813 553 813 q 325 734 381 813 q 269 489 269 656 l 269 464 q 324 217 269 292 q 506 143 379 143 m 342 -397 l 392 -86 l 460 -86 q 561 -150 561 -86 q 554 -186 561 -165 q 531 -247 547 -207 l 465 -397 l 342 -397 z "},"Ķ":{"ha":833,"x_min":103,"x_max":813,"o":"m 103 0 l 103 963 l 306 963 l 306 535 l 565 963 l 788 963 l 486 513 l 813 0 l 575 0 l 306 465 l 306 0 l 103 0 m 311 -397 l 361 -86 l 429 -86 q 531 -150 531 -86 q 524 -186 531 -165 q 500 -247 517 -207 l 435 -397 l 311 -397 z "},"Ļ":{"ha":833,"x_min":118,"x_max":749,"o":"m 118 0 l 118 963 l 321 963 l 321 167 l 749 167 l 749 0 l 118 0 m 307 -397 l 357 -86 l 425 -86 q 526 -150 526 -86 q 519 -186 526 -165 q 496 -247 513 -207 l 431 -397 l 307 -397 z "},"Ņ":{"ha":833,"x_min":82,"x_max":750,"o":"m 263 689 l 263 0 l 82 0 l 82 963 l 299 963 l 569 278 l 569 963 l 750 963 l 750 0 l 536 0 l 263 689 m 292 -397 l 342 -86 l 410 -86 q 511 -150 511 -86 q 504 -186 511 -165 q 481 -247 497 -207 l 415 -397 l 292 -397 z "},"Ŗ":{"ha":833,"x_min":107,"x_max":789,"o":"m 304 360 l 304 0 l 107 0 l 107 963 l 414 963 q 547 941 488 963 q 650 880 607 919 q 716 785 693 840 q 739 660 739 729 q 697 512 739 576 q 583 407 654 447 l 789 0 l 574 0 l 406 360 l 304 360 m 304 504 l 388 504 q 495 542 457 504 q 533 657 533 581 q 497 772 533 732 q 390 813 460 813 l 304 813 l 304 504 m 296 -397 l 346 -86 l 414 -86 q 515 -150 515 -86 q 508 -186 515 -165 q 485 -247 501 -207 l 419 -397 l 296 -397 z "},"Ș":{"ha":833,"x_min":92,"x_max":742,"o":"m 517 554 q 622 502 579 529 q 691 442 664 475 q 730 366 718 408 q 742 269 742 324 q 716 149 742 203 q 642 56 690 94 q 527 -3 594 18 q 376 -24 460 -24 q 227 -8 301 -24 q 100 31 153 7 l 100 186 q 233 152 165 164 q 375 140 300 140 q 495 171 454 140 q 536 260 536 201 q 510 335 536 304 q 408 396 485 365 l 311 435 q 151 539 211 475 q 92 703 92 603 q 115 820 92 768 q 183 909 139 872 q 290 966 228 946 q 431 986 353 986 q 558 972 494 986 q 682 935 621 958 l 682 782 q 558 813 618 803 q 442 822 499 822 q 333 795 371 822 q 294 719 294 768 q 326 647 294 676 q 421 593 358 618 l 517 554 m 260 -397 l 310 -86 l 378 -86 q 479 -150 479 -86 q 472 -186 479 -165 q 449 -247 465 -207 l 383 -397 l 260 -397 z "},"Ț":{"ha":833,"x_min":63,"x_max":771,"o":"m 315 0 l 315 797 l 63 797 l 63 963 l 771 963 l 771 797 l 518 797 l 518 0 l 315 0 m 292 -397 l 342 -86 l 410 -86 q 511 -150 511 -86 q 504 -186 511 -165 q 481 -247 497 -207 l 415 -397 l 292 -397 z "},"ą":{"ha":833,"x_min":94,"x_max":729,"o":"m 321 -22 q 156 36 217 -22 q 94 192 94 94 q 114 285 94 243 q 170 356 133 326 q 258 402 207 386 q 371 418 308 418 q 444 414 408 418 q 525 400 481 410 l 525 469 q 497 557 525 533 q 394 581 469 581 q 276 569 342 581 q 143 538 210 558 l 143 671 q 272 715 194 699 q 431 731 350 731 q 645 674 578 731 q 713 492 713 617 l 713 0 l 553 0 l 536 63 q 433 0 492 22 q 321 -22 375 -22 m 378 114 q 452 128 414 114 q 525 171 490 143 l 525 292 q 467 299 497 296 q 408 301 436 301 q 288 204 288 301 q 311 138 288 161 q 378 114 335 114 m 713 0 q 599 -162 599 -86 q 667 -210 599 -210 q 693 -208 679 -210 q 729 -201 707 -206 l 729 -303 q 621 -321 679 -321 q 493 -288 538 -321 q 449 -194 449 -256 q 613 24 449 -78 l 713 0 z "},"ę":{"ha":833,"x_min":83,"x_max":742,"o":"m 465 -21 q 180 74 276 -21 q 83 356 83 169 q 175 632 83 533 q 440 731 267 731 q 662 656 582 731 q 742 439 742 581 q 738 368 742 407 q 728 306 733 329 l 271 306 q 333 173 282 214 q 496 132 383 132 q 619 142 558 132 q 726 167 679 153 l 726 32 q 617 -6 685 10 q 465 -21 549 -21 m 435 590 q 271 431 292 590 l 567 431 q 567 444 567 438 q 568 457 568 451 q 533 558 568 525 q 435 590 497 590 m 678 13 q 578 -65 614 -19 q 542 -158 542 -110 q 610 -210 542 -210 q 636 -208 622 -210 q 672 -201 650 -206 l 672 -303 q 564 -321 622 -321 q 436 -287 481 -321 q 392 -190 392 -254 q 465 -43 392 -112 q 678 82 539 26 l 678 13 z "},"į":{"ha":833,"x_min":90,"x_max":769,"o":"m 90 150 l 326 150 l 326 560 l 138 560 l 138 710 l 529 710 l 529 150 l 753 150 l 753 0 l 90 0 l 90 150 m 406 794 q 314 826 347 794 q 281 913 281 858 q 314 998 281 967 q 406 1029 347 1029 q 498 998 464 1029 q 532 913 532 967 q 498 826 532 858 q 406 794 464 794 m 753 0 q 639 -162 639 -86 q 707 -210 639 -210 q 733 -208 719 -210 q 769 -201 747 -206 l 769 -303 q 661 -321 719 -321 q 533 -288 578 -321 q 489 -194 489 -256 q 653 24 489 -78 l 753 0 z "},"ų":{"ha":833,"x_min":92,"x_max":753,"o":"m 569 0 l 550 75 q 422 2 485 25 q 292 -21 358 -21 q 144 35 196 -21 q 92 190 92 90 l 92 710 l 294 710 l 294 247 q 392 135 294 135 q 533 179 464 135 l 533 710 l 736 710 l 736 0 l 569 0 m 736 0 q 622 -162 622 -86 q 690 -210 622 -210 q 717 -208 703 -210 q 753 -201 731 -206 l 753 -303 q 644 -321 703 -321 q 517 -288 561 -321 q 472 -194 472 -256 q 636 24 472 -78 l 736 0 z "},"́":{"ha":833,"x_min":242,"x_max":592,"o":"m 242 833 l 375 1068 l 592 1068 l 406 833 l 242 833 z "},"´":{"ha":833,"x_min":242,"x_max":592,"o":"m 242 833 l 375 1068 l 592 1068 l 406 833 l 242 833 z "},"ˊ":{"ha":833,"x_min":242,"x_max":592,"o":"m 242 833 l 375 1068 l 592 1068 l 406 833 l 242 833 z "},"̋":{"ha":833,"x_min":94,"x_max":738,"o":"m 94 833 l 229 1069 l 446 1069 l 258 833 l 94 833 m 386 833 l 521 1069 l 738 1069 l 550 833 l 386 833 z "},"˝":{"ha":833,"x_min":94,"x_max":738,"o":"m 94 833 l 229 1069 l 446 1069 l 258 833 l 94 833 m 386 833 l 521 1069 l 738 1069 l 550 833 l 386 833 z "},"Á":{"ha":833,"x_min":29,"x_max":804,"o":"m 301 963 l 532 963 l 804 0 l 588 0 l 536 225 l 286 225 l 235 0 l 29 0 l 301 963 m 319 372 l 503 372 l 411 774 l 319 372 m 331 1068 l 471 1247 l 685 1247 l 500 1068 l 331 1068 z "},"Ć":{"ha":833,"x_min":68,"x_max":754,"o":"m 276 464 q 340 225 276 304 q 543 146 404 146 q 649 157 592 146 q 751 185 706 168 l 751 31 q 639 -6 699 6 q 515 -18 579 -18 q 180 106 292 -18 q 68 476 68 231 q 185 850 68 719 q 519 981 301 981 q 739 936 638 981 l 739 782 q 648 807 700 797 q 547 817 596 817 q 342 738 407 817 q 276 496 276 658 l 276 464 l 276 464 m 400 1068 l 540 1247 l 754 1247 l 569 1068 l 400 1068 z "},"É":{"ha":833,"x_min":124,"x_max":733,"o":"m 124 963 l 733 963 l 733 807 l 321 807 l 321 571 l 654 571 l 654 415 l 321 415 l 321 156 l 733 156 l 733 0 l 124 0 l 124 963 m 339 1068 l 479 1247 l 693 1247 l 508 1068 l 339 1068 z "},"Í":{"ha":833,"x_min":125,"x_max":708,"o":"m 518 807 l 518 156 l 708 156 l 708 0 l 125 0 l 125 156 l 315 156 l 315 807 l 125 807 l 125 963 l 708 963 l 708 807 l 518 807 m 332 1068 l 472 1247 l 686 1247 l 501 1068 l 332 1068 z "},"Ĺ":{"ha":833,"x_min":118,"x_max":749,"o":"m 118 0 l 118 963 l 321 963 l 321 167 l 749 167 l 749 0 l 118 0 m 135 1068 l 275 1247 l 489 1247 l 304 1068 l 135 1068 z "},"Ń":{"ha":833,"x_min":82,"x_max":750,"o":"m 263 689 l 263 0 l 82 0 l 82 963 l 299 963 l 569 278 l 569 963 l 750 963 l 750 0 l 536 0 l 263 689 m 332 1068 l 472 1247 l 686 1247 l 501 1068 l 332 1068 z "},"Ó":{"ha":833,"x_min":56,"x_max":778,"o":"m 56 482 q 151 858 56 731 q 418 986 246 986 q 682 858 586 986 q 778 482 778 731 q 683 106 778 233 q 415 -22 588 -22 q 151 106 247 -22 q 56 482 56 233 m 264 482 q 301 224 264 306 q 417 142 339 142 q 532 224 494 142 q 569 482 569 306 q 532 740 569 658 q 417 822 494 822 q 301 740 339 822 q 264 482 264 658 m 332 1068 l 472 1247 l 686 1247 l 501 1068 l 332 1068 z "},"Ŕ":{"ha":833,"x_min":107,"x_max":789,"o":"m 304 360 l 304 0 l 107 0 l 107 963 l 414 963 q 547 941 488 963 q 650 880 607 919 q 716 785 693 840 q 739 660 739 729 q 697 512 739 576 q 583 407 654 447 l 789 0 l 574 0 l 406 360 l 304 360 m 304 504 l 388 504 q 495 542 457 504 q 533 657 533 581 q 497 772 533 732 q 390 813 460 813 l 304 813 l 304 504 m 303 1068 l 443 1247 l 657 1247 l 472 1068 l 303 1068 z "},"Ś":{"ha":833,"x_min":92,"x_max":742,"o":"m 517 554 q 622 502 579 529 q 691 442 664 475 q 730 366 718 408 q 742 269 742 324 q 716 149 742 203 q 642 56 690 94 q 527 -3 594 18 q 376 -24 460 -24 q 227 -8 301 -24 q 100 31 153 7 l 100 186 q 233 152 165 164 q 375 140 300 140 q 495 171 454 140 q 536 260 536 201 q 510 335 536 304 q 408 396 485 365 l 311 435 q 151 539 211 475 q 92 703 92 603 q 115 820 92 768 q 183 909 139 872 q 290 966 228 946 q 431 986 353 986 q 558 972 494 986 q 682 935 621 958 l 682 782 q 558 813 618 803 q 442 822 499 822 q 333 795 371 822 q 294 719 294 768 q 326 647 294 676 q 421 593 358 618 l 517 554 m 342 1068 l 482 1247 l 696 1247 l 511 1068 l 342 1068 z "},"Ú":{"ha":833,"x_min":75,"x_max":758,"o":"m 556 963 l 758 963 l 758 343 q 669 69 758 161 q 417 -24 581 -24 q 164 69 253 -24 q 75 344 75 161 l 75 963 l 278 963 l 278 339 q 417 140 278 140 q 556 339 556 140 l 556 963 m 332 1068 l 472 1247 l 686 1247 l 501 1068 l 332 1068 z "},"Ẃ":{"ha":833,"x_min":3,"x_max":831,"o":"m 501 0 l 417 572 l 333 0 l 142 0 l 3 963 l 199 963 l 267 208 l 347 744 l 492 744 l 574 207 l 643 963 l 831 963 l 693 0 l 501 0 m 332 1068 l 472 1247 l 686 1247 l 501 1068 l 332 1068 z "},"Ý":{"ha":833,"x_min":24,"x_max":810,"o":"m 518 353 l 518 0 l 315 0 l 315 350 l 24 963 l 250 963 l 419 503 l 593 963 l 810 963 l 518 353 m 332 1068 l 472 1247 l 686 1247 l 501 1068 l 332 1068 z "},"Ź":{"ha":833,"x_min":67,"x_max":739,"o":"m 67 0 l 67 144 l 524 807 l 99 807 l 99 963 l 739 963 l 739 818 l 282 156 l 738 156 l 738 0 l 67 0 m 342 1068 l 482 1247 l 696 1247 l 511 1068 l 342 1068 z "},"Ǽ":{"ha":833,"x_min":3,"x_max":811,"o":"m 414 225 l 242 225 l 196 0 l 3 0 l 253 963 l 806 963 l 806 807 l 581 807 l 581 571 l 726 571 l 726 415 l 581 415 l 581 156 l 806 156 l 806 0 l 414 0 l 414 225 m 272 372 l 414 372 l 414 814 l 364 814 l 272 372 m 457 1068 l 597 1247 l 811 1247 l 626 1068 l 457 1068 z "},"Ǿ":{"ha":833,"x_min":56,"x_max":778,"o":"m 56 482 q 151 858 56 731 q 418 986 246 986 q 621 921 536 986 l 685 1028 l 771 974 l 692 842 q 756 688 733 778 q 778 482 778 599 q 683 106 778 233 q 415 -22 588 -22 q 213 43 294 -22 l 149 -64 l 63 -10 l 140 121 q 56 482 56 250 m 569 482 q 561 625 569 563 l 310 206 q 417 142 347 142 q 532 224 494 142 q 569 482 569 306 m 264 482 q 265 406 264 442 q 271 339 267 371 l 522 758 q 417 822 485 822 q 301 740 339 822 q 264 482 264 658 m 332 1068 l 472 1247 l 686 1247 l 501 1068 l 332 1068 z "},"Ő":{"ha":833,"x_min":56,"x_max":818,"o":"m 56 482 q 151 858 56 731 q 418 986 246 986 q 682 858 586 986 q 778 482 778 731 q 683 106 778 233 q 415 -22 588 -22 q 151 106 247 -22 q 56 482 56 233 m 264 482 q 301 224 264 306 q 417 142 339 142 q 532 224 494 142 q 569 482 569 306 q 532 740 569 658 q 417 822 494 822 q 301 740 339 822 q 264 482 264 658 m 329 1247 l 543 1247 l 358 1068 l 189 1068 l 329 1247 m 604 1247 l 818 1247 l 633 1068 l 464 1068 l 604 1247 z "},"Ű":{"ha":833,"x_min":75,"x_max":818,"o":"m 556 963 l 758 963 l 758 343 q 669 69 758 161 q 417 -24 581 -24 q 164 69 253 -24 q 75 344 75 161 l 75 963 l 278 963 l 278 339 q 417 140 278 140 q 556 339 556 140 l 556 963 m 329 1247 l 543 1247 l 358 1068 l 189 1068 l 329 1247 m 604 1247 l 818 1247 l 633 1068 l 464 1068 l 604 1247 z "},"á":{"ha":833,"x_min":94,"x_max":713,"o":"m 321 -22 q 156 36 217 -22 q 94 192 94 94 q 114 285 94 243 q 170 356 133 326 q 258 402 207 386 q 371 418 308 418 q 444 414 408 418 q 525 400 481 410 l 525 469 q 497 557 525 533 q 394 581 469 581 q 276 569 342 581 q 143 538 210 558 l 143 671 q 272 715 194 699 q 431 731 350 731 q 645 674 578 731 q 713 492 713 617 l 713 0 l 553 0 l 536 63 q 433 0 492 22 q 321 -22 375 -22 m 378 114 q 452 128 414 114 q 525 171 490 143 l 525 292 q 467 299 497 296 q 408 301 436 301 q 288 204 288 301 q 311 138 288 161 q 378 114 335 114 m 344 833 l 478 1068 l 694 1068 l 508 833 l 344 833 z "},"ć":{"ha":833,"x_min":96,"x_max":728,"o":"m 526 138 q 627 149 571 138 q 726 181 683 161 l 726 46 q 685 24 711 35 q 626 4 658 13 q 556 -10 593 -4 q 481 -15 518 -15 q 190 83 285 -15 q 96 350 96 181 q 124 516 96 446 q 201 633 151 586 q 323 702 251 679 q 482 725 394 725 q 556 719 519 725 q 624 706 592 714 q 681 686 656 697 q 722 665 707 675 l 722 532 q 629 560 683 547 q 519 572 575 572 q 355 524 408 572 q 301 364 301 475 l 301 344 q 356 185 301 232 q 526 138 410 138 m 378 833 l 511 1068 l 728 1068 l 542 833 l 378 833 z "},"é":{"ha":833,"x_min":83,"x_max":742,"o":"m 465 -21 q 180 74 276 -21 q 83 356 83 169 q 175 632 83 533 q 440 731 267 731 q 662 656 582 731 q 742 439 742 581 q 738 368 742 407 q 728 306 733 329 l 271 306 q 333 173 282 214 q 496 132 383 132 q 619 142 558 132 q 726 167 679 153 l 726 32 q 617 -6 685 10 q 465 -21 549 -21 m 435 590 q 271 431 292 590 l 567 431 q 567 444 567 438 q 568 457 568 451 q 533 558 568 525 q 435 590 497 590 m 339 833 l 472 1068 l 689 1068 l 503 833 l 339 833 z "},"í":{"ha":833,"x_min":90,"x_max":753,"o":"m 90 150 l 326 150 l 326 560 l 138 560 l 138 710 l 529 710 l 529 150 l 753 150 l 753 0 l 90 0 l 90 150 m 286 833 l 419 1068 l 636 1068 l 450 833 l 286 833 z "},"ĺ":{"ha":833,"x_min":79,"x_max":742,"o":"m 79 150 l 315 150 l 315 878 l 126 878 l 126 1028 l 518 1028 l 518 150 l 742 150 l 742 0 l 79 0 l 79 150 m 332 1096 l 472 1275 l 686 1275 l 501 1096 l 332 1096 z "},"ń":{"ha":833,"x_min":92,"x_max":750,"o":"m 92 710 l 258 710 l 278 633 q 408 707 343 683 q 544 731 474 731 q 697 678 644 731 q 750 525 750 625 l 750 0 l 547 0 l 547 465 q 446 575 547 575 q 294 528 369 575 l 294 0 l 92 0 l 92 710 m 356 833 l 489 1068 l 706 1068 l 519 833 l 356 833 z "},"ó":{"ha":833,"x_min":65,"x_max":768,"o":"m 417 -21 q 270 4 335 -21 q 160 77 206 29 q 90 195 114 125 q 65 356 65 265 q 160 633 65 535 q 417 731 254 731 q 674 633 579 731 q 768 356 768 535 q 744 195 768 265 q 674 77 719 125 q 563 4 628 29 q 417 -21 497 -21 m 417 135 q 524 186 486 135 q 563 356 563 238 q 524 524 563 472 q 417 575 486 575 q 309 524 347 575 q 271 356 271 472 q 309 186 271 238 q 417 135 347 135 m 335 833 l 468 1068 l 685 1068 l 499 833 l 335 833 z "},"ŕ":{"ha":833,"x_min":90,"x_max":761,"o":"m 626 533 q 537 526 582 533 q 456 503 492 518 l 456 150 l 664 150 l 664 0 l 90 0 l 90 150 l 253 150 l 253 560 l 92 560 l 92 710 l 419 710 l 444 604 q 535 684 485 651 q 661 717 586 717 q 719 713 692 717 q 761 703 746 710 l 761 521 q 708 529 742 525 q 626 533 674 533 m 363 833 l 496 1068 l 713 1068 l 526 833 l 363 833 z "},"ś":{"ha":833,"x_min":108,"x_max":724,"o":"m 400 -21 q 231 -2 308 -21 q 108 39 153 17 l 108 178 q 243 145 168 158 q 401 132 318 132 q 505 147 475 132 q 535 193 535 161 q 517 233 535 219 q 446 261 499 247 l 310 296 q 215 332 253 310 q 154 382 176 354 q 123 444 132 410 q 114 517 114 478 q 193 672 114 614 q 422 731 272 731 q 570 715 500 731 q 685 679 640 699 l 685 540 q 626 554 658 547 q 561 566 594 561 q 494 574 528 571 q 429 578 460 578 q 301 517 301 578 q 322 475 301 489 q 399 447 342 461 l 508 419 q 674 340 624 390 q 724 200 724 290 q 700 106 724 147 q 633 37 676 65 q 531 -6 590 8 q 400 -21 472 -21 m 332 833 l 465 1068 l 682 1068 l 496 833 l 332 833 z "},"ú":{"ha":833,"x_min":92,"x_max":736,"o":"m 569 0 l 550 75 q 422 2 485 25 q 292 -21 358 -21 q 144 35 196 -21 q 92 190 92 90 l 92 710 l 294 710 l 294 247 q 392 135 294 135 q 533 179 464 135 l 533 710 l 736 710 l 736 0 l 569 0 m 335 833 l 468 1068 l 685 1068 l 499 833 l 335 833 z "},"ẃ":{"ha":833,"x_min":14,"x_max":819,"o":"m 492 0 l 415 411 l 340 0 l 157 0 l 14 710 l 206 710 l 272 161 l 346 571 l 494 571 l 565 167 l 635 710 l 819 710 l 674 0 l 492 0 m 335 833 l 468 1068 l 685 1068 l 499 833 l 335 833 z "},"ý":{"ha":833,"x_min":38,"x_max":797,"o":"m 182 -147 q 272 -120 240 -147 q 326 -26 304 -93 l 331 -12 l 38 710 l 253 710 l 424 174 l 588 710 l 797 710 l 483 -96 q 384 -253 440 -204 q 238 -303 328 -303 q 103 -281 168 -303 l 103 -143 q 142 -147 125 -146 q 182 -147 158 -147 m 335 833 l 468 1068 l 685 1068 l 499 833 l 335 833 z "},"ź":{"ha":833,"x_min":99,"x_max":739,"o":"m 99 144 l 500 560 l 113 560 l 113 710 l 732 710 l 732 565 l 329 150 l 739 150 l 739 0 l 99 0 l 99 144 m 340 833 l 474 1068 l 690 1068 l 504 833 l 340 833 z "},"ǽ":{"ha":833,"x_min":24,"x_max":810,"o":"m 607 -21 q 419 60 486 -21 q 333 0 382 22 q 228 -22 285 -22 q 78 35 132 -22 q 24 193 24 93 q 81 361 24 297 q 267 425 139 425 q 342 417 304 425 l 342 453 q 315 562 342 532 q 226 592 289 592 q 140 581 181 592 q 64 551 99 569 l 64 678 q 150 716 97 701 q 253 731 203 731 q 432 650 385 731 q 504 711 461 692 q 593 731 547 731 q 753 661 697 731 q 810 439 810 592 q 806 367 810 408 q 796 299 803 326 l 485 299 q 533 162 492 203 q 643 121 574 121 q 718 130 676 121 q 797 154 760 139 l 797 28 q 706 -8 758 4 q 607 -21 653 -21 m 276 113 q 322 121 300 113 q 369 151 343 129 q 342 311 346 221 q 325 313 333 313 q 308 313 317 313 q 226 290 249 313 q 203 211 203 267 q 222 140 203 168 q 276 113 240 113 m 581 601 q 514 560 540 601 q 485 418 488 519 l 649 418 q 650 440 650 431 q 650 458 650 449 q 645 528 650 500 q 631 572 640 556 q 608 595 621 589 q 581 601 596 601 m 342 833 l 475 1068 l 692 1068 l 506 833 l 342 833 z "},"ǿ":{"ha":833,"x_min":65,"x_max":768,"o":"m 78 14 l 143 96 q 65 356 65 190 q 160 633 65 535 q 417 731 254 731 q 610 682 529 731 l 674 763 l 756 696 l 690 614 q 748 501 728 565 q 768 356 768 438 q 744 195 768 265 q 674 77 719 125 q 563 4 628 29 q 417 -21 497 -21 q 222 26 306 -21 l 160 -53 l 78 14 m 271 356 q 273 307 271 329 q 278 265 275 285 l 501 547 q 417 575 469 575 q 309 524 347 575 q 271 356 271 472 m 417 135 q 524 186 486 135 q 563 356 563 238 q 554 443 563 406 l 331 163 q 417 135 364 135 m 335 833 l 468 1068 l 685 1068 l 499 833 l 335 833 z "},"ő":{"ha":833,"x_min":65,"x_max":840,"o":"m 417 -21 q 270 4 335 -21 q 160 77 206 29 q 90 195 114 125 q 65 356 65 265 q 160 633 65 535 q 417 731 254 731 q 674 633 579 731 q 768 356 768 535 q 744 195 768 265 q 674 77 719 125 q 563 4 628 29 q 417 -21 497 -21 m 417 135 q 524 186 486 135 q 563 356 563 238 q 524 524 563 472 q 417 575 486 575 q 309 524 347 575 q 271 356 271 472 q 309 186 271 238 q 417 135 347 135 m 197 833 l 332 1069 l 549 1069 l 361 833 l 197 833 m 489 833 l 624 1069 l 840 1069 l 653 833 l 489 833 z "},"ű":{"ha":833,"x_min":92,"x_max":840,"o":"m 569 0 l 550 75 q 422 2 485 25 q 292 -21 358 -21 q 144 35 196 -21 q 92 190 92 90 l 92 710 l 294 710 l 294 247 q 392 135 294 135 q 533 179 464 135 l 533 710 l 736 710 l 736 0 l 569 0 m 197 833 l 332 1069 l 549 1069 l 361 833 l 197 833 m 489 833 l 624 1069 l 840 1069 l 653 833 l 489 833 z "},"̀":{"ha":833,"x_min":242,"x_max":592,"o":"m 428 833 l 242 1068 l 458 1068 l 592 833 l 428 833 z "},"`":{"ha":833,"x_min":242,"x_max":592,"o":"m 428 833 l 242 1068 l 458 1068 l 592 833 l 428 833 z "},"ˋ":{"ha":833,"x_min":242,"x_max":592,"o":"m 428 833 l 242 1068 l 458 1068 l 592 833 l 428 833 z "},"À":{"ha":833,"x_min":29,"x_max":804,"o":"m 301 963 l 532 963 l 804 0 l 588 0 l 536 225 l 286 225 l 235 0 l 29 0 l 301 963 m 319 372 l 503 372 l 411 774 l 319 372 m 331 1068 l 146 1247 l 360 1247 l 500 1068 l 331 1068 z "},"È":{"ha":833,"x_min":124,"x_max":733,"o":"m 124 963 l 733 963 l 733 807 l 321 807 l 321 571 l 654 571 l 654 415 l 321 415 l 321 156 l 733 156 l 733 0 l 124 0 l 124 963 m 339 1068 l 154 1247 l 368 1247 l 508 1068 l 339 1068 z "},"Ì":{"ha":833,"x_min":125,"x_max":708,"o":"m 518 807 l 518 156 l 708 156 l 708 0 l 125 0 l 125 156 l 315 156 l 315 807 l 125 807 l 125 963 l 708 963 l 708 807 l 518 807 m 332 1068 l 147 1247 l 361 1247 l 501 1068 l 332 1068 z "},"Ò":{"ha":833,"x_min":56,"x_max":778,"o":"m 56 482 q 151 858 56 731 q 418 986 246 986 q 682 858 586 986 q 778 482 778 731 q 683 106 778 233 q 415 -22 588 -22 q 151 106 247 -22 q 56 482 56 233 m 264 482 q 301 224 264 306 q 417 142 339 142 q 532 224 494 142 q 569 482 569 306 q 532 740 569 658 q 417 822 494 822 q 301 740 339 822 q 264 482 264 658 m 332 1068 l 147 1247 l 361 1247 l 501 1068 l 332 1068 z "},"Ù":{"ha":833,"x_min":75,"x_max":758,"o":"m 556 963 l 758 963 l 758 343 q 669 69 758 161 q 417 -24 581 -24 q 164 69 253 -24 q 75 344 75 161 l 75 963 l 278 963 l 278 339 q 417 140 278 140 q 556 339 556 140 l 556 963 m 332 1068 l 147 1247 l 361 1247 l 501 1068 l 332 1068 z "},"Ẁ":{"ha":833,"x_min":3,"x_max":831,"o":"m 501 0 l 417 572 l 333 0 l 142 0 l 3 963 l 199 963 l 267 208 l 347 744 l 492 744 l 574 207 l 643 963 l 831 963 l 693 0 l 501 0 m 332 1068 l 147 1247 l 361 1247 l 501 1068 l 332 1068 z "},"Ỳ":{"ha":833,"x_min":24,"x_max":810,"o":"m 518 353 l 518 0 l 315 0 l 315 350 l 24 963 l 250 963 l 419 503 l 593 963 l 810 963 l 518 353 m 332 1068 l 147 1247 l 361 1247 l 501 1068 l 332 1068 z "},"à":{"ha":833,"x_min":94,"x_max":713,"o":"m 321 -22 q 156 36 217 -22 q 94 192 94 94 q 114 285 94 243 q 170 356 133 326 q 258 402 207 386 q 371 418 308 418 q 444 414 408 418 q 525 400 481 410 l 525 469 q 497 557 525 533 q 394 581 469 581 q 276 569 342 581 q 143 538 210 558 l 143 671 q 272 715 194 699 q 431 731 350 731 q 645 674 578 731 q 713 492 713 617 l 713 0 l 553 0 l 536 63 q 433 0 492 22 q 321 -22 375 -22 m 378 114 q 452 128 414 114 q 525 171 490 143 l 525 292 q 467 299 497 296 q 408 301 436 301 q 288 204 288 301 q 311 138 288 161 q 378 114 335 114 m 344 833 l 158 1068 l 375 1068 l 508 833 l 344 833 z "},"è":{"ha":833,"x_min":83,"x_max":742,"o":"m 465 -21 q 180 74 276 -21 q 83 356 83 169 q 175 632 83 533 q 440 731 267 731 q 662 656 582 731 q 742 439 742 581 q 738 368 742 407 q 728 306 733 329 l 271 306 q 333 173 282 214 q 496 132 383 132 q 619 142 558 132 q 726 167 679 153 l 726 32 q 617 -6 685 10 q 465 -21 549 -21 m 435 590 q 271 431 292 590 l 567 431 q 567 444 567 438 q 568 457 568 451 q 533 558 568 525 q 435 590 497 590 m 339 833 l 153 1068 l 369 1068 l 503 833 l 339 833 z "},"ì":{"ha":833,"x_min":90,"x_max":753,"o":"m 90 150 l 326 150 l 326 560 l 138 560 l 138 710 l 529 710 l 529 150 l 753 150 l 753 0 l 90 0 l 90 150 m 286 833 l 100 1068 l 317 1068 l 450 833 l 286 833 z "},"ò":{"ha":833,"x_min":65,"x_max":768,"o":"m 417 -21 q 270 4 335 -21 q 160 77 206 29 q 90 195 114 125 q 65 356 65 265 q 160 633 65 535 q 417 731 254 731 q 674 633 579 731 q 768 356 768 535 q 744 195 768 265 q 674 77 719 125 q 563 4 628 29 q 417 -21 497 -21 m 417 135 q 524 186 486 135 q 563 356 563 238 q 524 524 563 472 q 417 575 486 575 q 309 524 347 575 q 271 356 271 472 q 309 186 271 238 q 417 135 347 135 m 335 833 l 149 1068 l 365 1068 l 499 833 l 335 833 z "},"ù":{"ha":833,"x_min":92,"x_max":736,"o":"m 569 0 l 550 75 q 422 2 485 25 q 292 -21 358 -21 q 144 35 196 -21 q 92 190 92 90 l 92 710 l 294 710 l 294 247 q 392 135 294 135 q 533 179 464 135 l 533 710 l 736 710 l 736 0 l 569 0 m 335 833 l 149 1068 l 365 1068 l 499 833 l 335 833 z "},"ẁ":{"ha":833,"x_min":14,"x_max":819,"o":"m 492 0 l 415 411 l 340 0 l 157 0 l 14 710 l 206 710 l 272 161 l 346 571 l 494 571 l 565 167 l 635 710 l 819 710 l 674 0 l 492 0 m 335 833 l 149 1068 l 365 1068 l 499 833 l 335 833 z "},"ỳ":{"ha":833,"x_min":38,"x_max":797,"o":"m 182 -147 q 272 -120 240 -147 q 326 -26 304 -93 l 331 -12 l 38 710 l 253 710 l 424 174 l 588 710 l 797 710 l 483 -96 q 384 -253 440 -204 q 238 -303 328 -303 q 103 -281 168 -303 l 103 -143 q 142 -147 125 -146 q 182 -147 158 -147 m 335 833 l 149 1068 l 365 1068 l 499 833 l 335 833 z "},"̂":{"ha":833,"x_min":140,"x_max":693,"o":"m 535 833 l 417 969 l 299 833 l 140 833 l 317 1069 l 517 1069 l 693 833 l 535 833 z "},"ˆ":{"ha":833,"x_min":140,"x_max":693,"o":"m 535 833 l 417 969 l 299 833 l 140 833 l 317 1069 l 517 1069 l 693 833 l 535 833 z "},"̃":{"ha":833,"x_min":168,"x_max":665,"o":"m 514 933 q 547 976 544 933 l 550 1024 l 661 1024 q 665 996 664 1006 q 665 969 665 986 q 625 865 665 904 q 515 826 585 826 q 385 879 439 826 q 344 914 356 907 q 319 921 333 921 q 286 878 289 921 l 283 831 l 172 831 q 169 858 169 847 q 168 885 168 869 q 208 989 168 950 q 318 1028 249 1028 q 449 975 394 1028 q 489 940 478 947 q 514 933 500 933 z "},"˜":{"ha":833,"x_min":168,"x_max":665,"o":"m 514 933 q 547 976 544 933 l 550 1024 l 661 1024 q 665 996 664 1006 q 665 969 665 986 q 625 865 665 904 q 515 826 585 826 q 385 879 439 826 q 344 914 356 907 q 319 921 333 921 q 286 878 289 921 l 283 831 l 172 831 q 169 858 169 847 q 168 885 168 869 q 208 989 168 950 q 318 1028 249 1028 q 449 975 394 1028 q 489 940 478 947 q 514 933 500 933 z "},"Â":{"ha":833,"x_min":29,"x_max":804,"o":"m 301 963 l 532 963 l 804 0 l 588 0 l 536 225 l 286 225 l 235 0 l 29 0 l 301 963 m 319 372 l 503 372 l 411 774 l 319 372 m 519 1068 l 414 1172 l 308 1068 l 131 1068 l 311 1264 l 517 1264 l 697 1068 l 519 1068 z "},"Ĉ":{"ha":833,"x_min":68,"x_max":767,"o":"m 276 464 q 340 225 276 304 q 543 146 404 146 q 649 157 592 146 q 751 185 706 168 l 751 31 q 639 -6 699 6 q 515 -18 579 -18 q 180 106 292 -18 q 68 476 68 231 q 185 850 68 719 q 519 981 301 981 q 739 936 638 981 l 739 782 q 648 807 700 797 q 547 817 596 817 q 342 738 407 817 q 276 496 276 658 l 276 464 l 276 464 m 589 1068 l 483 1172 l 378 1068 l 200 1068 l 381 1264 l 586 1264 l 767 1068 l 589 1068 z "},"Ê":{"ha":833,"x_min":124,"x_max":733,"o":"m 124 963 l 733 963 l 733 807 l 321 807 l 321 571 l 654 571 l 654 415 l 321 415 l 321 156 l 733 156 l 733 0 l 124 0 l 124 963 m 528 1068 l 422 1172 l 317 1068 l 139 1068 l 319 1264 l 525 1264 l 706 1068 l 528 1068 z "},"Ĝ":{"ha":833,"x_min":61,"x_max":761,"o":"m 506 143 q 538 144 521 143 q 575 149 556 146 l 575 388 l 426 388 l 426 543 l 761 543 l 761 54 q 623 1 703 19 q 463 -18 543 -18 q 165 107 269 -18 q 61 471 61 232 q 170 851 61 721 q 486 981 279 981 q 618 966 557 981 q 728 924 679 951 l 728 765 q 612 801 671 789 q 507 813 553 813 q 325 734 381 813 q 269 489 269 656 l 269 464 q 324 217 269 292 q 506 143 379 143 m 568 1068 l 463 1172 l 357 1068 l 179 1068 l 360 1264 l 565 1264 l 746 1068 l 568 1068 z "},"Ĥ":{"ha":833,"x_min":88,"x_max":746,"o":"m 88 963 l 290 963 l 290 568 l 543 568 l 543 963 l 746 963 l 746 0 l 543 0 l 543 413 l 290 413 l 290 0 l 88 0 l 88 963 m 521 1068 l 415 1172 l 310 1068 l 132 1068 l 313 1264 l 518 1264 l 699 1068 l 521 1068 z "},"Î":{"ha":833,"x_min":125,"x_max":708,"o":"m 518 807 l 518 156 l 708 156 l 708 0 l 125 0 l 125 156 l 315 156 l 315 807 l 125 807 l 125 963 l 708 963 l 708 807 l 518 807 m 521 1068 l 415 1172 l 310 1068 l 132 1068 l 313 1264 l 518 1264 l 699 1068 l 521 1068 z "},"Ĵ":{"ha":833,"x_min":76,"x_max":710,"o":"m 317 140 q 382 149 354 140 q 429 176 410 157 q 458 228 449 196 q 468 310 468 261 l 468 807 l 168 807 l 168 963 l 671 963 l 671 303 q 649 152 671 214 q 584 51 628 90 q 476 -6 540 13 q 324 -24 411 -24 q 243 -18 282 -24 q 172 -4 204 -12 q 115 13 139 4 q 76 31 90 22 l 76 185 q 183 155 117 169 q 317 140 250 140 m 532 1068 l 426 1172 l 321 1068 l 143 1068 l 324 1264 l 529 1264 l 710 1068 l 532 1068 z "},"Ô":{"ha":833,"x_min":56,"x_max":778,"o":"m 56 482 q 151 858 56 731 q 418 986 246 986 q 682 858 586 986 q 778 482 778 731 q 683 106 778 233 q 415 -22 588 -22 q 151 106 247 -22 q 56 482 56 233 m 264 482 q 301 224 264 306 q 417 142 339 142 q 532 224 494 142 q 569 482 569 306 q 532 740 569 658 q 417 822 494 822 q 301 740 339 822 q 264 482 264 658 m 521 1068 l 415 1172 l 310 1068 l 132 1068 l 313 1264 l 518 1264 l 699 1068 l 521 1068 z "},"Ŝ":{"ha":833,"x_min":92,"x_max":742,"o":"m 517 554 q 622 502 579 529 q 691 442 664 475 q 730 366 718 408 q 742 269 742 324 q 716 149 742 203 q 642 56 690 94 q 527 -3 594 18 q 376 -24 460 -24 q 227 -8 301 -24 q 100 31 153 7 l 100 186 q 233 152 165 164 q 375 140 300 140 q 495 171 454 140 q 536 260 536 201 q 510 335 536 304 q 408 396 485 365 l 311 435 q 151 539 211 475 q 92 703 92 603 q 115 820 92 768 q 183 909 139 872 q 290 966 228 946 q 431 986 353 986 q 558 972 494 986 q 682 935 621 958 l 682 782 q 558 813 618 803 q 442 822 499 822 q 333 795 371 822 q 294 719 294 768 q 326 647 294 676 q 421 593 358 618 l 517 554 m 521 1068 l 415 1172 l 310 1068 l 132 1068 l 313 1264 l 518 1264 l 699 1068 l 521 1068 z "},"Û":{"ha":833,"x_min":75,"x_max":758,"o":"m 556 963 l 758 963 l 758 343 q 669 69 758 161 q 417 -24 581 -24 q 164 69 253 -24 q 75 344 75 161 l 75 963 l 278 963 l 278 339 q 417 140 278 140 q 556 339 556 140 l 556 963 m 521 1068 l 415 1172 l 310 1068 l 132 1068 l 313 1264 l 518 1264 l 699 1068 l 521 1068 z "},"Ŵ":{"ha":833,"x_min":3,"x_max":831,"o":"m 501 0 l 417 572 l 333 0 l 142 0 l 3 963 l 199 963 l 267 208 l 347 744 l 492 744 l 574 207 l 643 963 l 831 963 l 693 0 l 501 0 m 521 1068 l 415 1172 l 310 1068 l 132 1068 l 313 1264 l 518 1264 l 699 1068 l 521 1068 z "},"Ŷ":{"ha":833,"x_min":24,"x_max":810,"o":"m 518 353 l 518 0 l 315 0 l 315 350 l 24 963 l 250 963 l 419 503 l 593 963 l 810 963 l 518 353 m 521 1068 l 415 1172 l 310 1068 l 132 1068 l 313 1264 l 518 1264 l 699 1068 l 521 1068 z "},"Ã":{"ha":833,"x_min":29,"x_max":804,"o":"m 301 963 l 532 963 l 804 0 l 588 0 l 536 225 l 286 225 l 235 0 l 29 0 l 301 963 m 319 372 l 503 372 l 411 774 l 319 372 m 513 1171 q 544 1211 543 1171 l 547 1258 l 660 1258 q 663 1228 663 1238 q 664 1204 664 1218 q 624 1100 664 1139 q 514 1061 583 1061 q 442 1073 474 1061 q 383 1113 411 1085 q 344 1146 356 1139 q 318 1153 332 1153 q 286 1113 288 1153 l 283 1065 l 171 1065 q 167 1097 168 1086 q 167 1119 167 1107 q 207 1224 167 1185 q 317 1263 247 1263 q 388 1251 357 1263 q 447 1211 419 1239 q 487 1178 475 1185 q 513 1171 499 1171 z "},"Ĩ":{"ha":833,"x_min":125,"x_max":708,"o":"m 518 807 l 518 156 l 708 156 l 708 0 l 125 0 l 125 156 l 315 156 l 315 807 l 125 807 l 125 963 l 708 963 l 708 807 l 518 807 m 514 1171 q 546 1211 544 1171 l 549 1258 l 661 1258 q 665 1228 664 1238 q 665 1204 665 1218 q 625 1100 665 1139 q 515 1061 585 1061 q 444 1073 475 1061 q 385 1113 413 1085 q 345 1146 357 1139 q 319 1153 333 1153 q 288 1113 289 1153 l 285 1065 l 172 1065 q 169 1097 169 1086 q 168 1119 168 1107 q 208 1224 168 1185 q 318 1263 249 1263 q 390 1251 358 1263 q 449 1211 421 1239 q 488 1178 476 1185 q 514 1171 500 1171 z "},"Ñ":{"ha":833,"x_min":82,"x_max":750,"o":"m 263 689 l 263 0 l 82 0 l 82 963 l 299 963 l 569 278 l 569 963 l 750 963 l 750 0 l 536 0 l 263 689 m 514 1171 q 546 1211 544 1171 l 549 1258 l 661 1258 q 665 1228 664 1238 q 665 1204 665 1218 q 625 1100 665 1139 q 515 1061 585 1061 q 444 1073 475 1061 q 385 1113 413 1085 q 345 1146 357 1139 q 319 1153 333 1153 q 288 1113 289 1153 l 285 1065 l 172 1065 q 169 1097 169 1086 q 168 1119 168 1107 q 208 1224 168 1185 q 318 1263 249 1263 q 390 1251 358 1263 q 449 1211 421 1239 q 488 1178 476 1185 q 514 1171 500 1171 z "},"Õ":{"ha":833,"x_min":56,"x_max":778,"o":"m 56 482 q 151 858 56 731 q 418 986 246 986 q 682 858 586 986 q 778 482 778 731 q 683 106 778 233 q 415 -22 588 -22 q 151 106 247 -22 q 56 482 56 233 m 264 482 q 301 224 264 306 q 417 142 339 142 q 532 224 494 142 q 569 482 569 306 q 532 740 569 658 q 417 822 494 822 q 301 740 339 822 q 264 482 264 658 m 514 1171 q 546 1211 544 1171 l 549 1258 l 661 1258 q 665 1228 664 1238 q 665 1204 665 1218 q 625 1100 665 1139 q 515 1061 585 1061 q 444 1073 475 1061 q 385 1113 413 1085 q 345 1146 357 1139 q 319 1153 333 1153 q 288 1113 289 1153 l 285 1065 l 172 1065 q 169 1097 169 1086 q 168 1119 168 1107 q 208 1224 168 1185 q 318 1263 249 1263 q 390 1251 358 1263 q 449 1211 421 1239 q 488 1178 476 1185 q 514 1171 500 1171 z "},"Ũ":{"ha":833,"x_min":75,"x_max":758,"o":"m 556 963 l 758 963 l 758 343 q 669 69 758 161 q 417 -24 581 -24 q 164 69 253 -24 q 75 344 75 161 l 75 963 l 278 963 l 278 339 q 417 140 278 140 q 556 339 556 140 l 556 963 m 514 1171 q 546 1211 544 1171 l 549 1258 l 661 1258 q 665 1228 664 1238 q 665 1204 665 1218 q 625 1100 665 1139 q 515 1061 585 1061 q 444 1073 475 1061 q 385 1113 413 1085 q 345 1146 357 1139 q 319 1153 333 1153 q 288 1113 289 1153 l 285 1065 l 172 1065 q 169 1097 169 1086 q 168 1119 168 1107 q 208 1224 168 1185 q 318 1263 249 1263 q 390 1251 358 1263 q 449 1211 421 1239 q 488 1178 476 1185 q 514 1171 500 1171 z "},"â":{"ha":833,"x_min":94,"x_max":713,"o":"m 321 -22 q 156 36 217 -22 q 94 192 94 94 q 114 285 94 243 q 170 356 133 326 q 258 402 207 386 q 371 418 308 418 q 444 414 408 418 q 525 400 481 410 l 525 469 q 497 557 525 533 q 394 581 469 581 q 276 569 342 581 q 143 538 210 558 l 143 671 q 272 715 194 699 q 431 731 350 731 q 645 674 578 731 q 713 492 713 617 l 713 0 l 553 0 l 536 63 q 433 0 492 22 q 321 -22 375 -22 m 378 114 q 452 128 414 114 q 525 171 490 143 l 525 292 q 467 299 497 296 q 408 301 436 301 q 288 204 288 301 q 311 138 288 161 q 378 114 335 114 m 544 833 l 426 969 l 308 833 l 150 833 l 326 1069 l 526 1069 l 703 833 l 544 833 z "},"ĉ":{"ha":833,"x_min":96,"x_max":736,"o":"m 526 138 q 627 149 571 138 q 726 181 683 161 l 726 46 q 685 24 711 35 q 626 4 658 13 q 556 -10 593 -4 q 481 -15 518 -15 q 190 83 285 -15 q 96 350 96 181 q 124 516 96 446 q 201 633 151 586 q 323 702 251 679 q 482 725 394 725 q 556 719 519 725 q 624 706 592 714 q 681 686 656 697 q 722 665 707 675 l 722 532 q 629 560 683 547 q 519 572 575 572 q 355 524 408 572 q 301 364 301 475 l 301 344 q 356 185 301 232 q 526 138 410 138 m 578 833 l 460 969 l 342 833 l 183 833 l 360 1069 l 560 1069 l 736 833 l 578 833 z "},"ê":{"ha":833,"x_min":83,"x_max":742,"o":"m 465 -21 q 180 74 276 -21 q 83 356 83 169 q 175 632 83 533 q 440 731 267 731 q 662 656 582 731 q 742 439 742 581 q 738 368 742 407 q 728 306 733 329 l 271 306 q 333 173 282 214 q 496 132 383 132 q 619 142 558 132 q 726 167 679 153 l 726 32 q 617 -6 685 10 q 465 -21 549 -21 m 435 590 q 271 431 292 590 l 567 431 q 567 444 567 438 q 568 457 568 451 q 533 558 568 525 q 435 590 497 590 m 539 833 l 421 969 l 303 833 l 144 833 l 321 1069 l 521 1069 l 697 833 l 539 833 z "},"ĝ":{"ha":833,"x_min":67,"x_max":736,"o":"m 536 86 q 350 15 457 15 q 233 40 285 15 q 144 112 181 65 q 87 224 107 158 q 67 369 67 289 q 87 518 67 451 q 144 632 107 585 q 235 705 182 679 q 353 731 288 731 q 463 710 411 731 q 554 649 514 689 l 569 710 l 736 710 l 736 56 q 642 -208 736 -114 q 381 -303 549 -303 q 249 -289 310 -303 q 125 -243 189 -275 l 125 -107 q 251 -139 192 -128 q 363 -150 311 -150 q 495 -108 454 -150 q 536 31 536 -65 l 536 86 m 413 165 q 477 176 444 165 q 536 204 510 186 l 536 546 q 403 581 479 581 q 269 375 269 581 q 304 216 269 267 q 413 165 339 165 m 539 833 l 421 969 l 303 833 l 144 833 l 321 1069 l 521 1069 l 697 833 l 539 833 z "},"ĥ":{"ha":833,"x_min":-96,"x_max":746,"o":"m 88 1028 l 290 1028 l 290 646 q 540 731 410 731 q 693 678 640 731 q 746 525 746 625 l 746 0 l 543 0 l 543 465 q 442 575 543 575 q 290 528 365 575 l 290 0 l 88 0 l 88 1028 m 293 1096 l 188 1200 l 82 1096 l -96 1096 l 85 1292 l 290 1292 l 471 1096 l 293 1096 z "},"î":{"ha":833,"x_min":90,"x_max":753,"o":"m 90 150 l 326 150 l 326 560 l 138 560 l 138 710 l 529 710 l 529 150 l 753 150 l 753 0 l 90 0 l 90 150 m 486 833 l 368 969 l 250 833 l 92 833 l 268 1069 l 468 1069 l 644 833 l 486 833 z "},"ĵ":{"ha":833,"x_min":74,"x_max":694,"o":"m 261 -147 q 365 -118 332 -147 q 399 -14 399 -89 l 399 560 l 149 560 l 149 710 l 601 710 l 601 -10 q 529 -232 601 -161 q 310 -303 457 -303 q 176 -290 233 -303 q 74 -256 118 -278 l 74 -118 q 161 -139 114 -131 q 261 -147 208 -147 m 536 833 l 418 969 l 300 833 l 142 833 l 318 1069 l 518 1069 l 694 833 l 536 833 z "},"ô":{"ha":833,"x_min":65,"x_max":768,"o":"m 417 -21 q 270 4 335 -21 q 160 77 206 29 q 90 195 114 125 q 65 356 65 265 q 160 633 65 535 q 417 731 254 731 q 674 633 579 731 q 768 356 768 535 q 744 195 768 265 q 674 77 719 125 q 563 4 628 29 q 417 -21 497 -21 m 417 135 q 524 186 486 135 q 563 356 563 238 q 524 524 563 472 q 417 575 486 575 q 309 524 347 575 q 271 356 271 472 q 309 186 271 238 q 417 135 347 135 m 535 833 l 417 969 l 299 833 l 140 833 l 317 1069 l 517 1069 l 693 833 l 535 833 z "},"ŝ":{"ha":833,"x_min":108,"x_max":724,"o":"m 400 -21 q 231 -2 308 -21 q 108 39 153 17 l 108 178 q 243 145 168 158 q 401 132 318 132 q 505 147 475 132 q 535 193 535 161 q 517 233 535 219 q 446 261 499 247 l 310 296 q 215 332 253 310 q 154 382 176 354 q 123 444 132 410 q 114 517 114 478 q 193 672 114 614 q 422 731 272 731 q 570 715 500 731 q 685 679 640 699 l 685 540 q 626 554 658 547 q 561 566 594 561 q 494 574 528 571 q 429 578 460 578 q 301 517 301 578 q 322 475 301 489 q 399 447 342 461 l 508 419 q 674 340 624 390 q 724 200 724 290 q 700 106 724 147 q 633 37 676 65 q 531 -6 590 8 q 400 -21 472 -21 m 532 833 l 414 969 l 296 833 l 138 833 l 314 1069 l 514 1069 l 690 833 l 532 833 z "},"û":{"ha":833,"x_min":92,"x_max":736,"o":"m 569 0 l 550 75 q 422 2 485 25 q 292 -21 358 -21 q 144 35 196 -21 q 92 190 92 90 l 92 710 l 294 710 l 294 247 q 392 135 294 135 q 533 179 464 135 l 533 710 l 736 710 l 736 0 l 569 0 m 535 833 l 417 969 l 299 833 l 140 833 l 317 1069 l 517 1069 l 693 833 l 535 833 z "},"ŵ":{"ha":833,"x_min":14,"x_max":819,"o":"m 492 0 l 415 411 l 340 0 l 157 0 l 14 710 l 206 710 l 272 161 l 346 571 l 494 571 l 565 167 l 635 710 l 819 710 l 674 0 l 492 0 m 535 833 l 417 969 l 299 833 l 140 833 l 317 1069 l 517 1069 l 693 833 l 535 833 z "},"ŷ":{"ha":833,"x_min":38,"x_max":797,"o":"m 182 -147 q 272 -120 240 -147 q 326 -26 304 -93 l 331 -12 l 38 710 l 253 710 l 424 174 l 588 710 l 797 710 l 483 -96 q 384 -253 440 -204 q 238 -303 328 -303 q 103 -281 168 -303 l 103 -143 q 142 -147 125 -146 q 182 -147 158 -147 m 535 833 l 417 969 l 299 833 l 140 833 l 317 1069 l 517 1069 l 693 833 l 535 833 z "},"ã":{"ha":833,"x_min":94,"x_max":713,"o":"m 321 -22 q 156 36 217 -22 q 94 192 94 94 q 114 285 94 243 q 170 356 133 326 q 258 402 207 386 q 371 418 308 418 q 444 414 408 418 q 525 400 481 410 l 525 469 q 497 557 525 533 q 394 581 469 581 q 276 569 342 581 q 143 538 210 558 l 143 671 q 272 715 194 699 q 431 731 350 731 q 645 674 578 731 q 713 492 713 617 l 713 0 l 553 0 l 536 63 q 433 0 492 22 q 321 -22 375 -22 m 378 114 q 452 128 414 114 q 525 171 490 143 l 525 292 q 467 299 497 296 q 408 301 436 301 q 288 204 288 301 q 311 138 288 161 q 378 114 335 114 m 524 933 q 557 976 554 933 l 560 1024 l 671 1024 q 674 996 674 1006 q 675 969 675 986 q 635 865 675 904 q 525 826 594 826 q 394 879 449 826 q 354 914 365 907 q 329 921 343 921 q 296 878 299 921 l 293 831 l 182 831 q 178 858 179 847 q 178 885 178 869 q 218 989 178 950 q 328 1028 258 1028 q 458 975 404 1028 q 499 940 488 947 q 524 933 510 933 z "},"ĩ":{"ha":833,"x_min":90,"x_max":753,"o":"m 90 150 l 326 150 l 326 560 l 138 560 l 138 710 l 529 710 l 529 150 l 753 150 l 753 0 l 90 0 l 90 150 m 465 933 q 499 976 496 933 l 501 1024 l 613 1024 q 616 996 615 1006 q 617 969 617 986 q 576 865 617 904 q 467 826 536 826 q 336 879 390 826 q 296 914 307 907 q 271 921 285 921 q 238 878 240 921 l 235 831 l 124 831 q 120 858 121 847 q 119 885 119 869 q 160 989 119 950 q 269 1028 200 1028 q 400 975 346 1028 q 440 940 429 947 q 465 933 451 933 z "},"ñ":{"ha":833,"x_min":92,"x_max":750,"o":"m 92 710 l 258 710 l 278 633 q 408 707 343 683 q 544 731 474 731 q 697 678 644 731 q 750 525 750 625 l 750 0 l 547 0 l 547 465 q 446 575 547 575 q 294 528 369 575 l 294 0 l 92 0 l 92 710 m 535 933 q 568 976 565 933 l 571 1024 l 682 1024 q 685 996 685 1006 q 686 969 686 986 q 646 865 686 904 q 536 826 606 826 q 406 879 460 826 q 365 914 376 907 q 340 921 354 921 q 307 878 310 921 l 304 831 l 193 831 q 190 858 190 847 q 189 885 189 869 q 229 989 189 950 q 339 1028 269 1028 q 469 975 415 1028 q 510 940 499 947 q 535 933 521 933 z "},"õ":{"ha":833,"x_min":65,"x_max":768,"o":"m 417 -21 q 270 4 335 -21 q 160 77 206 29 q 90 195 114 125 q 65 356 65 265 q 160 633 65 535 q 417 731 254 731 q 674 633 579 731 q 768 356 768 535 q 744 195 768 265 q 674 77 719 125 q 563 4 628 29 q 417 -21 497 -21 m 417 135 q 524 186 486 135 q 563 356 563 238 q 524 524 563 472 q 417 575 486 575 q 309 524 347 575 q 271 356 271 472 q 309 186 271 238 q 417 135 347 135 m 514 933 q 547 976 544 933 l 550 1024 l 661 1024 q 665 996 664 1006 q 665 969 665 986 q 625 865 665 904 q 515 826 585 826 q 385 879 439 826 q 344 914 356 907 q 319 921 333 921 q 286 878 289 921 l 283 831 l 172 831 q 169 858 169 847 q 168 885 168 869 q 208 989 168 950 q 318 1028 249 1028 q 449 975 394 1028 q 489 940 478 947 q 514 933 500 933 z "},"ũ":{"ha":833,"x_min":92,"x_max":736,"o":"m 569 0 l 550 75 q 422 2 485 25 q 292 -21 358 -21 q 144 35 196 -21 q 92 190 92 90 l 92 710 l 294 710 l 294 247 q 392 135 294 135 q 533 179 464 135 l 533 710 l 736 710 l 736 0 l 569 0 m 514 933 q 547 976 544 933 l 550 1024 l 661 1024 q 665 996 664 1006 q 665 969 665 986 q 625 865 665 904 q 515 826 585 826 q 385 879 439 826 q 344 914 356 907 q 319 921 333 921 q 286 878 289 921 l 283 831 l 172 831 q 169 858 169 847 q 168 885 168 869 q 208 989 168 950 q 318 1028 249 1028 q 449 975 394 1028 q 489 940 478 947 q 514 933 500 933 z "},"̌":{"ha":833,"x_min":140,"x_max":693,"o":"m 318 833 l 140 1069 l 324 1069 l 417 921 l 510 1069 l 693 1069 l 515 833 l 318 833 z "},"ˇ":{"ha":833,"x_min":140,"x_max":693,"o":"m 318 833 l 140 1069 l 324 1069 l 417 921 l 510 1069 l 693 1069 l 515 833 l 318 833 z "},"̕":{"ha":833,"x_min":324,"x_max":508,"o":"m 324 746 l 324 1028 q 366 1040 343 1036 q 413 1044 389 1044 q 465 1038 440 1044 q 508 1017 489 1032 l 451 746 l 324 746 z "},"̄":{"ha":833,"x_min":182,"x_max":651,"o":"m 182 865 l 182 990 l 651 990 l 651 865 l 182 865 z "},"ˉ":{"ha":833,"x_min":182,"x_max":651,"o":"m 182 865 l 182 990 l 651 990 l 651 865 l 182 865 z "},"¯":{"ha":833,"x_min":182,"x_max":651,"o":"m 182 865 l 182 990 l 651 990 l 651 865 l 182 865 z "},"Č":{"ha":833,"x_min":68,"x_max":768,"o":"m 276 464 q 340 225 276 304 q 543 146 404 146 q 649 157 592 146 q 751 185 706 168 l 751 31 q 639 -6 699 6 q 515 -18 579 -18 q 180 106 292 -18 q 68 476 68 231 q 185 850 68 719 q 519 981 301 981 q 739 936 638 981 l 739 782 q 648 807 700 797 q 547 817 596 817 q 342 738 407 817 q 276 496 276 658 l 276 464 l 276 464 m 383 1068 l 201 1264 l 404 1264 l 485 1149 l 565 1264 l 768 1264 l 586 1068 l 383 1068 z "},"Ď":{"ha":833,"x_min":96,"x_max":751,"o":"m 354 963 q 649 846 547 963 q 751 482 751 729 q 654 121 751 242 q 351 0 557 0 l 96 0 l 96 963 l 354 963 m 299 808 l 299 154 l 342 154 q 499 230 454 154 q 543 468 543 306 l 543 496 q 533 637 543 578 q 499 734 522 696 q 436 790 475 772 q 339 808 397 808 l 299 808 m 293 1068 l 111 1264 l 314 1264 l 394 1149 l 475 1264 l 678 1264 l 496 1068 l 293 1068 z "},"Ě":{"ha":833,"x_min":124,"x_max":733,"o":"m 124 963 l 733 963 l 733 807 l 321 807 l 321 571 l 654 571 l 654 415 l 321 415 l 321 156 l 733 156 l 733 0 l 124 0 l 124 963 m 322 1068 l 140 1264 l 343 1264 l 424 1149 l 504 1264 l 707 1264 l 525 1068 l 322 1068 z "},"Ľ":{"ha":833,"x_min":118,"x_max":749,"o":"m 118 0 l 118 963 l 321 963 l 321 167 l 749 167 l 749 0 l 118 0 m 450 717 l 450 999 q 492 1011 469 1007 q 539 1015 515 1015 q 591 1009 567 1015 q 635 988 615 1003 l 578 717 l 450 717 z "},"Ň":{"ha":833,"x_min":82,"x_max":750,"o":"m 263 689 l 263 0 l 82 0 l 82 963 l 299 963 l 569 278 l 569 963 l 750 963 l 750 0 l 536 0 l 263 689 m 315 1068 l 133 1264 l 336 1264 l 417 1149 l 497 1264 l 700 1264 l 518 1068 l 315 1068 z "},"Ř":{"ha":833,"x_min":104,"x_max":789,"o":"m 304 360 l 304 0 l 107 0 l 107 963 l 414 963 q 547 941 488 963 q 650 880 607 919 q 716 785 693 840 q 739 660 739 729 q 697 512 739 576 q 583 407 654 447 l 789 0 l 574 0 l 406 360 l 304 360 m 304 504 l 388 504 q 495 542 457 504 q 533 657 533 581 q 497 772 533 732 q 390 813 460 813 l 304 813 l 304 504 m 286 1068 l 104 1264 l 307 1264 l 388 1149 l 468 1264 l 671 1264 l 489 1068 l 286 1068 z "},"Š":{"ha":833,"x_min":92,"x_max":742,"o":"m 517 554 q 622 502 579 529 q 691 442 664 475 q 730 366 718 408 q 742 269 742 324 q 716 149 742 203 q 642 56 690 94 q 527 -3 594 18 q 376 -24 460 -24 q 227 -8 301 -24 q 100 31 153 7 l 100 186 q 233 152 165 164 q 375 140 300 140 q 495 171 454 140 q 536 260 536 201 q 510 335 536 304 q 408 396 485 365 l 311 435 q 151 539 211 475 q 92 703 92 603 q 115 820 92 768 q 183 909 139 872 q 290 966 228 946 q 431 986 353 986 q 558 972 494 986 q 682 935 621 958 l 682 782 q 558 813 618 803 q 442 822 499 822 q 333 795 371 822 q 294 719 294 768 q 326 647 294 676 q 421 593 358 618 l 517 554 m 315 1068 l 133 1264 l 336 1264 l 417 1149 l 497 1264 l 700 1264 l 518 1068 l 315 1068 z "},"Ť":{"ha":833,"x_min":63,"x_max":771,"o":"m 315 0 l 315 797 l 63 797 l 63 963 l 771 963 l 771 797 l 518 797 l 518 0 l 315 0 m 315 1068 l 133 1264 l 336 1264 l 417 1149 l 497 1264 l 700 1264 l 518 1068 l 315 1068 z "},"Ǔ":{"ha":833,"x_min":75,"x_max":758,"o":"m 556 963 l 758 963 l 758 343 q 669 69 758 161 q 417 -24 581 -24 q 164 69 253 -24 q 75 344 75 161 l 75 963 l 278 963 l 278 339 q 417 140 278 140 q 556 339 556 140 l 556 963 m 315 1068 l 133 1264 l 336 1264 l 417 1149 l 497 1264 l 700 1264 l 518 1068 l 315 1068 z "},"Ž":{"ha":833,"x_min":67,"x_max":739,"o":"m 67 0 l 67 144 l 524 807 l 99 807 l 99 963 l 739 963 l 739 818 l 282 156 l 738 156 l 738 0 l 67 0 m 325 1068 l 143 1264 l 346 1264 l 426 1149 l 507 1264 l 710 1264 l 528 1068 l 325 1068 z "},"Ā":{"ha":833,"x_min":29,"x_max":804,"o":"m 301 963 l 532 963 l 804 0 l 588 0 l 536 225 l 286 225 l 235 0 l 29 0 l 301 963 m 319 372 l 503 372 l 411 774 l 319 372 m 181 1099 l 181 1224 l 650 1224 l 650 1099 l 181 1099 z "},"Ē":{"ha":833,"x_min":124,"x_max":733,"o":"m 124 963 l 733 963 l 733 807 l 321 807 l 321 571 l 654 571 l 654 415 l 321 415 l 321 156 l 733 156 l 733 0 l 124 0 l 124 963 m 189 1099 l 189 1224 l 658 1224 l 658 1099 l 189 1099 z "},"Ī":{"ha":833,"x_min":125,"x_max":708,"o":"m 518 807 l 518 156 l 708 156 l 708 0 l 125 0 l 125 156 l 315 156 l 315 807 l 125 807 l 125 963 l 708 963 l 708 807 l 518 807 m 182 1099 l 182 1224 l 651 1224 l 651 1099 l 182 1099 z "},"Ō":{"ha":833,"x_min":56,"x_max":778,"o":"m 56 482 q 151 858 56 731 q 418 986 246 986 q 682 858 586 986 q 778 482 778 731 q 683 106 778 233 q 415 -22 588 -22 q 151 106 247 -22 q 56 482 56 233 m 264 482 q 301 224 264 306 q 417 142 339 142 q 532 224 494 142 q 569 482 569 306 q 532 740 569 658 q 417 822 494 822 q 301 740 339 822 q 264 482 264 658 m 182 1099 l 182 1224 l 651 1224 l 651 1099 l 182 1099 z "},"Ū":{"ha":833,"x_min":75,"x_max":758,"o":"m 556 963 l 758 963 l 758 343 q 669 69 758 161 q 417 -24 581 -24 q 164 69 253 -24 q 75 344 75 161 l 75 963 l 278 963 l 278 339 q 417 140 278 140 q 556 339 556 140 l 556 963 m 182 1099 l 182 1224 l 651 1224 l 651 1099 l 182 1099 z "},"č":{"ha":833,"x_min":96,"x_max":736,"o":"m 526 138 q 627 149 571 138 q 726 181 683 161 l 726 46 q 685 24 711 35 q 626 4 658 13 q 556 -10 593 -4 q 481 -15 518 -15 q 190 83 285 -15 q 96 350 96 181 q 124 516 96 446 q 201 633 151 586 q 323 702 251 679 q 482 725 394 725 q 556 719 519 725 q 624 706 592 714 q 681 686 656 697 q 722 665 707 675 l 722 532 q 629 560 683 547 q 519 572 575 572 q 355 524 408 572 q 301 364 301 475 l 301 344 q 356 185 301 232 q 526 138 410 138 m 361 833 l 183 1069 l 367 1069 l 460 921 l 553 1069 l 736 1069 l 558 833 l 361 833 z "},"ď":{"ha":833,"x_min":44,"x_max":876,"o":"m 476 51 q 402 -1 443 18 q 313 -21 361 -21 q 205 3 254 -21 q 120 75 156 28 q 65 191 85 122 q 44 350 44 260 q 64 508 44 438 q 119 628 83 579 q 204 704 154 678 q 315 731 254 731 q 394 716 357 731 q 464 676 432 701 l 464 1028 l 667 1028 l 667 0 l 490 0 l 476 51 m 379 132 q 423 139 403 132 q 464 160 443 146 l 464 553 q 421 572 442 567 q 375 578 400 578 q 279 524 308 578 q 250 354 250 469 q 379 132 250 132 m 725 738 l 725 1028 q 756 1040 739 1036 q 789 1044 772 1044 q 876 1018 839 1044 l 829 738 l 725 738 z "},"ě":{"ha":833,"x_min":83,"x_max":742,"o":"m 465 -21 q 180 74 276 -21 q 83 356 83 169 q 175 632 83 533 q 440 731 267 731 q 662 656 582 731 q 742 439 742 581 q 738 368 742 407 q 728 306 733 329 l 271 306 q 333 173 282 214 q 496 132 383 132 q 619 142 558 132 q 726 167 679 153 l 726 32 q 617 -6 685 10 q 465 -21 549 -21 m 435 590 q 271 431 292 590 l 567 431 q 567 444 567 438 q 568 457 568 451 q 533 558 568 525 q 435 590 497 590 m 322 833 l 144 1069 l 328 1069 l 421 921 l 514 1069 l 697 1069 l 519 833 l 322 833 z "},"ľ":{"ha":833,"x_min":79,"x_max":783,"o":"m 79 150 l 315 150 l 315 878 l 126 878 l 126 1028 l 518 1028 l 518 150 l 742 150 l 742 0 l 79 0 l 79 150 m 599 746 l 599 1028 q 641 1040 618 1036 q 688 1044 664 1044 q 740 1038 715 1044 q 783 1017 764 1032 l 726 746 l 599 746 z "},"ň":{"ha":833,"x_min":92,"x_max":750,"o":"m 92 710 l 258 710 l 278 633 q 408 707 343 683 q 544 731 474 731 q 697 678 644 731 q 750 525 750 625 l 750 0 l 547 0 l 547 465 q 446 575 547 575 q 294 528 369 575 l 294 0 l 92 0 l 92 710 m 339 833 l 161 1069 l 344 1069 l 438 921 l 531 1069 l 714 1069 l 536 833 l 339 833 z "},"ř":{"ha":833,"x_min":90,"x_max":761,"o":"m 626 533 q 537 526 582 533 q 456 503 492 518 l 456 150 l 664 150 l 664 0 l 90 0 l 90 150 l 253 150 l 253 560 l 92 560 l 92 710 l 419 710 l 444 604 q 535 684 485 651 q 661 717 586 717 q 719 713 692 717 q 761 703 746 710 l 761 521 q 708 529 742 525 q 626 533 674 533 m 346 833 l 168 1069 l 351 1069 l 444 921 l 538 1069 l 721 1069 l 543 833 l 346 833 z "},"š":{"ha":833,"x_min":108,"x_max":724,"o":"m 400 -21 q 231 -2 308 -21 q 108 39 153 17 l 108 178 q 243 145 168 158 q 401 132 318 132 q 505 147 475 132 q 535 193 535 161 q 517 233 535 219 q 446 261 499 247 l 310 296 q 215 332 253 310 q 154 382 176 354 q 123 444 132 410 q 114 517 114 478 q 193 672 114 614 q 422 731 272 731 q 570 715 500 731 q 685 679 640 699 l 685 540 q 626 554 658 547 q 561 566 594 561 q 494 574 528 571 q 429 578 460 578 q 301 517 301 578 q 322 475 301 489 q 399 447 342 461 l 508 419 q 674 340 624 390 q 724 200 724 290 q 700 106 724 147 q 633 37 676 65 q 531 -6 590 8 q 400 -21 472 -21 m 315 833 l 138 1069 l 321 1069 l 414 921 l 507 1069 l 690 1069 l 513 833 l 315 833 z "},"ť":{"ha":833,"x_min":67,"x_max":718,"o":"m 67 685 l 228 703 l 258 922 l 425 922 l 425 710 l 711 710 l 711 560 l 425 560 l 425 286 q 429 222 425 249 q 445 178 433 196 q 478 153 457 161 q 536 144 500 144 q 631 156 579 144 q 718 181 683 168 l 718 42 q 626 6 686 24 q 468 -11 567 -11 q 280 56 338 -11 q 222 268 222 122 l 222 560 l 67 560 l 67 685 m 492 789 l 492 1051 q 534 1064 511 1060 q 581 1068 557 1068 q 633 1062 608 1068 q 676 1040 657 1056 l 619 789 l 492 789 z "},"ǔ":{"ha":833,"x_min":92,"x_max":736,"o":"m 569 0 l 550 75 q 422 2 485 25 q 292 -21 358 -21 q 144 35 196 -21 q 92 190 92 90 l 92 710 l 294 710 l 294 247 q 392 135 294 135 q 533 179 464 135 l 533 710 l 736 710 l 736 0 l 569 0 m 318 833 l 140 1069 l 324 1069 l 417 921 l 510 1069 l 693 1069 l 515 833 l 318 833 z "},"ž":{"ha":833,"x_min":99,"x_max":739,"o":"m 99 144 l 500 560 l 113 560 l 113 710 l 732 710 l 732 565 l 329 150 l 739 150 l 739 0 l 99 0 l 99 144 m 324 833 l 146 1069 l 329 1069 l 422 921 l 515 1069 l 699 1069 l 521 833 l 324 833 z "},"ā":{"ha":833,"x_min":94,"x_max":713,"o":"m 321 -22 q 156 36 217 -22 q 94 192 94 94 q 114 285 94 243 q 170 356 133 326 q 258 402 207 386 q 371 418 308 418 q 444 414 408 418 q 525 400 481 410 l 525 469 q 497 557 525 533 q 394 581 469 581 q 276 569 342 581 q 143 538 210 558 l 143 671 q 272 715 194 699 q 431 731 350 731 q 645 674 578 731 q 713 492 713 617 l 713 0 l 553 0 l 536 63 q 433 0 492 22 q 321 -22 375 -22 m 378 114 q 452 128 414 114 q 525 171 490 143 l 525 292 q 467 299 497 296 q 408 301 436 301 q 288 204 288 301 q 311 138 288 161 q 378 114 335 114 m 192 865 l 192 990 l 661 990 l 661 865 l 192 865 z "},"ē":{"ha":833,"x_min":83,"x_max":742,"o":"m 465 -21 q 180 74 276 -21 q 83 356 83 169 q 175 632 83 533 q 440 731 267 731 q 662 656 582 731 q 742 439 742 581 q 738 368 742 407 q 728 306 733 329 l 271 306 q 333 173 282 214 q 496 132 383 132 q 619 142 558 132 q 726 167 679 153 l 726 32 q 617 -6 685 10 q 465 -21 549 -21 m 435 590 q 271 431 292 590 l 567 431 q 567 444 567 438 q 568 457 568 451 q 533 558 568 525 q 435 590 497 590 m 186 865 l 186 990 l 656 990 l 656 865 l 186 865 z "},"ī":{"ha":833,"x_min":90,"x_max":753,"o":"m 90 150 l 326 150 l 326 560 l 138 560 l 138 710 l 529 710 l 529 150 l 753 150 l 753 0 l 90 0 l 90 150 m 133 865 l 133 990 l 603 990 l 603 865 l 133 865 z "},"ō":{"ha":833,"x_min":65,"x_max":768,"o":"m 417 -21 q 270 4 335 -21 q 160 77 206 29 q 90 195 114 125 q 65 356 65 265 q 160 633 65 535 q 417 731 254 731 q 674 633 579 731 q 768 356 768 535 q 744 195 768 265 q 674 77 719 125 q 563 4 628 29 q 417 -21 497 -21 m 417 135 q 524 186 486 135 q 563 356 563 238 q 524 524 563 472 q 417 575 486 575 q 309 524 347 575 q 271 356 271 472 q 309 186 271 238 q 417 135 347 135 m 182 865 l 182 990 l 651 990 l 651 865 l 182 865 z "},"ū":{"ha":833,"x_min":92,"x_max":736,"o":"m 569 0 l 550 75 q 422 2 485 25 q 292 -21 358 -21 q 144 35 196 -21 q 92 190 92 90 l 92 710 l 294 710 l 294 247 q 392 135 294 135 q 533 179 464 135 l 533 710 l 736 710 l 736 0 l 569 0 m 182 865 l 182 990 l 651 990 l 651 865 l 182 865 z "},"̈":{"ha":833,"x_min":146,"x_max":688,"o":"m 256 815 q 176 842 206 815 q 146 917 146 869 q 176 991 146 964 q 256 1018 206 1018 q 335 991 306 1018 q 365 917 365 964 q 335 842 365 869 q 256 815 306 815 m 578 815 q 498 842 528 815 q 468 917 468 869 q 498 991 468 964 q 578 1018 528 1018 q 658 991 628 1018 q 688 917 688 964 q 658 842 688 869 q 578 815 628 815 z "},"¨":{"ha":833,"x_min":146,"x_max":688,"o":"m 256 815 q 176 842 206 815 q 146 917 146 869 q 176 991 146 964 q 256 1018 206 1018 q 335 991 306 1018 q 365 917 365 964 q 335 842 365 869 q 256 815 306 815 m 578 815 q 498 842 528 815 q 468 917 468 869 q 498 991 468 964 q 578 1018 528 1018 q 658 991 628 1018 q 688 917 688 964 q 658 842 688 869 q 578 815 628 815 z "},"̆":{"ha":833,"x_min":200,"x_max":633,"o":"m 417 828 q 258 878 317 828 q 200 1014 200 928 q 204 1058 200 1039 l 318 1058 l 322 1021 q 417 949 331 949 q 511 1021 503 949 l 515 1058 l 629 1058 q 633 1014 633 1039 q 575 878 633 928 q 417 828 517 828 z "},"˘":{"ha":833,"x_min":200,"x_max":633,"o":"m 417 828 q 258 878 317 828 q 200 1014 200 928 q 204 1058 200 1039 l 318 1058 l 322 1021 q 417 949 331 949 q 511 1021 503 949 l 515 1058 l 629 1058 q 633 1014 633 1039 q 575 878 633 928 q 417 828 517 828 z "},"Ä":{"ha":833,"x_min":29,"x_max":804,"o":"m 301 963 l 532 963 l 804 0 l 588 0 l 536 225 l 286 225 l 235 0 l 29 0 l 301 963 m 319 372 l 503 372 l 411 774 l 319 372 m 257 1069 q 175 1097 206 1069 q 144 1172 144 1125 q 175 1249 144 1221 q 257 1276 206 1276 q 339 1249 308 1276 q 369 1172 369 1221 q 339 1097 369 1125 q 257 1069 308 1069 m 574 1069 q 492 1097 522 1069 q 461 1172 461 1125 q 492 1249 461 1221 q 574 1276 522 1276 q 656 1249 625 1276 q 686 1172 686 1221 q 656 1097 686 1125 q 574 1069 625 1069 z "},"Ë":{"ha":833,"x_min":124,"x_max":733,"o":"m 124 963 l 733 963 l 733 807 l 321 807 l 321 571 l 654 571 l 654 415 l 321 415 l 321 156 l 733 156 l 733 0 l 124 0 l 124 963 m 265 1069 q 183 1097 214 1069 q 153 1172 153 1125 q 183 1249 153 1221 q 265 1276 214 1276 q 347 1249 317 1276 q 378 1172 378 1221 q 347 1097 378 1125 q 265 1069 317 1069 m 582 1069 q 500 1097 531 1069 q 469 1172 469 1125 q 500 1249 469 1221 q 582 1276 531 1276 q 664 1249 633 1276 q 694 1172 694 1221 q 664 1097 694 1125 q 582 1069 633 1069 z "},"Ï":{"ha":833,"x_min":125,"x_max":708,"o":"m 518 807 l 518 156 l 708 156 l 708 0 l 125 0 l 125 156 l 315 156 l 315 807 l 125 807 l 125 963 l 708 963 l 708 807 l 518 807 m 258 1069 q 176 1097 207 1069 q 146 1172 146 1125 q 176 1249 146 1221 q 258 1276 207 1276 q 340 1249 310 1276 q 371 1172 371 1221 q 340 1097 371 1125 q 258 1069 310 1069 m 575 1069 q 493 1097 524 1069 q 463 1172 463 1125 q 493 1249 463 1221 q 575 1276 524 1276 q 657 1249 626 1276 q 688 1172 688 1221 q 657 1097 688 1125 q 575 1069 626 1069 z "},"Ö":{"ha":833,"x_min":56,"x_max":778,"o":"m 56 482 q 151 858 56 731 q 418 986 246 986 q 682 858 586 986 q 778 482 778 731 q 683 106 778 233 q 415 -22 588 -22 q 151 106 247 -22 q 56 482 56 233 m 264 482 q 301 224 264 306 q 417 142 339 142 q 532 224 494 142 q 569 482 569 306 q 532 740 569 658 q 417 822 494 822 q 301 740 339 822 q 264 482 264 658 m 258 1069 q 176 1097 207 1069 q 146 1172 146 1125 q 176 1249 146 1221 q 258 1276 207 1276 q 340 1249 310 1276 q 371 1172 371 1221 q 340 1097 371 1125 q 258 1069 310 1069 m 575 1069 q 493 1097 524 1069 q 463 1172 463 1125 q 493 1249 463 1221 q 575 1276 524 1276 q 657 1249 626 1276 q 688 1172 688 1221 q 657 1097 688 1125 q 575 1069 626 1069 z "},"Ü":{"ha":833,"x_min":75,"x_max":758,"o":"m 556 963 l 758 963 l 758 343 q 669 69 758 161 q 417 -24 581 -24 q 164 69 253 -24 q 75 344 75 161 l 75 963 l 278 963 l 278 339 q 417 140 278 140 q 556 339 556 140 l 556 963 m 258 1069 q 176 1097 207 1069 q 146 1172 146 1125 q 176 1249 146 1221 q 258 1276 207 1276 q 340 1249 310 1276 q 371 1172 371 1221 q 340 1097 371 1125 q 258 1069 310 1069 m 575 1069 q 493 1097 524 1069 q 463 1172 463 1125 q 493 1249 463 1221 q 575 1276 524 1276 q 657 1249 626 1276 q 688 1172 688 1221 q 657 1097 688 1125 q 575 1069 626 1069 z "},"Ẅ":{"ha":833,"x_min":3,"x_max":831,"o":"m 501 0 l 417 572 l 333 0 l 142 0 l 3 963 l 199 963 l 267 208 l 347 744 l 492 744 l 574 207 l 643 963 l 831 963 l 693 0 l 501 0 m 258 1069 q 176 1097 207 1069 q 146 1172 146 1125 q 176 1249 146 1221 q 258 1276 207 1276 q 340 1249 310 1276 q 371 1172 371 1221 q 340 1097 371 1125 q 258 1069 310 1069 m 575 1069 q 493 1097 524 1069 q 463 1172 463 1125 q 493 1249 463 1221 q 575 1276 524 1276 q 657 1249 626 1276 q 688 1172 688 1221 q 657 1097 688 1125 q 575 1069 626 1069 z "},"Ÿ":{"ha":833,"x_min":24,"x_max":810,"o":"m 518 353 l 518 0 l 315 0 l 315 350 l 24 963 l 250 963 l 419 503 l 593 963 l 810 963 l 518 353 m 258 1069 q 176 1097 207 1069 q 146 1172 146 1125 q 176 1249 146 1221 q 258 1276 207 1276 q 340 1249 310 1276 q 371 1172 371 1221 q 340 1097 371 1125 q 258 1069 310 1069 m 575 1069 q 493 1097 524 1069 q 463 1172 463 1125 q 493 1249 463 1221 q 575 1276 524 1276 q 657 1249 626 1276 q 688 1172 688 1221 q 657 1097 688 1125 q 575 1069 626 1069 z "},"Ă":{"ha":833,"x_min":29,"x_max":804,"o":"m 301 963 l 532 963 l 804 0 l 588 0 l 536 225 l 286 225 l 235 0 l 29 0 l 301 963 m 319 372 l 503 372 l 411 774 l 319 372 m 415 1058 q 256 1103 313 1058 q 199 1226 199 1147 q 203 1264 199 1249 l 317 1264 l 318 1246 q 415 1181 324 1181 q 513 1246 506 1181 l 514 1264 l 628 1264 q 632 1226 632 1249 q 575 1103 632 1147 q 415 1058 518 1058 z "},"Ĕ":{"ha":833,"x_min":124,"x_max":733,"o":"m 124 963 l 733 963 l 733 807 l 321 807 l 321 571 l 654 571 l 654 415 l 321 415 l 321 156 l 733 156 l 733 0 l 124 0 l 124 963 m 424 1058 q 264 1103 321 1058 q 207 1226 207 1147 q 211 1264 207 1249 l 325 1264 l 326 1246 q 424 1181 332 1181 q 521 1246 514 1181 l 522 1264 l 636 1264 q 640 1226 640 1249 q 583 1103 640 1147 q 424 1058 526 1058 z "},"Ğ":{"ha":833,"x_min":61,"x_max":761,"o":"m 506 143 q 538 144 521 143 q 575 149 556 146 l 575 388 l 426 388 l 426 543 l 761 543 l 761 54 q 623 1 703 19 q 463 -18 543 -18 q 165 107 269 -18 q 61 471 61 232 q 170 851 61 721 q 486 981 279 981 q 618 966 557 981 q 728 924 679 951 l 728 765 q 612 801 671 789 q 507 813 553 813 q 325 734 381 813 q 269 489 269 656 l 269 464 q 324 217 269 292 q 506 143 379 143 m 464 1058 q 304 1103 361 1058 q 247 1226 247 1147 q 251 1264 247 1249 l 365 1264 l 367 1246 q 464 1181 372 1181 q 561 1246 554 1181 l 563 1264 l 676 1264 q 681 1226 681 1249 q 624 1103 681 1147 q 464 1058 567 1058 z "},"Ĭ":{"ha":833,"x_min":125,"x_max":708,"o":"m 518 807 l 518 156 l 708 156 l 708 0 l 125 0 l 125 156 l 315 156 l 315 807 l 125 807 l 125 963 l 708 963 l 708 807 l 518 807 m 417 1058 q 257 1103 314 1058 q 200 1226 200 1147 q 204 1264 200 1249 l 318 1264 l 319 1246 q 417 1181 325 1181 q 514 1246 507 1181 l 515 1264 l 629 1264 q 633 1226 633 1249 q 576 1103 633 1147 q 417 1058 519 1058 z "},"Ŏ":{"ha":833,"x_min":56,"x_max":778,"o":"m 56 482 q 151 858 56 731 q 418 986 246 986 q 682 858 586 986 q 778 482 778 731 q 683 106 778 233 q 415 -22 588 -22 q 151 106 247 -22 q 56 482 56 233 m 264 482 q 301 224 264 306 q 417 142 339 142 q 532 224 494 142 q 569 482 569 306 q 532 740 569 658 q 417 822 494 822 q 301 740 339 822 q 264 482 264 658 m 417 1058 q 257 1103 314 1058 q 200 1226 200 1147 q 204 1264 200 1249 l 318 1264 l 319 1246 q 417 1181 325 1181 q 514 1246 507 1181 l 515 1264 l 629 1264 q 633 1226 633 1249 q 576 1103 633 1147 q 417 1058 519 1058 z "},"Ŭ":{"ha":833,"x_min":75,"x_max":758,"o":"m 556 963 l 758 963 l 758 343 q 669 69 758 161 q 417 -24 581 -24 q 164 69 253 -24 q 75 344 75 161 l 75 963 l 278 963 l 278 339 q 417 140 278 140 q 556 339 556 140 l 556 963 m 417 1058 q 257 1103 314 1058 q 200 1226 200 1147 q 204 1264 200 1249 l 318 1264 l 319 1246 q 417 1181 325 1181 q 514 1246 507 1181 l 515 1264 l 629 1264 q 633 1226 633 1249 q 576 1103 633 1147 q 417 1058 519 1058 z "},"ä":{"ha":833,"x_min":94,"x_max":713,"o":"m 321 -22 q 156 36 217 -22 q 94 192 94 94 q 114 285 94 243 q 170 356 133 326 q 258 402 207 386 q 371 418 308 418 q 444 414 408 418 q 525 400 481 410 l 525 469 q 497 557 525 533 q 394 581 469 581 q 276 569 342 581 q 143 538 210 558 l 143 671 q 272 715 194 699 q 431 731 350 731 q 645 674 578 731 q 713 492 713 617 l 713 0 l 553 0 l 536 63 q 433 0 492 22 q 321 -22 375 -22 m 378 114 q 452 128 414 114 q 525 171 490 143 l 525 292 q 467 299 497 296 q 408 301 436 301 q 288 204 288 301 q 311 138 288 161 q 378 114 335 114 m 265 815 q 185 842 215 815 q 156 917 156 869 q 185 991 156 964 q 265 1018 215 1018 q 345 991 315 1018 q 375 917 375 964 q 345 842 375 869 q 265 815 315 815 m 588 815 q 508 842 538 815 q 478 917 478 869 q 508 991 478 964 q 588 1018 538 1018 q 667 991 638 1018 q 697 917 697 964 q 667 842 697 869 q 588 815 638 815 z "},"ë":{"ha":833,"x_min":83,"x_max":742,"o":"m 465 -21 q 180 74 276 -21 q 83 356 83 169 q 175 632 83 533 q 440 731 267 731 q 662 656 582 731 q 742 439 742 581 q 738 368 742 407 q 728 306 733 329 l 271 306 q 333 173 282 214 q 496 132 383 132 q 619 142 558 132 q 726 167 679 153 l 726 32 q 617 -6 685 10 q 465 -21 549 -21 m 435 590 q 271 431 292 590 l 567 431 q 567 444 567 438 q 568 457 568 451 q 533 558 568 525 q 435 590 497 590 m 260 815 q 180 842 210 815 q 150 917 150 869 q 180 991 150 964 q 260 1018 210 1018 q 340 991 310 1018 q 369 917 369 964 q 340 842 369 869 q 260 815 310 815 m 582 815 q 502 842 532 815 q 472 917 472 869 q 502 991 472 964 q 582 1018 532 1018 q 662 991 632 1018 q 692 917 692 964 q 662 842 692 869 q 582 815 632 815 z "},"ï":{"ha":833,"x_min":90,"x_max":753,"o":"m 90 150 l 326 150 l 326 560 l 138 560 l 138 710 l 529 710 l 529 150 l 753 150 l 753 0 l 90 0 l 90 150 m 207 815 q 127 842 157 815 q 97 917 97 869 q 127 991 97 964 q 207 1018 157 1018 q 287 991 257 1018 q 317 917 317 964 q 287 842 317 869 q 207 815 257 815 m 529 815 q 449 842 479 815 q 419 917 419 869 q 449 991 419 964 q 529 1018 479 1018 q 609 991 579 1018 q 639 917 639 964 q 609 842 639 869 q 529 815 579 815 z "},"ö":{"ha":833,"x_min":65,"x_max":768,"o":"m 417 -21 q 270 4 335 -21 q 160 77 206 29 q 90 195 114 125 q 65 356 65 265 q 160 633 65 535 q 417 731 254 731 q 674 633 579 731 q 768 356 768 535 q 744 195 768 265 q 674 77 719 125 q 563 4 628 29 q 417 -21 497 -21 m 417 135 q 524 186 486 135 q 563 356 563 238 q 524 524 563 472 q 417 575 486 575 q 309 524 347 575 q 271 356 271 472 q 309 186 271 238 q 417 135 347 135 m 256 815 q 176 842 206 815 q 146 917 146 869 q 176 991 146 964 q 256 1018 206 1018 q 335 991 306 1018 q 365 917 365 964 q 335 842 365 869 q 256 815 306 815 m 578 815 q 498 842 528 815 q 468 917 468 869 q 498 991 468 964 q 578 1018 528 1018 q 658 991 628 1018 q 688 917 688 964 q 658 842 688 869 q 578 815 628 815 z "},"ü":{"ha":833,"x_min":92,"x_max":736,"o":"m 569 0 l 550 75 q 422 2 485 25 q 292 -21 358 -21 q 144 35 196 -21 q 92 190 92 90 l 92 710 l 294 710 l 294 247 q 392 135 294 135 q 533 179 464 135 l 533 710 l 736 710 l 736 0 l 569 0 m 256 815 q 176 842 206 815 q 146 917 146 869 q 176 991 146 964 q 256 1018 206 1018 q 335 991 306 1018 q 365 917 365 964 q 335 842 365 869 q 256 815 306 815 m 578 815 q 498 842 528 815 q 468 917 468 869 q 498 991 468 964 q 578 1018 528 1018 q 658 991 628 1018 q 688 917 688 964 q 658 842 688 869 q 578 815 628 815 z "},"ẅ":{"ha":833,"x_min":14,"x_max":819,"o":"m 492 0 l 415 411 l 340 0 l 157 0 l 14 710 l 206 710 l 272 161 l 346 571 l 494 571 l 565 167 l 635 710 l 819 710 l 674 0 l 492 0 m 256 815 q 176 842 206 815 q 146 917 146 869 q 176 991 146 964 q 256 1018 206 1018 q 335 991 306 1018 q 365 917 365 964 q 335 842 365 869 q 256 815 306 815 m 578 815 q 498 842 528 815 q 468 917 468 869 q 498 991 468 964 q 578 1018 528 1018 q 658 991 628 1018 q 688 917 688 964 q 658 842 688 869 q 578 815 628 815 z "},"ÿ":{"ha":833,"x_min":38,"x_max":797,"o":"m 182 -147 q 272 -120 240 -147 q 326 -26 304 -93 l 331 -12 l 38 710 l 253 710 l 424 174 l 588 710 l 797 710 l 483 -96 q 384 -253 440 -204 q 238 -303 328 -303 q 103 -281 168 -303 l 103 -143 q 142 -147 125 -146 q 182 -147 158 -147 m 256 815 q 176 842 206 815 q 146 917 146 869 q 176 991 146 964 q 256 1018 206 1018 q 335 991 306 1018 q 365 917 365 964 q 335 842 365 869 q 256 815 306 815 m 578 815 q 498 842 528 815 q 468 917 468 869 q 498 991 468 964 q 578 1018 528 1018 q 658 991 628 1018 q 688 917 688 964 q 658 842 688 869 q 578 815 628 815 z "},"ă":{"ha":833,"x_min":94,"x_max":713,"o":"m 321 -22 q 156 36 217 -22 q 94 192 94 94 q 114 285 94 243 q 170 356 133 326 q 258 402 207 386 q 371 418 308 418 q 444 414 408 418 q 525 400 481 410 l 525 469 q 497 557 525 533 q 394 581 469 581 q 276 569 342 581 q 143 538 210 558 l 143 671 q 272 715 194 699 q 431 731 350 731 q 645 674 578 731 q 713 492 713 617 l 713 0 l 553 0 l 536 63 q 433 0 492 22 q 321 -22 375 -22 m 378 114 q 452 128 414 114 q 525 171 490 143 l 525 292 q 467 299 497 296 q 408 301 436 301 q 288 204 288 301 q 311 138 288 161 q 378 114 335 114 m 426 828 q 268 878 326 828 q 210 1014 210 928 q 214 1058 210 1039 l 328 1058 l 332 1021 q 426 949 340 949 q 521 1021 513 949 l 525 1058 l 639 1058 q 643 1014 643 1039 q 585 878 643 928 q 426 828 526 828 z "},"ĕ":{"ha":833,"x_min":83,"x_max":742,"o":"m 465 -21 q 180 74 276 -21 q 83 356 83 169 q 175 632 83 533 q 440 731 267 731 q 662 656 582 731 q 742 439 742 581 q 738 368 742 407 q 728 306 733 329 l 271 306 q 333 173 282 214 q 496 132 383 132 q 619 142 558 132 q 726 167 679 153 l 726 32 q 617 -6 685 10 q 465 -21 549 -21 m 435 590 q 271 431 292 590 l 567 431 q 567 444 567 438 q 568 457 568 451 q 533 558 568 525 q 435 590 497 590 m 421 828 q 263 878 321 828 q 204 1014 204 928 q 208 1058 204 1039 l 322 1058 l 326 1021 q 421 949 335 949 q 515 1021 507 949 l 519 1058 l 633 1058 q 638 1014 638 1039 q 579 878 638 928 q 421 828 521 828 z "},"ğ":{"ha":833,"x_min":67,"x_max":736,"o":"m 536 86 q 350 15 457 15 q 233 40 285 15 q 144 112 181 65 q 87 224 107 158 q 67 369 67 289 q 87 518 67 451 q 144 632 107 585 q 235 705 182 679 q 353 731 288 731 q 463 710 411 731 q 554 649 514 689 l 569 710 l 736 710 l 736 56 q 642 -208 736 -114 q 381 -303 549 -303 q 249 -289 310 -303 q 125 -243 189 -275 l 125 -107 q 251 -139 192 -128 q 363 -150 311 -150 q 495 -108 454 -150 q 536 31 536 -65 l 536 86 m 413 165 q 477 176 444 165 q 536 204 510 186 l 536 546 q 403 581 479 581 q 269 375 269 581 q 304 216 269 267 q 413 165 339 165 m 421 828 q 263 878 321 828 q 204 1014 204 928 q 208 1058 204 1039 l 322 1058 l 326 1021 q 421 949 335 949 q 515 1021 507 949 l 519 1058 l 633 1058 q 638 1014 638 1039 q 579 878 638 928 q 421 828 521 828 z "},"ĭ":{"ha":833,"x_min":90,"x_max":753,"o":"m 90 150 l 326 150 l 326 560 l 138 560 l 138 710 l 529 710 l 529 150 l 753 150 l 753 0 l 90 0 l 90 150 m 368 828 q 210 878 268 828 q 151 1014 151 928 q 156 1058 151 1039 l 269 1058 l 274 1021 q 368 949 282 949 q 463 1021 454 949 l 467 1058 l 581 1058 q 585 1014 585 1039 q 526 878 585 928 q 368 828 468 828 z "},"ŏ":{"ha":833,"x_min":65,"x_max":768,"o":"m 417 -21 q 270 4 335 -21 q 160 77 206 29 q 90 195 114 125 q 65 356 65 265 q 160 633 65 535 q 417 731 254 731 q 674 633 579 731 q 768 356 768 535 q 744 195 768 265 q 674 77 719 125 q 563 4 628 29 q 417 -21 497 -21 m 417 135 q 524 186 486 135 q 563 356 563 238 q 524 524 563 472 q 417 575 486 575 q 309 524 347 575 q 271 356 271 472 q 309 186 271 238 q 417 135 347 135 m 417 828 q 258 878 317 828 q 200 1014 200 928 q 204 1058 200 1039 l 318 1058 l 322 1021 q 417 949 331 949 q 511 1021 503 949 l 515 1058 l 629 1058 q 633 1014 633 1039 q 575 878 633 928 q 417 828 517 828 z "},"ŭ":{"ha":833,"x_min":92,"x_max":736,"o":"m 569 0 l 550 75 q 422 2 485 25 q 292 -21 358 -21 q 144 35 196 -21 q 92 190 92 90 l 92 710 l 294 710 l 294 247 q 392 135 294 135 q 533 179 464 135 l 533 710 l 736 710 l 736 0 l 569 0 m 417 828 q 258 878 317 828 q 200 1014 200 928 q 204 1058 200 1039 l 318 1058 l 322 1021 q 417 949 331 949 q 511 1021 503 949 l 515 1058 l 629 1058 q 633 1014 633 1039 q 575 878 633 928 q 417 828 517 828 z "},"̇":{"ha":833,"x_min":300,"x_max":533,"o":"m 417 819 q 332 849 364 819 q 300 928 300 878 q 332 1007 300 978 q 417 1036 364 1036 q 501 1007 469 1036 q 533 928 533 978 q 501 849 533 878 q 417 819 469 819 z "},"˙":{"ha":833,"x_min":300,"x_max":533,"o":"m 417 819 q 332 849 364 819 q 300 928 300 878 q 332 1007 300 978 q 417 1036 364 1036 q 501 1007 469 1036 q 533 928 533 978 q 501 849 533 878 q 417 819 469 819 z "},"Ė":{"ha":833,"x_min":124,"x_max":733,"o":"m 124 963 l 733 963 l 733 807 l 321 807 l 321 571 l 654 571 l 654 415 l 321 415 l 321 156 l 733 156 l 733 0 l 124 0 l 124 963 m 424 1069 q 337 1099 369 1069 q 304 1181 304 1129 q 337 1262 304 1232 q 424 1292 369 1292 q 510 1262 478 1292 q 543 1181 543 1232 q 510 1099 543 1129 q 424 1069 478 1069 z "},"İ":{"ha":833,"x_min":125,"x_max":708,"o":"m 518 807 l 518 156 l 708 156 l 708 0 l 125 0 l 125 156 l 315 156 l 315 807 l 125 807 l 125 963 l 708 963 l 708 807 l 518 807 m 417 1069 q 330 1099 363 1069 q 297 1181 297 1129 q 330 1262 297 1232 q 417 1292 363 1292 q 503 1262 471 1292 q 536 1181 536 1232 q 503 1099 536 1129 q 417 1069 471 1069 z "},"Ċ":{"ha":833,"x_min":68,"x_max":751,"o":"m 276 464 q 340 225 276 304 q 543 146 404 146 q 649 157 592 146 q 751 185 706 168 l 751 31 q 639 -6 699 6 q 515 -18 579 -18 q 180 106 292 -18 q 68 476 68 231 q 185 850 68 719 q 519 981 301 981 q 739 936 638 981 l 739 782 q 648 807 700 797 q 547 817 596 817 q 342 738 407 817 q 276 496 276 658 l 276 464 l 276 464 m 485 1069 q 398 1099 431 1069 q 365 1181 365 1129 q 398 1262 365 1232 q 485 1292 431 1292 q 572 1262 539 1292 q 604 1181 604 1232 q 572 1099 604 1129 q 485 1069 539 1069 z "},"Ġ":{"ha":833,"x_min":61,"x_max":761,"o":"m 506 143 q 538 144 521 143 q 575 149 556 146 l 575 388 l 426 388 l 426 543 l 761 543 l 761 54 q 623 1 703 19 q 463 -18 543 -18 q 165 107 269 -18 q 61 471 61 232 q 170 851 61 721 q 486 981 279 981 q 618 966 557 981 q 728 924 679 951 l 728 765 q 612 801 671 789 q 507 813 553 813 q 325 734 381 813 q 269 489 269 656 l 269 464 q 324 217 269 292 q 506 143 379 143 m 464 1069 q 377 1099 410 1069 q 344 1181 344 1129 q 377 1262 344 1232 q 464 1292 410 1292 q 551 1262 518 1292 q 583 1181 583 1232 q 551 1099 583 1129 q 464 1069 518 1069 z "},"Ż":{"ha":833,"x_min":67,"x_max":739,"o":"m 67 0 l 67 144 l 524 807 l 99 807 l 99 963 l 739 963 l 739 818 l 282 156 l 738 156 l 738 0 l 67 0 m 426 1069 q 340 1099 372 1069 q 307 1181 307 1129 q 340 1262 307 1232 q 426 1292 372 1292 q 513 1262 481 1292 q 546 1181 546 1232 q 513 1099 546 1129 q 426 1069 481 1069 z "},"ė":{"ha":833,"x_min":83,"x_max":742,"o":"m 465 -21 q 180 74 276 -21 q 83 356 83 169 q 175 632 83 533 q 440 731 267 731 q 662 656 582 731 q 742 439 742 581 q 738 368 742 407 q 728 306 733 329 l 271 306 q 333 173 282 214 q 496 132 383 132 q 619 142 558 132 q 726 167 679 153 l 726 32 q 617 -6 685 10 q 465 -21 549 -21 m 435 590 q 271 431 292 590 l 567 431 q 567 444 567 438 q 568 457 568 451 q 533 558 568 525 q 435 590 497 590 m 421 819 q 336 849 368 819 q 304 928 304 878 q 336 1007 304 978 q 421 1036 368 1036 q 506 1007 474 1036 q 538 928 538 978 q 506 849 538 878 q 421 819 474 819 z "},"ċ":{"ha":833,"x_min":96,"x_max":726,"o":"m 526 138 q 627 149 571 138 q 726 181 683 161 l 726 46 q 685 24 711 35 q 626 4 658 13 q 556 -10 593 -4 q 481 -15 518 -15 q 190 83 285 -15 q 96 350 96 181 q 124 516 96 446 q 201 633 151 586 q 323 702 251 679 q 482 725 394 725 q 556 719 519 725 q 624 706 592 714 q 681 686 656 697 q 722 665 707 675 l 722 532 q 629 560 683 547 q 519 572 575 572 q 355 524 408 572 q 301 364 301 475 l 301 344 q 356 185 301 232 q 526 138 410 138 m 460 819 q 375 849 407 819 q 343 928 343 878 q 375 1007 343 978 q 460 1036 407 1036 q 544 1007 513 1036 q 576 928 576 978 q 544 849 576 878 q 460 819 513 819 z "},"ġ":{"ha":833,"x_min":67,"x_max":736,"o":"m 536 86 q 350 15 457 15 q 233 40 285 15 q 144 112 181 65 q 87 224 107 158 q 67 369 67 289 q 87 518 67 451 q 144 632 107 585 q 235 705 182 679 q 353 731 288 731 q 463 710 411 731 q 554 649 514 689 l 569 710 l 736 710 l 736 56 q 642 -208 736 -114 q 381 -303 549 -303 q 249 -289 310 -303 q 125 -243 189 -275 l 125 -107 q 251 -139 192 -128 q 363 -150 311 -150 q 495 -108 454 -150 q 536 31 536 -65 l 536 86 m 413 165 q 477 176 444 165 q 536 204 510 186 l 536 546 q 403 581 479 581 q 269 375 269 581 q 304 216 269 267 q 413 165 339 165 m 421 819 q 336 849 368 819 q 304 928 304 878 q 336 1007 304 978 q 421 1036 368 1036 q 506 1007 474 1036 q 538 928 538 978 q 506 849 538 878 q 421 819 474 819 z "},"ż":{"ha":833,"x_min":99,"x_max":739,"o":"m 99 144 l 500 560 l 113 560 l 113 710 l 732 710 l 732 565 l 329 150 l 739 150 l 739 0 l 99 0 l 99 144 m 422 819 q 338 849 369 819 q 306 928 306 878 q 338 1007 306 978 q 422 1036 369 1036 q 507 1007 475 1036 q 539 928 539 978 q 507 849 539 878 q 422 819 475 819 z "},"̊":{"ha":833,"x_min":235,"x_max":599,"o":"m 417 813 q 286 853 338 813 q 235 971 235 894 q 286 1088 235 1047 q 417 1129 338 1129 q 547 1088 496 1129 q 599 971 599 1047 q 547 853 599 894 q 417 813 496 813 m 417 903 q 462 920 444 903 q 479 971 479 938 q 462 1022 479 1004 q 417 1039 444 1039 q 372 1022 389 1039 q 354 971 354 1004 q 372 920 354 938 q 417 903 389 903 z "},"˚":{"ha":833,"x_min":235,"x_max":599,"o":"m 417 813 q 286 853 338 813 q 235 971 235 894 q 286 1088 235 1047 q 417 1129 338 1129 q 547 1088 496 1129 q 599 971 599 1047 q 547 853 599 894 q 417 813 496 813 m 417 903 q 462 920 444 903 q 479 971 479 938 q 462 1022 479 1004 q 417 1039 444 1039 q 372 1022 389 1039 q 354 971 354 1004 q 372 920 354 938 q 417 903 389 903 z "},"Å":{"ha":833,"x_min":29,"x_max":804,"o":"m 301 963 l 532 963 l 804 0 l 588 0 l 536 225 l 286 225 l 235 0 l 29 0 l 301 963 m 319 372 l 503 372 l 411 774 l 319 372 m 415 1018 q 296 1056 344 1018 q 247 1164 247 1093 q 296 1272 247 1235 q 415 1310 344 1310 q 535 1272 486 1310 q 583 1164 583 1235 q 535 1056 583 1093 q 415 1018 486 1018 m 415 1101 q 458 1117 443 1101 q 474 1164 474 1133 q 458 1210 474 1194 q 415 1226 443 1226 q 372 1210 388 1226 q 357 1164 357 1194 q 372 1117 357 1133 q 415 1101 388 1101 z "},"Ů":{"ha":833,"x_min":75,"x_max":758,"o":"m 556 963 l 758 963 l 758 343 q 669 69 758 161 q 417 -24 581 -24 q 164 69 253 -24 q 75 344 75 161 l 75 963 l 278 963 l 278 339 q 417 140 278 140 q 556 339 556 140 l 556 963 m 417 1018 q 297 1056 346 1018 q 249 1164 249 1093 q 297 1272 249 1235 q 417 1310 346 1310 q 536 1272 488 1310 q 585 1164 585 1235 q 536 1056 585 1093 q 417 1018 488 1018 m 417 1101 q 460 1117 444 1101 q 475 1164 475 1133 q 460 1210 475 1194 q 417 1226 444 1226 q 374 1210 389 1226 q 358 1164 358 1194 q 374 1117 358 1133 q 417 1101 389 1101 z "},"Ǻ":{"ha":833,"x_min":29,"x_max":804,"o":"m 281 892 q 243 990 243 929 q 292 1099 243 1061 q 411 1136 340 1136 q 531 1099 482 1136 q 579 990 579 1061 q 550 900 579 938 l 804 0 l 588 0 l 536 225 l 286 225 l 235 0 l 29 0 l 281 892 m 319 372 l 503 372 l 411 774 l 319 372 m 339 1181 l 476 1360 l 660 1360 l 481 1181 l 339 1181 m 411 928 q 454 944 439 928 q 469 990 469 960 q 454 1037 469 1021 q 411 1053 439 1053 q 368 1037 383 1053 q 353 990 353 1021 q 368 944 353 960 q 411 928 383 928 z "},"å":{"ha":833,"x_min":94,"x_max":713,"o":"m 321 -22 q 156 36 217 -22 q 94 192 94 94 q 114 285 94 243 q 170 356 133 326 q 258 402 207 386 q 371 418 308 418 q 444 414 408 418 q 525 400 481 410 l 525 469 q 497 557 525 533 q 394 581 469 581 q 276 569 342 581 q 143 538 210 558 l 143 671 q 272 715 194 699 q 431 731 350 731 q 645 674 578 731 q 713 492 713 617 l 713 0 l 553 0 l 536 63 q 433 0 492 22 q 321 -22 375 -22 m 378 114 q 452 128 414 114 q 525 171 490 143 l 525 292 q 467 299 497 296 q 408 301 436 301 q 288 204 288 301 q 311 138 288 161 q 378 114 335 114 m 426 813 q 296 853 347 813 q 244 971 244 894 q 296 1088 244 1047 q 426 1129 347 1129 q 557 1088 506 1129 q 608 971 608 1047 q 557 853 608 894 q 426 813 506 813 m 426 903 q 472 920 454 903 q 489 971 489 938 q 472 1022 489 1004 q 426 1039 454 1039 q 381 1022 399 1039 q 364 971 364 1004 q 381 920 364 938 q 426 903 399 903 z "},"ů":{"ha":833,"x_min":92,"x_max":736,"o":"m 569 0 l 550 75 q 422 2 485 25 q 292 -21 358 -21 q 144 35 196 -21 q 92 190 92 90 l 92 710 l 294 710 l 294 247 q 392 135 294 135 q 533 179 464 135 l 533 710 l 736 710 l 736 0 l 569 0 m 417 813 q 286 853 338 813 q 235 971 235 894 q 286 1088 235 1047 q 417 1129 338 1129 q 547 1088 496 1129 q 599 971 599 1047 q 547 853 599 894 q 417 813 496 813 m 417 903 q 462 920 444 903 q 479 971 479 938 q 462 1022 479 1004 q 417 1039 444 1039 q 372 1022 389 1039 q 354 971 354 1004 q 372 920 354 938 q 417 903 389 903 z "},"ǻ":{"ha":833,"x_min":94,"x_max":713,"o":"m 321 -22 q 156 36 217 -22 q 94 192 94 94 q 114 285 94 243 q 170 356 133 326 q 258 402 207 386 q 371 418 308 418 q 444 414 408 418 q 525 400 481 410 l 525 469 q 497 557 525 533 q 394 581 469 581 q 276 569 342 581 q 143 538 210 558 l 143 671 q 272 715 194 699 q 431 731 350 731 q 645 674 578 731 q 713 492 713 617 l 713 0 l 553 0 l 536 63 q 433 0 492 22 q 321 -22 375 -22 m 378 114 q 452 128 414 114 q 525 171 490 143 l 525 292 q 467 299 497 296 q 408 301 436 301 q 288 204 288 301 q 311 138 288 161 q 378 114 335 114 m 426 804 q 307 842 356 804 q 258 950 258 879 q 307 1058 258 1021 q 426 1096 356 1096 q 546 1058 497 1096 q 594 950 594 1021 q 546 842 594 879 q 426 804 497 804 m 426 888 q 469 903 454 888 q 485 950 485 919 q 469 997 485 981 q 426 1013 454 1013 q 383 997 399 1013 q 368 950 368 981 q 383 903 368 919 q 426 888 399 888 m 354 1140 l 492 1319 l 675 1319 l 496 1140 l 354 1140 z "},"А":{"ha":833,"x_min":29,"x_max":804,"o":"m 301 963 l 532 963 l 804 0 l 588 0 l 536 225 l 286 225 l 235 0 l 29 0 l 301 963 m 319 372 l 503 372 l 411 774 l 319 372 z "},"Б":{"ha":833,"x_min":117,"x_max":757,"o":"m 117 963 l 689 963 l 689 807 l 314 807 l 314 578 l 414 578 q 667 503 578 578 q 757 289 757 428 q 667 75 757 150 q 414 0 578 0 l 117 0 l 117 963 m 314 429 l 314 149 l 414 149 q 522 183 488 149 q 556 289 556 218 q 522 394 556 360 q 414 429 488 429 l 314 429 z "},"В":{"ha":833,"x_min":106,"x_max":763,"o":"m 721 707 q 690 589 721 644 q 585 506 660 533 q 719 415 676 476 q 763 272 763 353 q 738 159 763 210 q 669 73 714 108 q 562 19 625 38 q 419 0 499 0 l 106 0 l 106 963 l 411 963 q 538 944 481 963 q 635 892 594 925 q 699 811 676 858 q 721 707 721 764 m 303 419 l 303 149 l 415 149 q 557 282 557 149 q 406 419 557 419 l 303 419 m 383 561 q 518 686 518 561 q 394 814 518 814 l 303 814 l 303 561 l 383 561 z "},"Г":{"ha":833,"x_min":147,"x_max":753,"o":"m 147 0 l 147 963 l 753 963 l 753 796 l 350 796 l 350 0 l 147 0 z "},"Д":{"ha":833,"x_min":43,"x_max":776,"o":"m 43 153 l 97 153 q 178 415 150 243 q 225 839 207 588 l 233 963 l 685 963 l 685 153 l 776 153 l 776 -244 l 599 -244 l 599 0 l 221 0 l 221 -244 l 43 -244 l 43 153 m 401 810 q 385 603 394 700 q 360 423 375 506 q 322 272 344 340 q 269 153 300 204 l 493 153 l 493 810 l 401 810 z "},"Е":{"ha":833,"x_min":124,"x_max":733,"o":"m 124 963 l 733 963 l 733 807 l 321 807 l 321 571 l 654 571 l 654 415 l 321 415 l 321 156 l 733 156 l 733 0 l 124 0 l 124 963 z "},"Ж":{"ha":833,"x_min":0,"x_max":833,"o":"m 338 0 l 338 479 l 183 0 l 0 0 l 197 513 l 18 963 l 190 963 l 338 522 l 338 963 l 496 963 l 496 522 l 643 963 l 815 963 l 636 513 l 833 0 l 650 0 l 496 479 l 496 0 l 338 0 z "},"З":{"ha":833,"x_min":75,"x_max":757,"o":"m 342 -18 q 206 -5 275 -18 q 75 33 138 8 l 75 192 q 221 159 154 169 q 339 149 288 149 q 497 183 443 149 q 551 290 551 218 q 363 411 551 411 l 214 411 l 214 572 l 335 572 q 524 689 524 572 q 474 784 524 754 q 329 814 425 814 q 217 803 276 814 q 99 772 158 793 l 99 931 q 228 967 156 954 q 363 981 300 981 q 510 963 443 981 q 626 912 578 946 q 700 828 674 878 q 726 713 726 778 q 688 585 726 636 q 582 507 649 533 q 710 421 664 481 q 757 267 757 361 q 726 146 757 199 q 641 56 696 93 q 510 1 586 19 q 342 -18 433 -18 z "},"И":{"ha":833,"x_min":82,"x_max":750,"o":"m 296 0 l 82 0 l 82 963 l 263 963 l 263 278 l 533 963 l 750 963 l 750 0 l 569 0 l 569 689 l 296 0 z "},"К":{"ha":833,"x_min":103,"x_max":813,"o":"m 103 0 l 103 963 l 306 963 l 306 535 l 565 963 l 788 963 l 486 513 l 813 0 l 575 0 l 306 465 l 306 0 l 103 0 z "},"Л":{"ha":833,"x_min":18,"x_max":751,"o":"m 549 0 l 549 807 l 415 807 q 381 422 403 579 q 324 167 360 265 q 232 26 288 69 q 96 -17 176 -17 q 53 -14 74 -17 q 18 -6 32 -11 l 18 140 q 43 139 25 139 q 114 176 85 139 q 165 295 143 213 q 201 511 186 378 q 229 836 217 644 l 238 963 l 751 963 l 751 0 l 549 0 z "},"М":{"ha":833,"x_min":76,"x_max":757,"o":"m 589 0 l 589 703 l 482 363 l 351 363 l 243 706 l 243 0 l 76 0 l 76 963 l 293 963 l 418 536 l 544 963 l 757 963 l 757 0 l 589 0 z "},"Н":{"ha":833,"x_min":88,"x_max":746,"o":"m 88 963 l 290 963 l 290 568 l 543 568 l 543 963 l 746 963 l 746 0 l 543 0 l 543 413 l 290 413 l 290 0 l 88 0 l 88 963 z "},"О":{"ha":833,"x_min":56,"x_max":778,"o":"m 56 482 q 151 858 56 731 q 418 986 246 986 q 682 858 586 986 q 778 482 778 731 q 683 106 778 233 q 415 -22 588 -22 q 151 106 247 -22 q 56 482 56 233 m 264 482 q 301 224 264 306 q 417 142 339 142 q 532 224 494 142 q 569 482 569 306 q 532 740 569 658 q 417 822 494 822 q 301 740 339 822 q 264 482 264 658 z "},"П":{"ha":833,"x_min":94,"x_max":739,"o":"m 536 0 l 536 807 l 297 807 l 297 0 l 94 0 l 94 963 l 739 963 l 739 0 l 536 0 z "},"Р":{"ha":833,"x_min":124,"x_max":783,"o":"m 321 351 l 321 0 l 124 0 l 124 963 l 458 963 q 592 942 532 963 q 694 881 651 921 q 760 785 738 842 q 783 657 783 729 q 760 528 783 585 q 694 433 738 472 q 592 372 651 393 q 458 351 532 351 l 321 351 m 321 504 l 440 504 q 547 543 510 504 q 583 657 583 582 q 547 771 583 732 q 440 810 510 810 l 321 810 l 321 504 z "},"С":{"ha":833,"x_min":68,"x_max":751,"o":"m 276 464 q 340 225 276 304 q 543 146 404 146 q 649 157 592 146 q 751 185 706 168 l 751 31 q 639 -6 699 6 q 515 -18 579 -18 q 180 106 292 -18 q 68 476 68 231 q 185 850 68 719 q 519 981 301 981 q 739 936 638 981 l 739 782 q 648 807 700 797 q 547 817 596 817 q 342 738 407 817 q 276 496 276 658 l 276 464 l 276 464 z "},"Т":{"ha":833,"x_min":63,"x_max":771,"o":"m 315 0 l 315 797 l 63 797 l 63 963 l 771 963 l 771 797 l 518 797 l 518 0 l 315 0 z "},"У":{"ha":833,"x_min":24,"x_max":810,"o":"m 146 150 q 181 146 163 147 q 214 144 199 144 q 295 162 258 144 q 356 233 332 179 l 24 963 l 250 963 l 436 449 l 593 963 l 810 963 l 519 211 q 465 98 493 143 q 401 26 436 53 q 323 -10 367 0 q 224 -21 279 -21 q 188 -19 208 -21 q 146 -11 168 -17 l 146 150 z "},"Ф":{"ha":833,"x_min":28,"x_max":804,"o":"m 332 82 q 203 119 260 88 q 108 204 147 151 q 49 328 69 257 q 28 482 28 399 q 49 636 28 565 q 108 760 69 707 q 203 844 147 813 q 332 882 260 876 l 332 1004 l 500 1004 l 500 882 q 628 844 572 876 q 724 760 685 813 q 783 636 763 707 q 804 482 804 565 q 783 328 804 399 q 724 204 763 257 q 628 119 685 151 q 500 82 572 88 l 500 -42 l 332 -42 l 332 82 m 614 482 q 586 665 614 593 q 500 747 558 736 l 500 217 q 586 299 558 228 q 614 482 614 371 m 332 747 q 246 665 274 736 q 218 482 218 593 q 246 299 218 371 q 332 217 274 228 l 332 747 z "},"Х":{"ha":833,"x_min":22,"x_max":810,"o":"m 585 0 l 410 343 l 244 0 l 22 0 l 304 493 l 44 963 l 271 963 l 419 646 l 571 963 l 790 963 l 522 497 l 810 0 l 585 0 z "},"Ц":{"ha":833,"x_min":97,"x_max":799,"o":"m 615 -244 l 615 0 l 97 0 l 97 963 l 300 963 l 300 156 l 504 156 l 504 963 l 707 963 l 707 156 l 799 156 l 799 -244 l 615 -244 z "},"Ч":{"ha":833,"x_min":88,"x_max":726,"o":"m 524 365 q 432 349 476 354 q 346 343 388 343 q 88 596 88 343 l 88 963 l 290 963 l 290 646 q 316 528 290 563 q 404 494 342 494 q 466 496 436 494 q 524 503 496 497 l 524 963 l 726 963 l 726 0 l 524 0 l 524 365 z "},"Ш":{"ha":833,"x_min":49,"x_max":785,"o":"m 49 0 l 49 963 l 226 963 l 226 149 l 328 149 l 328 963 l 506 963 l 506 149 l 607 149 l 607 963 l 785 963 l 785 0 l 49 0 z "},"Щ":{"ha":833,"x_min":79,"x_max":815,"o":"m 667 0 l 79 0 l 79 963 l 238 963 l 238 140 l 331 140 l 331 963 l 489 963 l 489 140 l 582 140 l 582 963 l 740 963 l 740 140 l 815 140 l 815 -244 l 667 -244 l 667 0 z "},"Ъ":{"ha":833,"x_min":21,"x_max":788,"o":"m 219 807 l 21 807 l 21 963 l 417 963 l 417 592 l 486 592 q 708 513 629 592 q 788 296 788 435 q 708 78 788 157 q 486 0 629 0 l 219 0 l 219 807 m 475 147 q 586 296 586 147 q 475 444 586 444 l 417 444 l 417 147 l 475 147 z "},"Ы":{"ha":833,"x_min":46,"x_max":788,"o":"m 46 963 l 231 963 l 231 596 l 261 596 q 471 517 401 596 q 540 299 540 438 q 469 81 540 161 q 261 0 399 0 l 46 0 l 46 963 m 603 963 l 788 963 l 788 0 l 603 0 l 603 963 m 231 456 l 231 140 l 236 140 q 328 179 304 140 q 353 299 353 218 q 328 417 353 379 q 236 456 304 456 l 231 456 z "},"Ь":{"ha":833,"x_min":79,"x_max":788,"o":"m 79 963 l 288 963 l 288 597 l 444 597 q 587 577 524 597 q 694 518 650 557 q 763 424 739 479 q 788 299 788 369 q 763 173 788 228 q 694 79 739 118 q 587 20 650 40 q 444 0 524 0 l 79 0 l 79 963 m 288 447 l 288 150 l 433 150 q 547 186 511 150 q 582 299 582 222 q 547 411 582 375 q 433 447 511 447 l 288 447 z "},"Э":{"ha":833,"x_min":68,"x_max":774,"o":"m 322 -18 q 191 -8 256 -18 q 68 25 126 3 l 68 182 q 190 158 135 165 q 297 150 244 150 q 495 212 431 150 q 565 413 560 274 l 221 413 l 221 568 l 565 568 q 489 755 556 697 q 292 813 422 813 q 82 785 196 813 l 82 942 q 196 971 135 961 q 317 981 257 981 q 508 947 424 981 q 652 848 593 913 q 742 690 711 783 q 774 476 774 596 q 658 107 774 232 q 322 -18 542 -18 z "},"Ю":{"ha":833,"x_min":56,"x_max":804,"o":"m 56 963 l 228 963 l 228 565 l 313 565 q 333 758 317 678 q 378 888 349 838 q 452 963 408 939 q 557 986 496 986 q 670 958 624 986 q 747 870 717 931 q 790 713 776 810 q 804 481 804 617 q 790 249 804 344 q 747 93 776 154 q 670 4 717 32 q 558 -24 624 -24 q 451 1 496 -24 q 376 78 406 25 q 330 214 346 131 q 311 417 314 297 l 228 417 l 228 0 l 56 0 l 56 963 m 556 124 q 591 140 576 124 q 615 198 606 157 q 628 308 624 239 q 632 482 632 376 q 628 657 632 588 q 615 767 624 726 q 591 823 606 807 q 554 839 576 839 q 519 822 533 839 q 495 765 504 806 q 482 654 486 724 q 478 481 478 585 q 482 305 478 374 q 495 196 486 236 q 519 140 504 156 q 556 124 533 124 z "},"Я":{"ha":833,"x_min":38,"x_max":719,"o":"m 38 0 l 242 421 q 129 522 171 458 q 88 667 88 586 q 110 789 88 735 q 176 882 133 843 q 279 942 219 921 q 413 963 339 963 l 719 963 l 719 0 l 522 0 l 522 374 l 440 374 l 421 374 l 253 0 l 38 0 m 293 664 q 331 555 293 592 q 439 518 369 518 l 522 518 l 522 813 l 436 813 q 330 774 367 813 q 293 664 293 735 z "},"а":{"ha":833,"x_min":94,"x_max":713,"o":"m 321 -22 q 156 36 217 -22 q 94 192 94 94 q 114 285 94 243 q 170 356 133 326 q 258 402 207 386 q 371 418 308 418 q 444 414 408 418 q 525 400 481 410 l 525 469 q 497 557 525 533 q 394 581 469 581 q 276 569 342 581 q 143 538 210 558 l 143 671 q 272 715 194 699 q 431 731 350 731 q 645 674 578 731 q 713 492 713 617 l 713 0 l 553 0 l 536 63 q 433 0 492 22 q 321 -22 375 -22 m 378 114 q 452 128 414 114 q 525 171 490 143 l 525 292 q 467 299 497 296 q 408 301 436 301 q 288 204 288 301 q 311 138 288 161 q 378 114 335 114 z "},"б":{"ha":833,"x_min":76,"x_max":771,"o":"m 428 -21 q 161 85 246 -21 q 76 415 76 190 q 99 658 76 556 q 169 832 121 761 q 297 944 218 903 q 488 1003 375 985 l 708 1038 l 708 869 l 483 833 q 388 813 425 824 q 329 777 351 801 q 297 710 307 753 q 285 592 288 667 q 385 634 331 618 q 488 650 439 650 q 771 329 771 650 q 747 183 771 247 q 678 73 724 118 q 570 3 633 28 q 428 -21 507 -21 m 451 508 q 367 498 411 508 q 282 468 322 488 l 282 407 q 290 280 282 332 q 315 196 297 228 q 360 149 332 164 q 428 135 388 135 q 565 329 565 135 q 540 467 565 425 q 451 508 514 508 z "},"в":{"ha":833,"x_min":118,"x_max":763,"o":"m 118 710 l 500 710 q 666 656 604 710 q 728 519 728 603 q 632 375 728 415 q 763 201 763 335 q 692 55 763 110 q 500 0 622 0 l 118 0 l 118 710 m 296 301 l 296 128 l 482 128 q 558 147 536 128 q 581 215 581 167 q 558 282 581 263 q 482 301 536 301 l 296 301 m 296 582 l 296 422 l 467 422 q 549 501 549 422 q 467 582 549 582 l 296 582 z "},"г":{"ha":833,"x_min":146,"x_max":719,"o":"m 146 0 l 146 710 l 719 710 l 719 550 l 349 550 l 349 0 l 146 0 z "},"д":{"ha":833,"x_min":40,"x_max":765,"o":"m 40 149 l 108 149 q 140 201 125 168 q 167 288 154 233 q 192 421 181 342 q 214 614 204 500 l 222 710 l 671 710 l 671 149 l 765 149 l 765 -228 l 592 -228 l 592 0 l 214 0 l 214 -228 l 40 -228 l 40 149 m 379 560 q 360 402 371 469 q 338 285 350 335 q 310 203 325 236 q 276 149 294 169 l 486 149 l 486 560 l 379 560 z "},"е":{"ha":833,"x_min":83,"x_max":742,"o":"m 465 -21 q 180 74 276 -21 q 83 356 83 169 q 175 632 83 533 q 440 731 267 731 q 662 656 582 731 q 742 439 742 581 q 738 368 742 407 q 728 306 733 329 l 271 306 q 333 173 282 214 q 496 132 383 132 q 619 142 558 132 q 726 167 679 153 l 726 32 q 617 -6 685 10 q 465 -21 549 -21 m 435 590 q 271 431 292 590 l 567 431 q 567 444 567 438 q 568 457 568 451 q 533 558 568 525 q 435 590 497 590 z "},"ж":{"ha":833,"x_min":7,"x_max":826,"o":"m 333 0 l 333 336 l 193 0 l 7 0 l 193 360 l 25 710 l 206 710 l 333 365 l 333 710 l 500 710 l 500 365 l 628 710 l 808 710 l 639 360 l 826 0 l 640 0 l 500 336 l 500 0 l 333 0 z "},"з":{"ha":833,"x_min":101,"x_max":718,"o":"m 358 -21 q 224 -9 286 -21 q 101 26 161 3 l 101 168 q 232 139 172 149 q 354 129 292 129 q 490 150 450 129 q 531 218 531 171 q 492 277 531 258 q 353 296 454 296 l 231 296 l 231 422 l 344 422 q 475 442 440 422 q 510 503 510 463 q 473 564 510 547 q 342 581 436 581 q 228 571 283 581 q 125 546 174 561 l 125 688 q 249 719 182 708 q 379 731 317 731 q 613 680 532 731 q 694 529 694 629 q 665 429 694 468 q 586 371 635 390 q 683 308 649 351 q 718 193 718 264 q 692 101 718 140 q 620 34 667 61 q 507 -7 574 7 q 358 -21 440 -21 z "},"и":{"ha":833,"x_min":83,"x_max":750,"o":"m 553 0 l 553 449 l 275 0 l 83 0 l 83 710 l 281 710 l 281 261 l 558 710 l 750 710 l 750 0 l 553 0 z "},"к":{"ha":833,"x_min":104,"x_max":829,"o":"m 104 0 l 104 710 l 306 710 l 306 392 l 565 710 l 807 710 l 504 357 l 829 0 l 582 0 l 306 308 l 306 0 l 104 0 z "},"л":{"ha":833,"x_min":40,"x_max":736,"o":"m 539 0 l 539 557 l 382 557 q 350 274 371 385 q 296 99 329 164 q 217 10 263 35 q 111 -15 171 -15 q 72 -14 90 -15 q 40 -10 54 -12 l 40 143 l 57 143 q 110 163 86 143 q 154 234 135 182 q 188 376 174 286 q 211 607 201 467 l 218 710 l 736 710 l 736 0 l 539 0 z "},"м":{"ha":833,"x_min":60,"x_max":774,"o":"m 601 0 l 601 451 l 493 144 l 340 144 l 232 451 l 232 0 l 60 0 l 60 710 l 269 710 l 421 286 l 571 710 l 774 710 l 774 0 l 601 0 z "},"н":{"ha":833,"x_min":88,"x_max":744,"o":"m 542 0 l 542 285 l 290 285 l 290 0 l 88 0 l 88 710 l 290 710 l 290 438 l 542 438 l 542 710 l 744 710 l 744 0 l 542 0 z "},"о":{"ha":833,"x_min":65,"x_max":768,"o":"m 417 -21 q 270 4 335 -21 q 160 77 206 29 q 90 195 114 125 q 65 356 65 265 q 160 633 65 535 q 417 731 254 731 q 674 633 579 731 q 768 356 768 535 q 744 195 768 265 q 674 77 719 125 q 563 4 628 29 q 417 -21 497 -21 m 417 135 q 524 186 486 135 q 563 356 563 238 q 524 524 563 472 q 417 575 486 575 q 309 524 347 575 q 271 356 271 472 q 309 186 271 238 q 417 135 347 135 z "},"п":{"ha":833,"x_min":96,"x_max":738,"o":"m 535 0 l 535 557 l 299 557 l 299 0 l 96 0 l 96 710 l 738 710 l 738 0 l 535 0 z "},"р":{"ha":833,"x_min":90,"x_max":761,"o":"m 464 -21 q 370 -5 414 -21 q 293 35 326 11 l 293 -286 l 90 -286 l 90 710 l 256 710 l 271 646 q 351 706 301 681 q 465 731 400 731 q 582 706 528 731 q 676 633 636 681 q 738 517 715 586 q 761 361 761 449 q 740 206 761 276 q 678 85 718 136 q 585 7 639 35 q 464 -21 531 -21 m 404 578 q 347 568 376 578 q 293 543 317 558 l 293 165 q 346 141 315 150 q 404 132 376 132 q 519 187 483 132 q 556 353 556 242 q 517 519 556 461 q 404 578 479 578 z "},"с":{"ha":833,"x_min":96,"x_max":726,"o":"m 526 138 q 627 149 571 138 q 726 181 683 161 l 726 46 q 685 24 711 35 q 626 4 658 13 q 556 -10 593 -4 q 481 -15 518 -15 q 190 83 285 -15 q 96 350 96 181 q 124 516 96 446 q 201 633 151 586 q 323 702 251 679 q 482 725 394 725 q 556 719 519 725 q 624 706 592 714 q 681 686 656 697 q 722 665 707 675 l 722 532 q 629 560 683 547 q 519 572 575 572 q 355 524 408 572 q 301 364 301 475 l 301 344 q 356 185 301 232 q 526 138 410 138 z "},"т":{"ha":833,"x_min":63,"x_max":771,"o":"m 317 0 l 317 550 l 63 550 l 63 710 l 771 710 l 771 550 l 517 550 l 517 0 l 317 0 z "},"у":{"ha":833,"x_min":38,"x_max":797,"o":"m 182 -147 q 272 -120 240 -147 q 326 -26 304 -93 l 331 -12 l 38 710 l 253 710 l 424 174 l 588 710 l 797 710 l 483 -96 q 384 -253 440 -204 q 238 -303 328 -303 q 103 -281 168 -303 l 103 -143 q 142 -147 125 -146 q 182 -147 158 -147 z "},"ф":{"ha":833,"x_min":38,"x_max":794,"o":"m 340 -286 l 340 -18 q 219 12 275 -15 q 124 87 164 39 q 60 201 83 135 q 38 350 38 268 q 60 499 38 432 q 124 613 83 565 q 219 688 164 661 q 340 718 275 715 l 340 1028 l 492 1028 l 492 718 q 613 688 557 715 q 708 613 668 661 q 772 499 749 565 q 794 350 794 432 q 772 201 794 268 q 708 87 749 135 q 613 12 668 39 q 492 -18 557 -15 l 492 -286 l 340 -286 m 617 350 q 580 516 617 454 q 492 582 543 578 l 492 118 q 580 184 543 122 q 617 350 617 246 m 340 582 q 252 516 289 578 q 215 350 215 454 q 252 184 215 246 q 340 118 289 122 l 340 582 z "},"х":{"ha":833,"x_min":38,"x_max":796,"o":"m 572 0 l 410 236 l 256 0 l 38 0 l 303 360 l 40 710 l 264 710 l 419 486 l 567 710 l 785 710 l 528 368 l 796 0 l 572 0 z "},"ц":{"ha":833,"x_min":106,"x_max":779,"o":"m 603 -228 l 603 0 l 106 0 l 106 710 l 306 710 l 306 153 l 501 153 l 501 710 l 701 710 l 701 153 l 779 153 l 779 -228 l 603 -228 z "},"ч":{"ha":833,"x_min":89,"x_max":719,"o":"m 517 0 l 517 272 q 421 254 471 260 q 321 249 371 249 q 89 464 89 249 l 89 710 l 292 710 l 292 503 q 317 417 292 442 q 406 393 342 393 q 517 401 460 393 l 517 710 l 719 710 l 719 0 l 517 0 z "},"ш":{"ha":833,"x_min":49,"x_max":785,"o":"m 785 710 l 785 0 l 49 0 l 49 710 l 221 710 l 221 139 l 331 139 l 331 710 l 503 710 l 503 139 l 613 139 l 613 710 l 785 710 z "},"щ":{"ha":833,"x_min":79,"x_max":815,"o":"m 740 710 l 740 139 l 815 139 l 815 -228 l 667 -228 l 667 0 l 79 0 l 79 710 l 238 710 l 238 139 l 331 139 l 331 710 l 489 710 l 489 139 l 582 139 l 582 710 l 740 710 z "},"ъ":{"ha":833,"x_min":38,"x_max":801,"o":"m 242 560 l 38 560 l 38 710 l 424 710 l 424 471 l 535 471 q 731 409 661 471 q 801 236 801 347 q 731 63 801 125 q 535 0 661 0 l 242 0 l 242 560 m 424 335 l 424 136 l 517 136 q 591 163 567 136 q 615 236 615 190 q 591 308 615 282 q 517 335 567 335 l 424 335 z "},"ы":{"ha":833,"x_min":49,"x_max":785,"o":"m 49 0 l 49 710 l 235 710 l 235 468 l 307 468 q 476 406 415 468 q 538 233 538 343 q 476 62 538 124 q 307 0 415 0 l 49 0 m 599 710 l 785 710 l 785 0 l 599 0 l 599 710 m 235 339 l 235 129 l 274 129 q 331 155 310 129 q 351 233 351 181 q 331 313 351 286 q 274 339 310 339 l 235 339 z "},"ь":{"ha":833,"x_min":108,"x_max":757,"o":"m 108 710 l 303 710 l 303 472 l 490 472 q 687 410 617 472 q 757 236 757 347 q 687 63 757 125 q 490 0 617 0 l 108 0 l 108 710 m 303 333 l 303 139 l 464 139 q 538 165 514 139 q 563 236 563 190 q 538 308 563 282 q 464 333 514 333 l 303 333 z "},"э":{"ha":833,"x_min":103,"x_max":747,"o":"m 354 -15 q 213 1 278 -15 q 103 44 147 17 l 103 174 q 216 145 161 156 q 317 135 271 135 q 424 142 379 135 q 497 169 468 150 q 542 217 526 188 q 560 293 557 247 l 178 293 l 178 422 l 560 422 q 489 542 550 508 q 310 575 428 575 q 211 565 261 575 q 107 539 161 556 l 107 668 q 221 708 158 692 q 356 725 283 725 q 650 628 553 725 q 747 358 747 532 q 647 83 747 181 q 354 -15 547 -15 z "},"ю":{"ha":833,"x_min":56,"x_max":804,"o":"m 549 -21 q 376 60 436 -21 q 306 289 317 142 l 231 289 l 231 0 l 56 0 l 56 710 l 231 710 l 231 433 l 306 433 q 380 653 318 576 q 556 731 442 731 q 742 631 679 731 q 804 356 804 532 q 741 77 804 175 q 549 -21 678 -21 m 551 118 q 611 178 594 118 q 628 356 628 238 q 610 531 628 471 q 553 592 593 592 q 492 533 510 592 q 475 356 475 474 q 493 178 475 239 q 551 118 511 118 z "},"я":{"ha":833,"x_min":53,"x_max":706,"o":"m 253 300 q 151 372 188 322 q 114 492 114 421 q 176 649 114 589 q 358 710 239 710 l 706 710 l 706 0 l 514 0 l 514 271 l 411 271 l 268 0 l 53 0 l 253 300 m 308 490 q 337 415 308 442 q 418 389 365 389 l 514 389 l 514 590 l 419 590 q 308 490 308 590 z "},"Α":{"ha":833,"x_min":29,"x_max":804,"o":"m 301 963 l 532 963 l 804 0 l 588 0 l 536 225 l 286 225 l 235 0 l 29 0 l 301 963 m 319 372 l 503 372 l 411 774 l 319 372 z "},"Β":{"ha":833,"x_min":106,"x_max":763,"o":"m 721 707 q 690 589 721 644 q 585 506 660 533 q 719 415 676 476 q 763 272 763 353 q 738 159 763 210 q 669 73 714 108 q 562 19 625 38 q 419 0 499 0 l 106 0 l 106 963 l 411 963 q 538 944 481 963 q 635 892 594 925 q 699 811 676 858 q 721 707 721 764 m 303 419 l 303 149 l 415 149 q 557 282 557 149 q 406 419 557 419 l 303 419 m 383 561 q 518 686 518 561 q 394 814 518 814 l 303 814 l 303 561 l 383 561 z "},"Γ":{"ha":833,"x_min":147,"x_max":753,"o":"m 147 0 l 147 963 l 753 963 l 753 796 l 350 796 l 350 0 l 147 0 z "},"Δ":{"ha":833,"x_min":69,"x_max":764,"o":"m 69 151 l 299 963 l 535 963 l 764 151 l 764 0 l 69 0 l 69 151 m 268 151 l 557 151 l 413 781 l 268 151 z "},"Ε":{"ha":833,"x_min":124,"x_max":733,"o":"m 124 963 l 733 963 l 733 807 l 321 807 l 321 571 l 654 571 l 654 415 l 321 415 l 321 156 l 733 156 l 733 0 l 124 0 l 124 963 z "},"Ζ":{"ha":833,"x_min":67,"x_max":739,"o":"m 67 0 l 67 144 l 524 807 l 99 807 l 99 963 l 739 963 l 739 818 l 282 156 l 738 156 l 738 0 l 67 0 z "},"Η":{"ha":833,"x_min":88,"x_max":746,"o":"m 88 963 l 290 963 l 290 568 l 543 568 l 543 963 l 746 963 l 746 0 l 543 0 l 543 413 l 290 413 l 290 0 l 88 0 l 88 963 z "},"Θ":{"ha":833,"x_min":56,"x_max":778,"o":"m 336 556 l 497 556 l 497 414 l 336 414 l 336 556 m 56 482 q 151 858 56 731 q 418 986 246 986 q 682 858 586 986 q 778 482 778 731 q 683 106 778 233 q 415 -22 588 -22 q 151 106 247 -22 q 56 482 56 233 m 264 482 q 301 224 264 306 q 417 142 339 142 q 532 224 494 142 q 569 482 569 306 q 532 740 569 658 q 417 822 494 822 q 301 740 339 822 q 264 482 264 658 z "},"Ι":{"ha":833,"x_min":125,"x_max":708,"o":"m 518 807 l 518 156 l 708 156 l 708 0 l 125 0 l 125 156 l 315 156 l 315 807 l 125 807 l 125 963 l 708 963 l 708 807 l 518 807 z "},"Κ":{"ha":833,"x_min":103,"x_max":813,"o":"m 103 0 l 103 963 l 306 963 l 306 535 l 565 963 l 788 963 l 486 513 l 813 0 l 575 0 l 306 465 l 306 0 l 103 0 z "},"Λ":{"ha":833,"x_min":36,"x_max":796,"o":"m 578 0 l 410 722 l 244 0 l 36 0 l 306 963 l 526 963 l 796 0 l 578 0 z "},"Μ":{"ha":833,"x_min":76,"x_max":757,"o":"m 589 0 l 589 703 l 482 363 l 351 363 l 243 706 l 243 0 l 76 0 l 76 963 l 293 963 l 418 536 l 544 963 l 757 963 l 757 0 l 589 0 z "},"Ν":{"ha":833,"x_min":82,"x_max":750,"o":"m 263 689 l 263 0 l 82 0 l 82 963 l 299 963 l 569 278 l 569 963 l 750 963 l 750 0 l 536 0 l 263 689 z "},"Ξ":{"ha":833,"x_min":72,"x_max":761,"o":"m 72 0 l 72 161 l 761 161 l 761 0 l 72 0 m 160 401 l 160 563 l 674 563 l 674 401 l 160 401 m 86 801 l 86 963 l 747 963 l 747 801 l 86 801 z "},"Ο":{"ha":833,"x_min":56,"x_max":778,"o":"m 56 482 q 151 858 56 731 q 418 986 246 986 q 682 858 586 986 q 778 482 778 731 q 683 106 778 233 q 415 -22 588 -22 q 151 106 247 -22 q 56 482 56 233 m 264 482 q 301 224 264 306 q 417 142 339 142 q 532 224 494 142 q 569 482 569 306 q 532 740 569 658 q 417 822 494 822 q 301 740 339 822 q 264 482 264 658 z "},"Π":{"ha":833,"x_min":94,"x_max":739,"o":"m 536 0 l 536 807 l 297 807 l 297 0 l 94 0 l 94 963 l 739 963 l 739 0 l 536 0 z "},"Ρ":{"ha":833,"x_min":124,"x_max":783,"o":"m 321 351 l 321 0 l 124 0 l 124 963 l 458 963 q 592 942 532 963 q 694 881 651 921 q 760 785 738 842 q 783 657 783 729 q 760 528 783 585 q 694 433 738 472 q 592 372 651 393 q 458 351 532 351 l 321 351 m 321 504 l 440 504 q 547 543 510 504 q 583 657 583 582 q 547 771 583 732 q 440 810 510 810 l 321 810 l 321 504 z "},"Σ":{"ha":833,"x_min":72,"x_max":754,"o":"m 72 0 l 72 147 l 326 489 l 93 810 l 93 963 l 743 963 l 743 801 l 319 801 l 543 494 l 294 161 l 754 161 l 754 0 l 72 0 z "},"Τ":{"ha":833,"x_min":63,"x_max":771,"o":"m 315 0 l 315 797 l 63 797 l 63 963 l 771 963 l 771 797 l 518 797 l 518 0 l 315 0 z "},"Υ":{"ha":833,"x_min":24,"x_max":810,"o":"m 518 353 l 518 0 l 315 0 l 315 350 l 24 963 l 250 963 l 419 503 l 593 963 l 810 963 l 518 353 z "},"Φ":{"ha":833,"x_min":28,"x_max":804,"o":"m 332 82 q 203 119 260 88 q 108 204 147 151 q 49 328 69 257 q 28 482 28 399 q 49 636 28 565 q 108 760 69 707 q 203 844 147 813 q 332 882 260 876 l 332 1004 l 500 1004 l 500 882 q 628 844 572 876 q 724 760 685 813 q 783 636 763 707 q 804 482 804 565 q 783 328 804 399 q 724 204 763 257 q 628 119 685 151 q 500 82 572 88 l 500 -42 l 332 -42 l 332 82 m 614 482 q 586 665 614 593 q 500 747 558 736 l 500 217 q 586 299 558 228 q 614 482 614 371 m 332 747 q 246 665 274 736 q 218 482 218 593 q 246 299 218 371 q 332 217 274 228 l 332 747 z "},"Χ":{"ha":833,"x_min":22,"x_max":810,"o":"m 585 0 l 410 343 l 244 0 l 22 0 l 304 493 l 44 963 l 271 963 l 419 646 l 571 963 l 790 963 l 522 497 l 810 0 l 585 0 z "},"Ψ":{"ha":833,"x_min":40,"x_max":794,"o":"m 507 0 l 328 0 l 328 240 q 110 349 181 258 q 40 606 40 440 l 40 963 l 219 963 l 219 572 q 328 394 219 415 l 328 963 l 507 963 l 507 394 q 615 572 615 415 l 615 963 l 794 963 l 794 606 q 724 349 794 440 q 507 240 654 258 l 507 0 z "},"Ω":{"ha":833,"x_min":51,"x_max":782,"o":"m 563 518 q 525 746 563 669 q 417 822 488 822 q 308 746 346 822 q 271 518 271 669 q 296 306 271 396 q 374 149 321 217 l 374 0 l 51 0 l 51 150 l 210 150 q 99 311 136 214 q 63 532 63 408 q 88 717 63 633 q 159 861 113 801 q 271 953 206 921 q 417 986 336 986 q 563 953 497 986 q 674 861 628 921 q 746 717 721 801 q 771 532 771 633 q 733 311 771 408 q 621 150 696 214 l 782 150 l 782 0 l 460 0 l 460 149 q 538 306 513 217 q 563 518 563 396 z "},"Ω":{"ha":833,"x_min":51,"x_max":782,"o":"m 563 518 q 525 746 563 669 q 417 822 488 822 q 308 746 346 822 q 271 518 271 669 q 296 306 271 396 q 374 149 321 217 l 374 0 l 51 0 l 51 150 l 210 150 q 99 311 136 214 q 63 532 63 408 q 88 717 63 633 q 159 861 113 801 q 271 953 206 921 q 417 986 336 986 q 563 953 497 986 q 674 861 628 921 q 746 717 721 801 q 771 532 771 633 q 733 311 771 408 q 621 150 696 214 l 782 150 l 782 0 l 460 0 l 460 149 q 538 306 513 217 q 563 518 563 396 z "},"α":{"ha":833,"x_min":60,"x_max":796,"o":"m 796 11 q 689 -10 751 -10 q 581 24 618 -10 q 533 139 544 58 q 324 -19 472 -19 q 215 6 264 -19 q 132 80 167 32 q 78 194 97 128 q 60 343 60 261 q 80 499 60 428 q 136 621 100 569 q 224 701 172 672 q 336 729 275 729 q 543 579 474 729 q 554 649 549 619 q 567 710 560 679 l 764 710 l 753 663 q 724 535 736 590 q 705 433 713 479 q 694 349 697 388 q 692 272 692 310 q 695 208 692 231 q 707 169 699 185 q 764 143 724 143 q 776 143 768 143 q 796 146 785 143 l 796 11 m 375 136 q 465 201 426 136 q 519 382 504 267 q 494 460 510 425 q 458 521 478 496 q 417 560 439 546 q 372 574 394 574 q 291 515 319 574 q 263 354 263 456 q 292 194 263 253 q 375 136 321 136 z "},"β":{"ha":833,"x_min":100,"x_max":781,"o":"m 100 -286 l 100 699 q 123 844 100 779 q 188 953 146 908 q 292 1023 231 999 q 428 1047 353 1047 q 548 1028 494 1047 q 640 975 601 1010 q 699 892 678 940 q 719 785 719 844 q 679 638 719 699 q 564 550 639 578 q 725 460 669 526 q 781 290 781 393 q 758 169 781 225 q 697 72 736 113 q 603 8 657 31 q 483 -15 549 -15 q 375 3 425 -15 q 290 51 325 22 l 290 -286 l 100 -286 m 290 175 q 425 138 351 138 q 540 178 497 138 q 583 299 583 219 q 533 419 583 375 q 396 463 483 463 l 360 463 l 360 607 l 396 607 q 500 649 461 607 q 539 763 539 692 q 507 864 539 826 q 422 901 475 901 q 327 856 364 901 q 290 740 290 811 l 290 175 z "},"γ":{"ha":833,"x_min":29,"x_max":792,"o":"m 308 -286 l 304 -196 q 285 -23 300 -108 q 238 165 269 63 q 156 399 207 268 q 29 710 106 531 l 244 710 q 349 421 306 557 q 422 158 392 285 q 481 294 456 228 q 525 428 506 361 q 558 565 544 494 q 582 710 571 635 l 792 710 q 672 318 756 508 q 485 -29 589 128 q 497 -106 492 -65 q 504 -200 501 -147 l 510 -286 l 308 -286 z "},"δ":{"ha":833,"x_min":71,"x_max":761,"o":"m 418 -21 q 276 3 340 -21 q 167 72 213 28 q 96 176 121 115 q 71 310 71 236 q 126 506 71 422 q 281 633 181 590 q 223 679 246 657 q 186 724 200 701 q 166 773 172 747 q 160 829 160 799 q 180 918 160 878 q 238 987 200 958 q 328 1031 275 1015 q 446 1047 381 1047 q 567 1033 508 1047 q 669 990 625 1018 l 669 849 q 568 880 625 868 q 465 892 511 892 q 376 877 403 892 q 349 829 349 863 q 353 806 349 817 q 373 782 358 794 q 414 753 388 769 q 482 714 440 738 q 608 631 556 672 q 695 543 661 589 q 745 445 729 497 q 761 331 761 393 q 738 183 761 249 q 669 73 714 118 q 561 3 625 28 q 418 -21 497 -21 m 556 329 q 518 464 556 410 q 390 567 481 518 q 276 329 276 492 q 314 186 276 238 q 418 135 351 135 q 556 329 556 135 z "},"ε":{"ha":833,"x_min":92,"x_max":736,"o":"m 736 43 q 609 -3 688 15 q 435 -21 531 -21 q 183 34 274 -21 q 92 189 92 89 q 131 301 92 254 q 244 368 169 349 q 148 429 185 388 q 111 533 111 471 q 199 678 111 626 q 439 731 286 731 q 588 715 519 731 q 713 672 656 700 l 713 539 q 592 567 664 554 q 453 581 521 581 q 347 562 379 581 q 314 508 314 543 q 342 458 314 478 q 443 438 371 438 l 626 438 l 626 293 l 446 293 q 328 270 361 293 q 294 208 294 247 q 330 149 294 168 q 453 129 365 129 q 593 141 524 129 q 736 176 663 153 l 736 43 z "},"ζ":{"ha":833,"x_min":90,"x_max":792,"o":"m 576 -286 q 604 -195 596 -232 q 613 -131 613 -158 q 607 -85 613 -104 q 585 -53 601 -67 q 538 -30 568 -40 q 456 -7 507 -19 l 390 8 q 164 117 238 44 q 90 313 90 189 q 195 598 90 458 q 522 878 300 738 l 119 878 l 119 1028 l 774 1028 l 774 878 q 562 727 651 797 q 413 592 472 657 q 325 464 354 526 q 296 338 296 401 q 306 273 296 300 q 342 225 317 246 q 409 188 367 204 q 515 157 451 171 l 576 143 q 742 72 692 117 q 792 -53 792 26 q 775 -159 792 -97 q 728 -286 758 -221 l 576 -286 z "}}}
